<svg width="14" height="14" viewBox="0 0 14 14" fill="none" xmlns="http://www.w3.org/2000/svg">
<path d="M7 14C3.14038 14 0 10.8596 0 7C0 3.14038 3.14038 0 7 0C10.8596 0 14 3.14038 14 7C14 10.8596 10.8596 14 7 14ZM7 0.875C3.6225 0.875 0.875 3.6225 0.875 7C0.875 10.3775 3.6225 13.125 7 13.125C10.3775 13.125 13.125 10.3775 13.125 7C13.125 3.6225 10.3775 0.875 7 0.875ZM5.74481 9.35769C5.40925 9.35769 5.07369 9.23344 4.81731 8.98494L3.31756 7.53288C3.14431 7.36488 3.1395 7.08794 3.30794 6.91425C3.47594 6.74012 3.75288 6.73575 3.92656 6.90462L5.42631 8.35669C5.60044 8.52556 5.894 8.52425 6.06681 8.35406L10.0708 4.40869C10.2423 4.23937 10.5197 4.24156 10.6894 4.4135C10.8592 4.58544 10.857 4.86237 10.6846 5.03212L6.68063 8.9775C6.42338 9.23081 6.08387 9.35769 5.74481 9.35769V9.35769Z" fill="#1A160C"/>
</svg>
