<svg width="17" height="14" viewBox="0 0 17 14" fill="none" xmlns="http://www.w3.org/2000/svg">
<path d="M2.73854 3.2536C2.60901 3.2536 2.50389 3.3586 2.50389 3.48825V4.48937C2.50389 4.61903 2.60901 4.72403 2.73854 4.72403H5.7419C5.87144 4.72403 5.97656 4.61903 5.97656 4.48937V3.48825C5.97656 3.3586 5.87144 3.2536 5.7419 3.2536H2.73854ZM5.50725 4.25472H2.9732V3.72291H5.50725V4.25472Z" fill="#1A160C"/>
<path d="M6.70445 9.22593C6.71727 9.228 6.73009 9.2291 6.74303 9.2291C6.76476 9.2291 6.78649 9.22605 6.80749 9.22007L8.55945 8.71951C8.57337 8.71548 8.58692 8.71023 8.59998 8.70376L10.1017 7.95292C10.1811 7.91312 10.2313 7.83193 10.2313 7.74305C10.2313 7.56346 10.1588 7.33076 9.98104 7.17571V2.85221C9.98104 2.72256 9.87605 2.61756 9.74639 2.61756C9.61685 2.61756 9.51174 2.72256 9.51174 2.85221V7.0082C9.50649 7.0082 9.50148 7.00784 9.49611 7.00784C9.01044 7.00784 8.38133 7.37837 8.17549 7.5084H7.0756L6.41083 6.97658H7.49387C7.6234 6.97658 7.72852 6.87159 7.72852 6.74193V6.24137C7.72852 5.83592 7.39864 5.50616 6.99331 5.50616H4.74079C4.67853 5.50616 4.61882 5.53082 4.57487 5.57489L3.64249 6.50728H3.22348V6.49165C3.22348 6.36199 3.11837 6.257 2.98883 6.257H1.97208V0.469305H4.75642V2.23689C4.75642 2.39426 4.91574 2.50927 5.0653 2.45946L5.74191 2.23396L6.41852 2.45946C6.56808 2.50927 6.7274 2.39426 6.7274 2.23689V0.469305H9.51174V1.72595C9.51174 1.85549 9.61673 1.96049 9.74639 1.96049C9.87605 1.96049 9.98104 1.85549 9.98104 1.72595V0.234653C9.98104 0.104995 9.87605 0 9.74639 0H1.73743C1.6079 0 1.50278 0.104995 1.50278 0.234653V6.257H0.235751C0.106094 6.257 0.00109863 6.36199 0.00109863 6.49165C0.00109863 6.62131 0.106094 6.7263 0.235751 6.7263H2.75418V8.7598H0.235751C0.106094 8.7598 0.00109863 8.86479 0.00109863 8.99445C0.00109863 9.12411 0.106094 9.2291 0.235751 9.2291H2.98883C3.11837 9.2291 3.22348 9.12411 3.22348 8.99445V8.72854H3.72014L6.70445 9.22593ZM6.2581 0.469305V1.91141L5.81614 1.76405C5.76828 1.74805 5.71554 1.74805 5.66768 1.76405L5.22572 1.91141V0.469305H6.2581ZM3.22348 6.97658H3.73967C3.80132 6.97658 3.86176 6.95119 3.90559 6.90785L4.83797 5.97546H6.99331C7.13994 5.97546 7.25922 6.09474 7.25922 6.24137V6.50728H5.74191C5.64522 6.50728 5.55707 6.56905 5.52264 6.65891C5.48711 6.75182 5.51666 6.86341 5.59528 6.92518L6.84668 7.9263C6.88831 7.95951 6.94008 7.9777 6.99331 7.9777H8.24471C8.29098 7.9777 8.33628 7.96403 8.37485 7.93827C8.56727 7.80995 9.14376 7.47714 9.49611 7.47714C9.63456 7.47714 9.70232 7.54039 9.73455 7.61181L8.40953 8.27425L6.72948 8.7543L3.77825 8.26241C3.77593 8.26205 3.77373 8.26192 3.77154 8.26168C3.76726 8.26107 3.76311 8.26058 3.75896 8.26021C3.75481 8.25985 3.75066 8.25973 3.74663 8.2596C3.74431 8.25948 3.74199 8.25924 3.73967 8.25924H3.22348V6.97658Z" fill="#1A160C"/>
<path d="M15.7531 12.9989H13.2504C13.2477 12.9989 13.2451 12.9992 13.2424 12.9992C13.2383 12.9994 13.2341 12.9996 13.23 12.9998C13.2253 13.0003 13.2208 13.0008 13.2163 13.0014C13.2138 13.0018 13.2115 13.0019 13.2092 13.0023L10.2615 13.4936L8.58611 13.0149L7.27611 12.3599C7.30968 12.2964 7.37439 12.248 7.49391 12.248C7.84101 12.248 8.41482 12.5791 8.6065 12.7066C8.64752 12.7339 8.69587 12.7486 8.74531 12.7486H9.99671C10.0318 12.7486 10.0664 12.7413 10.0984 12.727L12.3464 11.7279C12.4552 11.6813 12.5187 11.5613 12.494 11.4452C12.4695 11.3293 12.3624 11.2446 12.2439 11.2469H10.9978V10.9966C10.9978 10.8587 11.1102 10.7463 11.2481 10.7463H13.397L14.3247 11.6742C14.3714 11.7205 14.4361 11.7475 14.5017 11.7475H15.7531C15.8914 11.7475 16.0034 11.6354 16.0034 11.4972C16.0034 11.359 15.8914 11.2469 15.7531 11.2469H14.6054L13.6777 10.3192C13.6307 10.2722 13.567 10.2458 13.5006 10.2458H11.2481C10.8341 10.2458 10.4973 10.5826 10.4973 10.9966V11.4972C10.4973 11.6354 10.6093 11.7475 10.7476 11.7475H11.0699L10.9837 11.7858H10.3207C10.1099 11.653 9.48223 11.2852 8.99559 11.2852C8.49857 11.2852 8.28724 11.6508 8.25073 11.9439C8.00888 11.8372 7.73418 11.7475 7.49391 11.7475C6.94305 11.7475 6.74307 12.1965 6.74307 12.4983C6.74307 12.5932 6.79667 12.6797 6.8814 12.7222L8.38308 13.4731C8.39687 13.48 8.4114 13.4855 8.4263 13.4898L10.1783 13.9903C10.2007 13.9968 10.2238 14 10.247 14C10.2607 14 10.2745 13.9989 10.2881 13.9967L13.2711 13.4994H15.7531C15.8914 13.4994 16.0034 13.3874 16.0034 13.2491C16.0034 13.1109 15.8914 12.9989 15.7531 12.9989V12.9989ZM8.78145 11.8978C8.80916 11.8423 8.85617 11.7858 8.99559 11.7858C9.30997 11.7858 9.81028 12.0573 10.0443 12.2033L9.9436 12.248H9.41203C9.38896 12.2153 9.35783 12.1876 9.31949 12.1684L8.78072 11.8991C8.78096 11.8986 8.78121 11.8981 8.78145 11.8978Z" fill="#1A160C"/>
</svg>
