<svg width="14" height="14" viewBox="0 0 14 14" fill="none" xmlns="http://www.w3.org/2000/svg">
<g clip-path="url(#clip0_1115_18668)">
<path d="M0.743011 4.3196H3.11713C3.52682 4.3196 3.86014 4.65309 3.86014 5.06302V7.79559H4.74816C4.6988 7.61619 4.68051 7.40458 4.69251 7.15832V7.15829C4.71179 6.11762 4.90063 5.24054 5.25383 4.55142C5.52809 4.01639 5.84814 3.69562 6.12278 3.50386C5.80043 3.17242 5.61405 2.70093 5.61405 2.15715C5.61405 1.17876 6.39453 0.382812 7.35383 0.382812C8.31313 0.382812 9.0936 1.17876 9.0936 2.15715C9.0936 2.27043 9.00178 2.36223 8.88852 2.36223H8.74918C8.762 2.43961 8.76884 2.51847 8.76884 2.59856C8.76884 3.28806 8.27616 3.86433 7.62478 3.99347C7.69305 4.247 7.72699 4.54595 7.72685 4.88556L8.23834 5.3255L9.48289 5.42615L10.9185 4.95157C11.0501 4.90782 11.1992 4.85838 11.3286 4.95168C11.4561 5.04369 11.4561 5.20477 11.4561 5.25768V6.32505C11.4561 6.43833 11.3643 6.53013 11.2511 6.53013H11.0069L11.3814 7.82414C11.4128 7.93291 11.3502 8.04666 11.2414 8.07814C11.1325 8.10977 11.0188 8.04694 10.9873 7.93816L10.5799 6.53013H9.99685C10.722 8.74147 10.3082 10.2175 9.67225 11.7114H10.0409L11.5763 9.99455L11.2517 8.87291C11.2202 8.76411 11.2828 8.65039 11.3916 8.61891C11.5004 8.58744 11.6141 8.65011 11.6456 8.75889L11.9562 9.83177C12.9167 9.81575 13.7758 10.478 13.9947 11.4307C14.0201 11.5411 13.9512 11.6511 13.8409 11.6765L13.5498 11.7435C13.6241 12.516 13.1154 13.2448 12.3396 13.4234C12.2217 13.4506 12.1029 13.464 11.9849 13.464C11.6938 13.464 11.4079 13.3824 11.155 13.2238C10.8582 13.0379 10.637 12.7644 10.5173 12.4413L10.2876 12.4941C10.2192 12.51 10.1543 12.518 10.0894 12.4831C10.0291 12.4506 9.98894 12.3919 9.97391 12.3257C9.95947 12.2586 9.94848 12.1904 9.94085 12.1215H5.65176C5.5146 12.9743 4.78904 13.6171 3.92249 13.6171C3.05594 13.6171 2.33034 12.9743 2.19319 12.1215H2.03667C2.03667 12.1215 2.00561 12.1219 1.99853 12.1219C1.93987 12.1219 1.85516 12.1154 1.7856 12.0446C1.75079 12.0092 1.70994 11.9458 1.71308 11.8452C1.71885 11.6526 1.74776 11.4665 1.79708 11.2897C1.63373 10.298 1.79091 9.69396 2.0239 9.22127C1.8766 9.12472 1.77893 8.95836 1.77893 8.76936V8.20572H0.743065C0.333374 8.20572 5.4121e-05 7.87224 5.4121e-05 7.4623V5.063C-5.66485e-07 4.65309 0.333292 4.3196 0.743011 4.3196V4.3196ZM11.3728 12.8764C11.6353 13.0409 11.9459 13.0932 12.2475 13.0238H12.2475C12.8025 12.896 13.1728 12.3871 13.1458 11.8368L10.9213 12.3487C11.0134 12.5654 11.1691 12.7487 11.3728 12.8764V12.8764ZM10.3466 12.0597L13.5367 11.3256C13.2905 10.6515 12.628 10.2053 11.9039 10.2437L10.3412 11.9909C10.3425 12.014 10.3443 12.0369 10.3466 12.0597ZM7.24899 8.48602C7.30852 8.64303 7.30852 8.8366 7.30852 9.10454V9.87842H8.05946V8.81672C8.05946 7.61638 7.40436 7.40247 7.11036 7.36717H5.0998C5.10789 7.6396 5.16936 7.83325 5.28607 7.95616C5.42207 8.09938 5.6548 8.16916 5.99758 8.16949L6.7337 8.17026C6.9962 8.17029 7.16956 8.27649 7.24899 8.48602V8.48602ZM7.30852 10.2886V10.7782C7.31038 10.7782 7.31229 10.7782 7.31426 10.7782H8.77094C8.75457 10.6264 8.70726 10.5088 8.62958 10.4275C8.51402 10.3066 8.35127 10.2886 8.26454 10.2886H7.30852ZM5.10885 6.95704H6.97389C7.04878 6.72137 7.11555 6.4633 7.17046 6.19806L6.60343 5.83002C6.2939 5.62901 6.13287 5.34499 6.16164 5.05075C6.18712 4.78991 6.36445 4.55692 6.61339 4.4572C6.84072 4.36614 7.08542 4.39474 7.30168 4.53302C7.28385 4.33686 7.25066 4.16175 7.20264 4.01311C7.11523 4.00408 7.02841 3.98699 6.94315 3.96192C6.7696 3.92161 6.60923 3.85738 6.46444 3.77221C6.06946 4.00818 5.20075 4.77359 5.10885 6.95704V6.95704ZM8.66843 1.9521C8.57172 1.29683 8.01905 0.792996 7.35383 0.792996C6.62069 0.792996 6.02421 1.40498 6.02421 2.15718C6.02421 2.76896 6.31758 3.26205 6.79063 3.47905V2.39999C6.79063 2.21315 6.86213 1.98395 7.20267 1.95295C7.20885 1.95237 7.21506 1.9521 7.22126 1.9521H8.66843ZM8.35866 2.59859C8.35866 2.51765 8.34944 2.4386 8.33131 2.36225H7.23133C7.21867 2.36362 7.20943 2.3651 7.20281 2.36644C7.20174 2.37404 7.20081 2.38498 7.20081 2.39999V3.59972C7.24967 3.60691 7.29884 3.61055 7.34798 3.61058C7.34844 3.61058 7.34891 3.61058 7.34934 3.61058C7.90595 3.61006 8.35866 3.15629 8.35866 2.59859ZM8.62452 5.76827L8.13878 5.72898C8.0955 5.72551 8.05446 5.70836 8.02151 5.68006L7.14487 4.92606L7.14473 4.92592C7.05996 4.85289 6.96948 4.81543 6.88138 4.81543C6.84217 4.81543 6.80342 4.82286 6.76588 4.8379C6.65752 4.8813 6.58057 4.9805 6.5698 5.09059C6.55627 5.22914 6.64754 5.36957 6.82672 5.48595L7.80358 6.12H8.62446V5.76827H8.62452ZM9.49121 5.83838L9.03467 5.80147V6.12005H9.56517C9.63394 6.12005 9.6507 6.0629 9.65267 6.01497C9.65379 5.98779 9.65122 5.85151 9.49121 5.83838V5.83838ZM9.97659 5.6968C10.0384 5.79808 10.0672 5.91656 10.0625 6.03176C10.0612 6.06159 10.0574 6.09033 10.0521 6.11833C10.0521 6.1189 10.0525 6.11948 10.0524 6.12002H11.0459V5.34147L9.97579 5.69521C9.97612 5.69576 9.97628 5.69628 9.97659 5.6968V5.6968ZM9.56402 6.53018H7.7429C7.70328 6.53018 7.66448 6.5187 7.63126 6.49712L7.53842 6.43686C7.49377 6.63422 7.44291 6.82629 7.38751 7.00768C7.80576 7.13114 8.46964 7.53011 8.46964 8.81669V9.89898C8.61353 9.92802 8.78374 9.99513 8.92612 10.1441C9.07621 10.3012 9.16193 10.514 9.1825 10.7782H9.59621C10.0131 9.57677 10.1716 8.29828 9.56402 6.53018V6.53018ZM9.226 11.7107C9.3018 11.5364 9.37486 11.3627 9.44366 11.1884H7.31429C7.03831 11.1884 6.89839 11.0627 6.89839 10.815V10.0835V9.30959H5.27967C5.16638 9.30959 5.07459 9.2178 5.07459 9.10451C5.07459 8.99123 5.16638 8.89943 5.27967 8.89943H6.89691C6.89429 8.78295 6.88682 8.68768 6.86547 8.63141C6.8551 8.60404 6.84614 8.58041 6.73351 8.58041L5.99719 8.57965C5.53604 8.57921 5.20614 8.46765 4.98862 8.23856C4.97856 8.22795 4.96904 8.21682 4.9595 8.20575H3.65504H2.189V8.76939C2.189 8.83988 2.24842 8.89943 2.31875 8.89943H4.36037C4.47366 8.89943 4.56545 8.99123 4.56545 9.10451C4.56545 9.2178 4.47366 9.30959 4.36037 9.30959H2.43925C2.27716 9.61045 2.13136 9.98482 2.14003 10.5763C2.54576 10.0127 3.20258 9.65032 3.94803 9.65032C4.54669 9.65032 5.10844 9.88515 5.52984 10.3116C5.90376 10.6899 6.12834 11.181 6.17455 11.7114L9.226 11.7107ZM3.92246 13.207C4.56356 13.207 5.10426 12.7451 5.23507 12.1216H2.60985C2.74069 12.745 3.28139 13.207 3.92246 13.207V13.207ZM2.37688 11.7114H5.46798H5.76261C5.66193 10.7841 4.88657 10.0605 3.94803 10.0605C3.12402 10.0605 2.43203 10.6038 2.20287 11.3644C2.20213 11.3669 2.20139 11.3693 2.20057 11.3716C2.16817 11.4808 2.14528 11.5944 2.13289 11.7114H2.37688ZM0.410155 7.46233C0.410155 7.64611 0.55948 7.79559 0.743011 7.79559H3.44999V6.73654H0.410155V7.46233ZM0.410155 6.32639H3.44999V5.89023H0.410155V6.32639ZM0.410155 5.48007H3.44999V5.06302C3.44999 4.87925 3.30066 4.72976 3.11713 4.72976H0.743011C0.55948 4.72976 0.410155 4.87927 0.410155 5.06302V5.48007Z" fill="#6FE710"/>
</g>
<defs>
<clipPath id="clip0_1115_18668">
<rect width="14" height="14" fill="white" transform="matrix(-1 0 0 1 14 0)"/>
</clipPath>
</defs>
</svg>
