<svg width="14" height="14" viewBox="0 0 14 14" fill="none" xmlns="http://www.w3.org/2000/svg">
<path d="M6.6836 5.01368L5.77276 4.10284V10.8534H5.21276V4.10284L4.30192 5.01368L3.906 4.61776L5.49276 3.031L7.07952 4.61776L6.6836 5.01368ZM8.78724 9.89716V3.14664H8.22724V9.89716L7.3164 8.98632L6.92048 9.38224L8.50724 10.969L10.094 9.38224L9.69808 8.98632L8.78724 9.89716ZM14 7C14 8.86984 13.272 10.6277 11.9498 11.9498C10.6277 13.272 8.86984 14 7 14C5.13016 14 3.37232 13.272 2.05016 11.9498C0.728 10.6277 0 8.86984 0 7C0 5.13016 0.728 3.37232 2.05016 2.05016C3.37232 0.728 5.13016 0 7 0C8.86984 0 10.6277 0.728 11.9498 2.05016C13.272 3.37232 14 5.13016 14 7V7ZM13.44 7C13.44 3.44904 10.551 0.56 7 0.56C3.44904 0.56 0.56 3.44904 0.56 7C0.56 10.551 3.44904 13.44 7 13.44C10.551 13.44 13.44 10.551 13.44 7V7Z" fill="#1A160C"/>
</svg>
