<svg width="93" height="36" viewBox="0 0 93 36" fill="none" xmlns="http://www.w3.org/2000/svg">
<path d="M61.9899 20.353H51.8501L46.7472 27.2651H52.9397L56.8573 21.4635L60.8311 27.2651H67.0787L61.9899 20.353Z" fill="#F0BA1B"/>
<path d="M61.525 15.465L66.6403 8.55284H60.7763L56.9951 13.9527L53.1589 8.55284H47.0477L52.0442 15.465H61.525Z" fill="#F0BA1B"/>
<path d="M73.7643 20.353H68.339V27.2651H73.7643V20.353Z" fill="white"/>
<path d="M73.7643 8.55284H68.339V15.465H73.7643V8.55284Z" fill="white"/>
<path d="M75.8186 8.74839V12.9443H81.7105V15.465H87.1362V12.9443H92.9999V8.74839H75.8186Z" fill="white"/>
<path d="M87.1359 20.353H81.7105V27.4606H87.1359V20.353Z" fill="white"/>
<path d="M54.8235 17.365H52.0315V18.1289H54.8235V17.365Z" fill="white"/>
<path d="M60.2038 17.365H57.4119V18.1289H60.2038V17.365Z" fill="white"/>
<path d="M65.5839 17.365H62.7919V18.1289H65.5839V17.365Z" fill="white"/>
<path d="M70.9643 17.365H68.1723V18.1289H70.9643V17.365Z" fill="white"/>
<path d="M76.3443 17.365H73.5523V18.1289H76.3443V17.365Z" fill="white"/>
<path d="M81.7247 17.365H78.9327V18.1289H81.7247V17.365Z" fill="white"/>
<path d="M87.1047 17.365H84.3128V18.1289H87.1047V17.365Z" fill="white"/>
<path d="M43.6017 14.9125C43.6022 15.6136 43.7808 15.9574 44.2203 16.1037C44.6641 16.2517 45.0212 16.0975 45.4601 15.5661V9.13C45.2484 8.94178 45.0644 8.70487 44.8207 8.57348C39.6076 5.76665 34.3868 2.97418 29.1717 0.170731C28.7316 -0.0656092 28.3457 -0.0532295 27.907 0.18283C22.6931 2.9874 17.4742 5.78269 12.2531 8.57404C11.826 8.80194 11.6195 9.11734 11.633 9.59425C11.648 10.148 11.6362 10.7025 11.6362 11.2984H11.0851C8.0344 11.2984 4.98401 11.2979 1.93334 11.2984C1.57746 11.2984 1.22042 11.2858 0.86569 11.3069C0.369357 11.3356 0.0241441 11.6861 0.00164905 12.1493C-0.0214228 12.6377 0.301295 13.0268 0.804549 13.0983C0.956247 13.1197 1.11342 13.1109 1.26829 13.1109C4.53555 13.1115 7.8031 13.1115 11.0704 13.1115H11.5967V16.3747C9.86948 16.3747 8.18206 16.3643 6.49522 16.3862C6.22124 16.3893 5.91035 16.4836 5.68626 16.6347C5.36239 16.8533 5.31798 17.2266 5.44285 17.5781C5.5908 17.9959 5.93227 18.1858 6.37871 18.1866C7.95855 18.1886 9.53811 18.1878 11.1174 18.1878H11.5961V22.9022C9.11041 22.9022 6.66393 22.9016 4.21803 22.9022C4.04758 22.9027 3.87541 22.8943 3.70785 22.9151C3.2741 22.9689 2.94302 23.3147 2.90755 23.7325C2.87323 24.1337 3.11606 24.5169 3.52241 24.6429C3.70901 24.7009 3.91694 24.7113 4.11536 24.7119C6.45369 24.7167 8.79173 24.715 11.1301 24.715H11.6365C11.6365 25.2985 11.6575 25.812 11.631 26.3235C11.6025 26.8741 11.8384 27.2157 12.3338 27.4799C17.5184 30.2437 22.6966 33.0178 27.8693 35.8033C28.3405 36.0568 28.7414 36.0683 29.2141 35.8137C34.3744 33.0384 39.5439 30.2794 44.7013 27.4993C44.9955 27.3409 45.2095 27.0412 45.4604 26.8069V22.2745C45.4292 22.2233 45.3987 22.1709 45.3667 22.1197C45.0944 21.6884 44.7238 21.5261 44.2742 21.6423C43.8728 21.7452 43.6089 22.0916 43.6051 22.5662C43.5965 23.6084 43.6146 24.6508 43.589 25.6924C43.5852 25.8581 43.454 26.0956 43.3098 26.1735C38.8044 28.6042 34.2899 31.0196 29.7764 33.4357C29.6991 33.4776 29.6152 33.5063 29.4779 33.5648V33.0775C29.4779 28.3802 29.4817 23.6838 29.4699 18.9865C29.4687 18.6571 29.5653 18.4778 29.8687 18.3214C31.0711 17.7007 32.2567 17.0497 33.4501 16.4115C33.5948 16.3347 33.7459 16.2692 33.962 16.1654C33.962 17.1318 33.962 18.0322 33.9625 18.9328C33.9625 19.28 33.9421 19.6294 33.9718 19.9744C34.0335 20.6882 34.7008 21.0675 35.3506 20.7343C36.4999 20.1443 37.6318 19.5225 38.7672 18.9072C39.1286 18.7116 39.2512 18.3906 39.2492 17.9942C39.2411 16.5598 39.2396 15.1246 39.2555 13.6903C39.2575 13.5257 39.3391 13.2803 39.4646 13.2108C40.8048 12.4655 42.1614 11.7486 43.6022 10.9763L43.6017 14.9125ZM27.6181 33.2851C27.6181 33.3588 27.6094 33.4331 27.6025 33.5535C27.4557 33.4871 27.3311 33.4396 27.2149 33.3774C22.7565 30.9907 18.2996 28.6019 13.8401 26.2171C13.6273 26.1032 13.4854 26.0016 13.4857 25.7141C13.4981 20.913 13.4944 16.1116 13.4952 11.3105C13.4952 11.2253 13.5065 11.1406 13.5157 11.0083C13.6657 11.0795 13.7747 11.1254 13.8779 11.1808C18.336 13.5684 22.792 15.9583 27.2524 18.3414C27.4871 18.4663 27.6276 18.5808 27.627 18.881C27.6155 23.6824 27.6192 28.4835 27.6181 33.2851ZM28.7523 16.8499C28.6436 16.9073 28.4446 16.9011 28.3336 16.842C23.7532 14.3951 19.1775 11.9382 14.6015 9.48255C14.5885 9.47523 14.579 9.46229 14.5378 9.42402C15.7358 8.78084 16.945 8.17845 18.1012 7.49053C18.6904 7.14024 19.1271 7.16219 19.7287 7.48997C23.9649 9.79767 28.226 12.0626 32.4784 14.3416C32.6232 14.419 32.7631 14.5053 32.9491 14.6131C31.5184 15.3792 30.1395 16.1229 28.7523 16.8499ZM35.0336 13.4742C34.8975 13.5316 34.659 13.437 34.5004 13.3523C30.8248 11.3902 27.1535 9.42037 23.4816 7.45143C22.6325 6.99647 21.7829 6.54095 20.8554 6.04351C21.3685 5.76778 21.8031 5.52328 22.2513 5.3041C22.3355 5.26274 22.4903 5.29426 22.5832 5.34377C27.1514 7.78849 31.7156 10.2391 36.2807 12.6892C36.2937 12.6959 36.3032 12.7094 36.3724 12.775C35.8997 13.0288 35.4818 13.2854 35.0336 13.4742ZM37.3873 16.3359C37.3873 17.7255 37.28 17.8676 35.821 18.3535C35.821 17.3321 35.8152 16.3536 35.8285 15.3747C35.8302 15.265 35.9138 15.1103 36.0076 15.0543C36.4272 14.807 36.8641 14.5872 37.3873 14.3087V16.3359ZM38.5757 11.5806C38.431 11.6549 38.1582 11.6051 37.9969 11.5196C35.0086 9.93244 32.0288 8.33179 29.0474 6.7334C27.4903 5.89889 25.9324 5.06467 24.3347 4.2085C24.4569 4.12887 24.5368 4.06838 24.6242 4.02139C25.8297 3.37343 27.032 2.7204 28.2468 2.08903C28.3947 2.01222 28.6505 1.98436 28.7875 2.05723C33.3482 4.48535 37.9 6.92866 42.4533 9.37028C42.4795 9.38435 42.4988 9.41052 42.56 9.46651C41.212 10.1871 39.9018 10.8997 38.5757 11.5806Z" fill="white"/>
<path d="M45.4598 19.1927C45.3949 19.2709 45.3309 19.3494 45.2654 19.427C44.9029 19.8567 44.275 19.8992 43.8828 19.5213C43.4964 19.1488 43.5145 18.5537 43.9235 18.2034C44.3339 17.8517 44.9686 17.9322 45.2948 18.3804C45.3565 18.4654 45.4053 18.559 45.4598 18.6488C45.4598 18.83 45.4598 19.0115 45.4598 19.1927Z" fill="white"/>
</svg>
