<svg width="14" height="14" viewBox="0 0 14 14" fill="none" xmlns="http://www.w3.org/2000/svg">
<path d="M7 14C5.61553 14 4.26215 13.5895 3.11101 12.8203C1.95987 12.0511 1.06266 10.9579 0.532846 9.67879C0.00303298 8.3997 -0.13559 6.99224 0.134506 5.63437C0.404603 4.2765 1.07129 3.02922 2.05026 2.05026C3.02922 1.07129 4.2765 0.404603 5.63437 0.134506C6.99224 -0.13559 8.3997 0.00303298 9.67879 0.532846C10.9579 1.06266 12.0511 1.95987 12.8203 3.11101C13.5895 4.26215 14 5.61553 14 7C14 8.85652 13.2625 10.637 11.9497 11.9497C10.637 13.2625 8.85652 14 7 14ZM7 1C5.81331 1 4.65328 1.3519 3.66658 2.01119C2.67989 2.67047 1.91085 3.60755 1.45673 4.7039C1.0026 5.80026 0.88378 7.00666 1.11529 8.17054C1.3468 9.33443 1.91825 10.4035 2.75736 11.2426C3.59648 12.0818 4.66557 12.6532 5.82946 12.8847C6.99335 13.1162 8.19975 12.9974 9.2961 12.5433C10.3925 12.0892 11.3295 11.3201 11.9888 10.3334C12.6481 9.34673 13 8.18669 13 7C13 5.4087 12.3679 3.88258 11.2426 2.75736C10.1174 1.63214 8.5913 1 7 1V1ZM7.705 7L10.355 4.355C10.4016 4.30838 10.4386 4.25304 10.4638 4.19213C10.4891 4.13122 10.502 4.06593 10.502 4C10.502 3.93407 10.4891 3.86879 10.4638 3.80788C10.4386 3.74697 10.4016 3.69162 10.355 3.645C10.3084 3.59838 10.253 3.5614 10.1921 3.53617C10.1312 3.51094 10.0659 3.49796 10 3.49796C9.93407 3.49796 9.86879 3.51094 9.80788 3.53617C9.74697 3.5614 9.69162 3.59838 9.645 3.645L7 6.295L4.355 3.645C4.26085 3.55085 4.13315 3.49796 4 3.49796C3.86685 3.49796 3.73915 3.55085 3.645 3.645C3.55085 3.73915 3.49796 3.86685 3.49796 4C3.49796 4.13315 3.55085 4.26085 3.645 4.355L6.295 7L3.645 9.645C3.59814 9.69148 3.56094 9.74678 3.53556 9.80771C3.51017 9.86864 3.4971 9.934 3.4971 10C3.4971 10.066 3.51017 10.1314 3.53556 10.1923C3.56094 10.2532 3.59814 10.3085 3.645 10.355C3.69148 10.4019 3.74678 10.4391 3.80771 10.4644C3.86864 10.4898 3.934 10.5029 4 10.5029C4.06601 10.5029 4.13136 10.4898 4.19229 10.4644C4.25322 10.4391 4.30852 10.4019 4.355 10.355L7 7.705L9.645 10.355C9.69148 10.4019 9.74678 10.4391 9.80771 10.4644C9.86864 10.4898 9.934 10.5029 10 10.5029C10.066 10.5029 10.1314 10.4898 10.1923 10.4644C10.2532 10.4391 10.3085 10.4019 10.355 10.355C10.4019 10.3085 10.4391 10.2532 10.4644 10.1923C10.4898 10.1314 10.5029 10.066 10.5029 10C10.5029 9.934 10.4898 9.86864 10.4644 9.80771C10.4391 9.74678 10.4019 9.69148 10.355 9.645L7.705 7Z" fill="#1A160C"/>
</svg>
