<svg width="15" height="14" viewBox="0 0 15 14" fill="none" xmlns="http://www.w3.org/2000/svg">
<path d="M11.7198 10.0884L11.1256 9.73233C10.9444 9.62398 10.7372 9.56679 10.526 9.56667H9.63168C9.44859 9.56633 9.2663 9.58991 9.08924 9.63663L6.39452 10.36C6.09989 10.4413 5.86325 10.6608 5.76003 10.9484L3.38978 9.66614C3.19758 9.55676 2.97256 9.51962 2.75541 9.56132C2.67349 9.57579 2.59408 9.60188 2.51945 9.63879C2.35095 9.71946 2.21115 9.84979 2.11864 10.0121C2.03775 10.1535 1.99525 10.3136 1.99525 10.4764C1.99274 10.8089 2.16888 11.1169 2.45645 11.2835L6.70453 13.8252C6.8891 13.9395 7.1017 14 7.31874 14H10.6064C10.7532 14.0001 10.8987 13.9723 11.0352 13.9183L11.7198 13.648V14H14.0532V9.33334H11.7198V10.0884ZM10.8637 13.4843C10.7821 13.5166 10.6949 13.5332 10.6071 13.5333H7.31874C7.18726 13.5332 7.0584 13.4962 6.94698 13.4265L2.69309 10.8818C2.54851 10.7983 2.45998 10.6436 2.46112 10.4766C2.46146 10.3948 2.483 10.3144 2.52367 10.2433C2.57015 10.1628 2.64011 10.0982 2.72408 10.0583C2.7611 10.0403 2.8003 10.0275 2.84074 10.0205C2.87025 10.015 2.90022 10.0121 2.93018 10.0121C3.01039 10.0119 3.08923 10.0329 3.15884 10.0728L5.72904 11.4616C5.732 11.4758 5.732 11.4898 5.73576 11.5041C5.84628 11.9114 6.21576 12.1943 6.63788 12.1947C6.76776 12.1829 6.89639 12.1599 7.0224 12.1262L9.44665 11.4774L9.32634 11.0266L6.90995 11.6725C6.80354 11.697 6.66625 11.725 6.63788 11.7274C6.4271 11.7277 6.24231 11.5869 6.18682 11.3837C6.1793 11.3554 6.17486 11.3265 6.17326 11.2973C6.17326 11.2973 6.17144 11.2408 6.17326 11.221C6.19104 11.0258 6.32775 10.862 6.51654 10.8094L9.21013 10.0888C9.34764 10.052 9.48938 10.0333 9.63168 10.0333H10.526C10.6527 10.0333 10.777 10.0677 10.8856 10.1328L11.7198 10.6323V13.146L10.8637 13.4843ZM12.1865 9.80001H13.5865V13.5333H12.1865V9.80001Z" fill="#1A160C"/>
<path d="M9.67679 1.86668L8.42513 0.615129C8.03218 0.219898 7.4975 -0.0015865 6.94025 8.55591e-06H4.00673C3.82569 0.00023642 3.64716 0.0425053 3.48503 0.123169L2.96208 0.384758C2.85726 0.437509 2.74082 0.462688 2.62359 0.458016L2.38649 0.449699V8.55591e-06H0.0531616V5.13334H2.38649V4.43334H2.78321L2.92437 4.52665C3.31937 4.78892 3.77932 4.93704 4.25316 4.95435V7.93334H14.0532V1.86668H9.67679ZM1.91983 4.66668H0.519828V0.466675H1.91983V4.66668ZM3.18265 4.13837L2.92312 3.96668H2.38649V0.916594L2.6065 0.924455C2.80189 0.931405 2.9958 0.889364 3.17069 0.802206L3.69318 0.540617C3.79048 0.491968 3.89792 0.466675 4.00673 0.466675H6.94025C7.37365 0.465422 7.78962 0.637688 8.09519 0.944963L9.0169 1.86668H7.09144L6.52509 1.30043L6.19525 1.63027L7.84351 3.27864C8.0266 3.46093 8.02717 3.75715 7.84488 3.94036C7.66247 4.12345 7.36625 4.12402 7.18316 3.94172L5.80651 2.56508L5.64314 2.7051C5.19208 3.08814 4.53275 3.09794 4.07041 2.72835L3.93518 2.61874L3.64112 2.98127L3.77784 3.09213C3.92082 3.2064 4.08135 3.29687 4.25316 3.35999V4.48746C3.87126 4.47048 3.50109 4.34983 3.18265 4.13837ZM6.50184 3.91996L6.85389 4.27213C7.21939 4.63215 7.80614 4.63272 8.1722 4.27327C7.82972 4.80362 7.96485 5.50943 8.47902 5.87572C8.9932 6.24202 9.70448 6.13914 10.0938 5.64228C10.4831 5.1453 10.4128 4.43004 9.93405 4.01851C9.45542 3.60699 8.73765 3.6447 8.30482 4.10408C8.46421 3.85377 8.4927 3.54182 8.38127 3.26668H11.5059C11.6062 3.85377 12.0661 4.3136 12.6532 4.41397V5.38604C12.0661 5.48642 11.6062 5.94625 11.5059 6.53334H6.80046C6.70009 5.94625 6.24025 5.48642 5.65316 5.38604V4.41397C5.98664 4.3578 6.28822 4.18224 6.50184 3.91996ZM8.45316 4.90001C8.45316 4.51344 8.76659 4.20001 9.15316 4.20001C9.53973 4.20001 9.85316 4.51344 9.85316 4.90001C9.85316 5.28658 9.53973 5.60001 9.15316 5.60001C8.76659 5.60001 8.45316 5.28658 8.45316 4.90001ZM13.5865 7.46668H4.71983V3.45774C5.08977 3.48554 5.45857 3.3912 5.76983 3.18943L6.16791 3.58751C5.99279 3.8254 5.71525 3.96611 5.41983 3.96668H5.18649V5.83334H5.41983C5.93526 5.83334 6.35316 6.25125 6.35316 6.76667V7.00001H11.9532V6.76667C11.9532 6.25125 12.3711 5.83334 12.8865 5.83334H13.1198V3.96668H12.8865C12.3711 3.96668 11.9532 3.54877 11.9532 3.03334V2.80001H8.02478L7.55811 2.33334H13.5865V7.46668Z" fill="#1A160C"/>
</svg>
