<svg width="15" height="14" viewBox="0 0 15 14" fill="none" xmlns="http://www.w3.org/2000/svg">
<path d="M6.52798 9.49555C6.63468 9.38863 6.63468 9.2156 6.52798 9.10868C6.42116 9.00208 6.24813 9.00208 6.14121 9.10868C6.03461 9.2156 6.03461 9.38863 6.14121 9.49555C6.24813 9.60215 6.42116 9.60215 6.52798 9.49555Z" fill="#1A160C"/>
<path d="M5.23342 3.00696C5.23342 4.665 6.58234 6.01403 8.24038 6.01403C9.89841 6.01403 11.2473 4.665 11.2473 3.00696C11.2473 1.34892 9.89841 0 8.24038 0C6.58234 0 5.23342 1.34892 5.23342 3.00696ZM10.7007 3.00696C10.7007 4.36357 9.59699 5.46726 8.24038 5.46726C6.88376 5.46726 5.78008 4.36357 5.78008 3.00696C5.78008 1.65045 6.88376 0.546768 8.24038 0.546768C9.59699 0.546768 10.7007 1.65045 10.7007 3.00696Z" fill="#1A160C"/>
<path d="M3.24289 13.9191C3.34885 14.0259 3.52135 14.0271 3.6287 13.9214L4.95402 12.6157C5.17917 12.3906 5.24764 12.0572 5.14863 11.7674L5.43371 11.4925C5.58719 11.3442 5.78928 11.2625 6.00291 11.2625H9.63696C10.2817 11.2625 10.891 11.0149 11.353 10.5654C11.372 10.5469 11.2087 10.7392 13.8322 7.60368C14.2213 7.14333 14.1631 6.45204 13.7023 6.0625C13.2444 5.67659 12.5585 5.73203 12.1683 6.18448L10.5552 7.84241C10.3515 7.59172 10.0409 7.43546 9.70532 7.43546H6.65702C6.22326 7.25398 5.76301 7.16213 5.28812 7.16213C3.97178 7.16213 2.82238 7.7701 2.20554 8.90999C1.94567 8.86075 1.67159 8.93936 1.47442 9.13654L0.173985 10.4408C0.067814 10.5473 0.0676004 10.7196 0.173558 10.8264L3.24289 13.9191ZM5.28802 7.70879C5.70672 7.70879 6.11153 7.79306 6.49146 7.95926C6.52607 7.97443 6.56335 7.98223 6.60105 7.98223H9.70532C10.0017 7.98223 10.2521 8.22394 10.2521 8.52889C10.2521 8.83042 10.0068 9.07565 9.70532 9.07565H7.47498C7.32406 9.07565 7.20165 9.19806 7.20165 9.34899C7.20165 9.50002 7.32406 9.62232 7.47498 9.62232H9.70532C10.3083 9.62232 10.7987 9.13184 10.7987 8.52889C10.7987 8.48082 10.7953 8.43318 10.7891 8.38597C12.3495 6.78198 12.5696 6.55661 12.579 6.5454C12.7738 6.31543 13.1197 6.28627 13.3497 6.48024C13.58 6.67496 13.6092 7.0206 13.4138 7.25185L10.962 10.183C10.6039 10.5267 10.1338 10.7159 9.63696 10.7159H6.00291C5.6468 10.7159 5.3097 10.852 5.05399 11.0991L4.82168 11.3233L2.6801 9.18183C3.18062 8.24285 4.11982 7.70879 5.28802 7.70879ZM1.86129 9.52287C1.95144 9.43273 2.08986 9.41649 2.19977 9.48442C2.24709 9.51326 2.11123 9.38957 4.56746 11.8424C4.67673 11.9517 4.67086 12.1258 4.56896 12.2277L3.43911 13.3407L0.753117 10.6342L1.86129 9.52287Z" fill="#1A160C"/>
<path d="M7.91236 1.36687V1.6872C7.59417 1.79999 7.36559 2.10387 7.36559 2.4603C7.36559 2.91243 7.73345 3.2804 8.18569 3.2804C8.3364 3.2804 8.45902 3.40302 8.45902 3.55373C8.45902 3.70444 8.3364 3.82706 8.18569 3.82706C8.06895 3.82706 7.9428 3.75368 7.83076 3.62027C7.73356 3.5047 7.56116 3.48985 7.44559 3.58695C7.33002 3.68414 7.31507 3.85654 7.41227 3.97211C7.55839 4.14589 7.73025 4.26702 7.91236 4.32811V4.64716C7.91236 4.79819 8.03477 4.92049 8.18569 4.92049C8.33662 4.92049 8.45902 4.79819 8.45902 4.64716V4.32683C8.77721 4.21393 9.00579 3.91005 9.00579 3.55373C9.00579 3.10149 8.63793 2.73363 8.18569 2.73363C8.03498 2.73363 7.91236 2.61101 7.91236 2.4603C7.91236 2.30959 8.03498 2.18686 8.18569 2.18686C8.28257 2.18686 8.38479 2.23631 8.48135 2.32977C8.58987 2.43477 8.7629 2.43189 8.8679 2.32347C8.97289 2.21495 8.97001 2.04192 8.86159 1.93692C8.72285 1.80266 8.58399 1.72672 8.45902 1.68527V1.36687C8.45902 1.21584 8.33662 1.09343 8.18569 1.09343C8.03477 1.09343 7.91236 1.21584 7.91236 1.36687Z" fill="#1A160C"/>
</svg>
