<svg width="16" height="14" viewBox="0 0 16 14" fill="none" xmlns="http://www.w3.org/2000/svg">
<path d="M14.3957 3.16444L15.0182 2.31173C15.069 2.24208 15.09 2.15513 15.0766 2.07C15.0632 1.98488 15.0166 1.90855 14.9469 1.85782C14.8773 1.80708 14.7903 1.7861 14.7052 1.79947C14.6201 1.81285 14.5437 1.85949 14.493 1.92915L13.9224 2.71701C13.3298 2.27144 12.5892 2.06955 11.8525 2.15279C11.1159 2.23603 10.439 2.59808 9.96079 3.16464C9.48262 3.73119 9.23943 4.45928 9.28113 5.19948C9.32283 5.93968 9.64627 6.63584 10.185 7.1451C10.7238 7.65436 11.4371 7.93809 12.1785 7.93806C12.9198 7.93803 13.6331 7.65423 14.1718 7.14493C14.7106 6.63562 15.0339 5.93942 15.0756 5.19922C15.1172 4.45902 14.874 3.73095 14.3957 3.16444V3.16444ZM12.1618 7.30802C11.8009 7.30884 11.4449 7.22355 11.1235 7.05922C10.8021 6.8949 10.5246 6.65629 10.3139 6.36319C10.1032 6.07009 9.96542 5.73097 9.91206 5.37397C9.8587 5.01697 9.89126 4.65239 10.007 4.31049C10.1228 3.9686 10.3185 3.65925 10.5778 3.40813C10.8371 3.15701 11.1525 2.97136 11.498 2.86659C11.8434 2.76182 12.2088 2.74096 12.5639 2.80573C12.919 2.8705 13.2536 3.01904 13.5398 3.23901L12.0937 5.22975L11.0595 4.45485C10.9907 4.40326 10.9042 4.38111 10.8191 4.39327C10.734 4.40543 10.6571 4.45091 10.6056 4.5197C10.554 4.58849 10.5318 4.67496 10.544 4.76008C10.5561 4.84521 10.6016 4.92202 10.6704 4.97361L11.9673 5.94628C12.0234 5.98837 12.0917 6.01113 12.1618 6.01113H12.2105C12.2529 6.00476 12.2937 5.99002 12.3305 5.96776C12.3672 5.94549 12.3992 5.91615 12.4244 5.88144L14.0002 3.71562C14.2432 4.05438 14.3882 4.45352 14.4192 4.86925C14.4503 5.28498 14.3663 5.70124 14.1764 6.07236C13.9865 6.44349 13.698 6.75513 13.3426 6.9731C12.9873 7.19107 12.5787 7.30695 12.1618 7.30802V7.30802Z" fill="#1A160C"/>
<path d="M14.5416 10.0185C14.5148 9.97737 14.479 9.94286 14.4368 9.91758C14.3947 9.89231 14.3474 9.87693 14.2985 9.87263C13.5093 9.80901 12.7343 9.62646 11.9997 9.33117V8.92913C11.9997 8.84314 11.9656 8.76068 11.9047 8.69987C11.8439 8.63907 11.7615 8.60491 11.6755 8.60491C11.5895 8.60491 11.507 8.63907 11.4462 8.69987C11.3854 8.76068 11.3513 8.84314 11.3513 8.92913V9.04261C11.027 8.87726 10.7028 8.70218 10.398 8.53034C8.72829 7.59657 7.28549 6.78925 3.71254 8.24502C3.63965 8.27471 3.58005 8.3299 3.54486 8.40029C3.50966 8.47069 3.50127 8.55148 3.52125 8.62761C3.79684 9.73321 4.64307 9.74294 5.41472 9.60028C4.79221 10.1093 3.85196 10.3201 2.61018 10.226C2.52813 10.2184 2.44627 10.2424 2.38123 10.2929C2.31619 10.3435 2.27285 10.417 2.26002 10.4984C2.25363 10.5652 2.25363 10.6325 2.26002 10.6994H0.651866V0.648448H4.38044V2.91802C4.38044 3.00401 4.4146 3.08647 4.47541 3.14728C4.53621 3.20808 4.61868 3.24224 4.70467 3.24224H7.29846C7.38445 3.24224 7.46692 3.20808 7.52772 3.14728C7.58853 3.08647 7.62269 3.00401 7.62269 2.91802V0.648448H11.3513V1.2969C11.3513 1.38289 11.3854 1.46535 11.4462 1.52616C11.507 1.58696 11.5895 1.62112 11.6755 1.62112C11.7615 1.62112 11.8439 1.58696 11.9047 1.52616C11.9656 1.46535 11.9997 1.38289 11.9997 1.2969V0.324224C11.9997 0.238235 11.9656 0.155767 11.9047 0.0949631C11.8439 0.0341593 11.7615 0 11.6755 0H0.327642C0.241653 0 0.159185 0.0341593 0.0983811 0.0949631C0.0375773 0.155767 0.00341797 0.238235 0.00341797 0.324224V11.0236C0.00341797 11.1096 0.0375773 11.1921 0.0983811 11.2529C0.159185 11.3137 0.241653 11.3478 0.327642 11.3478H2.4351C2.48781 11.4369 2.55336 11.5178 2.62963 11.5878C2.86289 11.7849 3.1363 11.9287 3.43084 12.0094C3.72537 12.09 4.03394 12.1054 4.33505 12.0547C5.47632 12.8749 6.24149 13.7212 7.55784 14C8.31004 14 9.63612 13.1343 10.2975 12.6674L12.0905 13.2024C12.135 13.2167 12.1821 13.2213 12.2286 13.2157C12.2751 13.2101 12.3197 13.1945 12.3596 13.17C13.3216 12.4197 14.0798 11.4397 14.5643 10.3201C14.5853 10.2717 14.5942 10.219 14.5903 10.1665C14.5863 10.1139 14.5696 10.0632 14.5416 10.0185V10.0185ZM5.02889 0.638722H6.97424V2.58407H5.02889V0.638722ZM12.1359 12.5183L10.3462 11.9768C10.3149 11.9735 10.2834 11.9735 10.2521 11.9768C10.1846 11.9773 10.1188 11.9988 10.0641 12.0384C8.99091 12.8101 7.97933 13.3353 7.58054 13.3353C6.83755 13.1005 6.15633 12.7029 5.58656 12.1714C5.28503 11.9314 4.97702 11.685 4.61389 11.4321C4.54507 11.3869 4.46161 11.3695 4.38044 11.3835C4.08668 11.4358 3.78478 11.4192 3.49855 11.3349C3.34365 11.2945 3.2011 11.2166 3.08355 11.1079C3.01641 11.0452 2.96336 10.969 2.92792 10.8842C3.33067 10.9052 3.73449 10.878 4.13079 10.8031C4.59783 10.7422 5.04638 10.5819 5.44626 10.333C5.84613 10.0841 6.18805 9.75246 6.44899 9.36035C6.6933 9.30399 6.94496 9.28649 7.19471 9.30848C7.2807 9.31879 7.36727 9.29453 7.43537 9.24102C7.50347 9.18752 7.54752 9.10915 7.55784 9.02316C7.56816 8.93717 7.5439 8.8506 7.49039 8.7825C7.43688 8.7144 7.35851 8.67035 7.27252 8.66003C6.75428 8.63297 6.2353 8.69661 5.73894 8.84808C4.85381 9.06207 4.44205 9.11394 4.23454 8.72812C7.30495 7.5447 8.53051 8.23205 10.0706 9.09449C10.4629 9.31496 10.8779 9.54516 11.3415 9.74294C11.5458 9.8402 11.7598 9.92774 11.99 10.0153C12.5701 10.2298 13.171 10.383 13.7829 10.4724C13.3583 11.2458 12.8007 11.9383 12.1359 12.5183V12.5183Z" fill="#1A160C"/>
</svg>
