<svg width="14" height="14" viewBox="0 0 14 14" fill="none" xmlns="http://www.w3.org/2000/svg">
<path d="M3.0625 11.375C3.19229 11.375 3.31917 11.3365 3.42709 11.2644C3.53501 11.1923 3.61913 11.0898 3.6688 10.9699C3.71847 10.85 3.73146 10.718 3.70614 10.5907C3.68082 10.4634 3.61832 10.3465 3.52654 10.2547C3.43476 10.1629 3.31783 10.1004 3.19053 10.0751C3.06323 10.0498 2.93128 10.0628 2.81136 10.1125C2.69145 10.1621 2.58896 10.2462 2.51685 10.3542C2.44474 10.4621 2.40625 10.589 2.40625 10.7188C2.40645 10.8927 2.47565 11.0595 2.59868 11.1826C2.72171 11.3056 2.88851 11.3748 3.0625 11.375V11.375ZM3.0625 10.5C3.10576 10.5 3.14806 10.5128 3.18403 10.5369C3.22 10.5609 3.24804 10.5951 3.2646 10.635C3.28116 10.675 3.28549 10.719 3.27705 10.7614C3.26861 10.8039 3.24777 10.8428 3.21718 10.8734C3.18659 10.904 3.14761 10.9249 3.10518 10.9333C3.06274 10.9417 3.01876 10.9374 2.97879 10.9208C2.93882 10.9043 2.90465 10.8763 2.88062 10.8403C2.85658 10.8043 2.84375 10.762 2.84375 10.7188C2.84382 10.6608 2.86688 10.6052 2.90789 10.5641C2.9489 10.5231 3.0045 10.5001 3.0625 10.5Z" fill="#1A160C"/>
<path d="M10.9375 10.0625C10.8077 10.0625 10.6808 10.101 10.5729 10.1731C10.465 10.2452 10.3809 10.3477 10.3312 10.4676C10.2815 10.5875 10.2685 10.7195 10.2939 10.8468C10.3192 10.9741 10.3817 11.091 10.4735 11.1828C10.5652 11.2746 10.6822 11.3371 10.8095 11.3624C10.9368 11.3877 11.0687 11.3747 11.1886 11.325C11.3085 11.2754 11.411 11.1913 11.4832 11.0833C11.5553 10.9754 11.5938 10.8485 11.5938 10.7188C11.5936 10.5448 11.5244 10.378 11.4013 10.2549C11.2783 10.1319 11.1115 10.0627 10.9375 10.0625V10.0625ZM10.9375 10.9375C10.8942 10.9375 10.8519 10.9247 10.816 10.9006C10.78 10.8766 10.752 10.8424 10.7354 10.8025C10.7188 10.7625 10.7145 10.7185 10.723 10.6761C10.7314 10.6336 10.7522 10.5947 10.7828 10.5641C10.8134 10.5335 10.8524 10.5126 10.8948 10.5042C10.9373 10.4958 10.9812 10.5001 11.0212 10.5167C11.0612 10.5332 11.0953 10.5612 11.1194 10.5972C11.1434 10.6332 11.1563 10.6755 11.1563 10.7188C11.1562 10.7767 11.1331 10.8323 11.0921 10.8734C11.0511 10.9144 10.9955 10.9374 10.9375 10.9375Z" fill="#1A160C"/>
<path d="M13.3438 2.625H11.2375C10.9701 2.34592 10.6485 2.12437 10.2925 1.97393C9.93652 1.82348 9.55354 1.74731 9.16705 1.75007C8.78057 1.75284 8.39872 1.83448 8.0449 1.99001C7.69108 2.14553 7.37273 2.37166 7.10938 2.65453C7.07622 2.63507 7.03844 2.62487 7 2.625H5.03125C4.97323 2.625 4.91759 2.64805 4.87657 2.68907C4.83555 2.73009 4.8125 2.78573 4.8125 2.84375V4.375H2.40625C2.36768 4.37503 2.3298 4.38524 2.29644 4.40458C2.26307 4.42393 2.2354 4.45174 2.21621 4.4852L1.84133 5.14145L0.466211 7.5477C0.447378 7.58077 0.437483 7.61819 0.4375 7.65625V10.7188C0.4375 10.7768 0.460547 10.8324 0.50157 10.8734C0.542594 10.9145 0.598234 10.9375 0.65625 10.9375H1.76859C1.79876 11.1145 1.86486 11.2835 1.96281 11.434C2.06077 11.5844 2.18851 11.7133 2.33816 11.8125H0.464844C0.406828 11.8125 0.351188 11.8355 0.310164 11.8766C0.269141 11.9176 0.246094 11.9732 0.246094 12.0313C0.246094 12.0893 0.269141 12.1449 0.310164 12.1859C0.351188 12.227 0.406828 12.25 0.464844 12.25H12.6875C12.7455 12.25 12.8012 12.227 12.8422 12.1859C12.8832 12.1449 12.9062 12.0893 12.9062 12.0313C12.9062 11.9732 12.8832 11.9176 12.8422 11.8766C12.8012 11.8355 12.7455 11.8125 12.6875 11.8125H11.6618C11.8115 11.7133 11.9392 11.5844 12.0372 11.434C12.1351 11.2835 12.2012 11.1145 12.2314 10.9375H13.3438C13.4018 10.9375 13.4574 10.9145 13.4984 10.8734C13.5395 10.8324 13.5625 10.7768 13.5625 10.7188V2.84375C13.5625 2.78573 13.5395 2.73009 13.4984 2.68907C13.4574 2.64805 13.4018 2.625 13.3438 2.625ZM9.1875 2.1875C9.66341 2.1875 10.1286 2.32862 10.5243 2.59303C10.92 2.85743 11.2285 3.23323 11.4106 3.67292C11.5927 4.1126 11.6404 4.59642 11.5475 5.06319C11.4547 5.52995 11.2255 5.95871 10.889 6.29523C10.5525 6.63175 10.1237 6.86092 9.65694 6.95376C9.19017 7.04661 8.70635 6.99896 8.26667 6.81684C7.82698 6.63471 7.45118 6.3263 7.18678 5.93059C6.92237 5.53489 6.78125 5.06966 6.78125 4.59375C6.78197 3.9558 7.03572 3.34418 7.48682 2.89307C7.93793 2.44197 8.54954 2.18822 9.1875 2.1875V2.1875ZM2.15824 5.46875H3.71875V7.4375H1.03332L2.15824 5.46875ZM0.875 8.53125H1.3125C1.37052 8.53125 1.42616 8.5543 1.46718 8.59532C1.5082 8.63634 1.53125 8.69198 1.53125 8.75C1.53125 8.80802 1.5082 8.86366 1.46718 8.90468C1.42616 8.9457 1.37052 8.96875 1.3125 8.96875H0.875V8.53125ZM1.76859 10.5H0.875V9.40625H1.3125C1.48655 9.40625 1.65347 9.33711 1.77654 9.21404C1.89961 9.09097 1.96875 8.92405 1.96875 8.75C1.96875 8.57595 1.89961 8.40903 1.77654 8.28596C1.65347 8.16289 1.48655 8.09375 1.3125 8.09375H0.875V7.875H3.9375C3.99552 7.875 4.05116 7.85195 4.09218 7.81093C4.1332 7.76991 4.15625 7.71427 4.15625 7.65625V5.25C4.15625 5.19198 4.1332 5.13634 4.09218 5.09532C4.05116 5.0543 3.99552 5.03125 3.9375 5.03125H2.40816L2.53312 4.8125H4.8125V10.5H4.35641C4.30476 10.1942 4.14647 9.91656 3.90962 9.71634C3.67276 9.51613 3.37264 9.40628 3.0625 9.40628C2.75236 9.40628 2.45224 9.51613 2.21538 9.71634C1.97853 9.91656 1.82024 10.1942 1.76859 10.5V10.5ZM3.0625 11.5938C2.88944 11.5938 2.72027 11.5424 2.57638 11.4463C2.43248 11.3501 2.32033 11.2135 2.25411 11.0536C2.18788 10.8937 2.17055 10.7178 2.20431 10.548C2.23807 10.3783 2.32141 10.2224 2.44378 10.1C2.56615 9.97766 2.72206 9.89433 2.8918 9.86056C3.06153 9.8268 3.23746 9.84413 3.39735 9.91036C3.55723 9.97658 3.69389 10.0887 3.79004 10.2326C3.88618 10.3765 3.9375 10.5457 3.9375 10.7188C3.93724 10.9507 3.84497 11.1731 3.68093 11.3372C3.51689 11.5012 3.29448 11.5935 3.0625 11.5938ZM3.78684 11.8125C3.93649 11.7133 4.06423 11.5844 4.16219 11.434C4.26014 11.2835 4.32624 11.1145 4.35641 10.9375H9.64359C9.67376 11.1145 9.73986 11.2835 9.83781 11.434C9.93577 11.5844 10.0635 11.7133 10.2132 11.8125H3.78684ZM10.9375 11.5938C10.7644 11.5938 10.5953 11.5424 10.4514 11.4463C10.3075 11.3501 10.1953 11.2135 10.1291 11.0536C10.0629 10.8937 10.0456 10.7178 10.0793 10.548C10.1131 10.3783 10.1964 10.2224 10.3188 10.1C10.4412 9.97766 10.5971 9.89433 10.7668 9.86056C10.9365 9.8268 11.1125 9.84413 11.2723 9.91036C11.4322 9.97658 11.5689 10.0887 11.665 10.2326C11.7612 10.3765 11.8125 10.5457 11.8125 10.7188C11.8122 10.9507 11.72 11.1731 11.5559 11.3372C11.3919 11.5012 11.1695 11.5935 10.9375 11.5938ZM13.125 10.5H12.2314C12.1798 10.1942 12.0215 9.91656 11.7846 9.71634C11.5478 9.51613 11.2476 9.40628 10.9375 9.40628C10.6274 9.40628 10.3272 9.51613 10.0904 9.71634C9.85353 9.91656 9.69524 10.1942 9.64359 10.5H5.25V9.1875H13.125V10.5ZM13.125 8.75H5.25V3.0625H6.79219C6.5172 3.49224 6.36288 3.98804 6.34542 4.49794C6.32795 5.00783 6.44799 5.51303 6.69293 5.96057C6.93788 6.40812 7.29871 6.78153 7.73761 7.04165C8.17651 7.30177 8.67731 7.43902 9.1875 7.43902C9.69769 7.43902 10.1985 7.30177 10.6374 7.04165C11.0763 6.78153 11.4371 6.40812 11.6821 5.96057C11.927 5.51303 12.047 5.00783 12.0296 4.49794C12.0121 3.98804 11.8578 3.49224 11.5828 3.0625H13.125V8.75Z" fill="#1A160C"/>
<path d="M13.5625 11.8125H13.3438C13.2857 11.8125 13.2301 11.8355 13.1891 11.8766C13.148 11.9176 13.125 11.9732 13.125 12.0312C13.125 12.0893 13.148 12.1449 13.1891 12.1859C13.2301 12.227 13.2857 12.25 13.3438 12.25H13.5625C13.6205 12.25 13.6762 12.227 13.7172 12.1859C13.7582 12.1449 13.7812 12.0893 13.7812 12.0312C13.7812 11.9732 13.7582 11.9176 13.7172 11.8766C13.6762 11.8355 13.6205 11.8125 13.5625 11.8125Z" fill="#1A160C"/>
<path d="M7.9625 5.42501L8.8375 6.08126C8.88163 6.11436 8.93665 6.12956 8.99152 6.12382C9.04639 6.11808 9.09706 6.09182 9.13339 6.0503L10.6646 4.3003C10.6836 4.27868 10.698 4.25355 10.7072 4.22634C10.7164 4.19912 10.7202 4.17036 10.7183 4.1417C10.7164 4.11303 10.7088 4.08503 10.6961 4.05928C10.6834 4.03353 10.6657 4.01054 10.644 3.99162C10.6224 3.9727 10.5973 3.95823 10.5701 3.94903C10.5429 3.93983 10.5141 3.93607 10.4854 3.93799C10.4568 3.9399 10.4288 3.94744 10.403 3.96017C10.3773 3.97291 10.3543 3.99059 10.3354 4.01221L8.93772 5.60952L8.225 5.07501C8.17859 5.0402 8.12025 5.02525 8.06281 5.03346C8.00538 5.04166 7.95356 5.07234 7.91875 5.11876C7.88394 5.16517 7.86899 5.22351 7.8772 5.28094C7.8854 5.33838 7.91609 5.3902 7.9625 5.42501Z" fill="#1A160C"/>
</svg>
