<svg width="15" height="14" viewBox="0 0 15 14" fill="none" xmlns="http://www.w3.org/2000/svg">
<path d="M13.955 4.81262L13.1726 5.06976C13.3767 5.69053 13.4801 6.33997 13.4801 7.00003C13.4801 10.4057 10.7094 13.1765 7.30365 13.1765C5.7213 13.1765 4.23699 12.5858 3.10305 11.5294H4.28404V10.7059H1.6762V13.1765H2.49973V12.0895C2.99615 12.5576 3.55983 12.9547 4.16691 13.2595C5.14568 13.7509 6.20103 14 7.30365 14C9.17342 14 10.9313 13.2719 12.2534 11.9498C13.5756 10.6276 14.3037 8.8698 14.3037 7.00003C14.3037 6.25245 14.1864 5.51652 13.955 4.81262Z" fill="#1A160C"/>
<path d="M7.30365 0.823529C8.87577 0.823529 10.3668 1.41584 11.5027 2.47059H10.3233V3.29412H12.9311V0.823529H12.1076V1.909C10.8148 0.687235 9.10636 0 7.30365 0C5.43388 0 3.67603 0.72811 2.35391 2.05026C1.03179 3.37241 0.30365 5.13023 0.30365 7C0.30365 7.80025 0.437693 8.58529 0.702073 9.33328L1.47852 9.05888C1.24541 8.39926 1.12718 7.70653 1.12718 7C1.12718 3.59429 3.89794 0.823529 7.30365 0.823529Z" fill="#1A160C"/>
<path d="M8.53894 5.62748H9.36247C9.36247 4.66115 8.64534 3.85948 7.71542 3.72584V2.88239H6.89189V3.72584C5.96196 3.8595 5.24483 4.66118 5.24483 5.62748C5.24483 6.3825 5.75638 7.03767 6.4888 7.22074L6.89189 7.32151V9.43587C6.41882 9.31366 6.06836 8.88328 6.06836 8.37258H5.24483C5.24483 9.33891 5.96196 10.1406 6.89189 10.2742V11.1177H7.71542V10.2742C8.64534 10.1406 9.36247 9.33888 9.36247 8.37258C9.36247 7.61757 8.85093 6.9624 8.11851 6.77933L7.71542 6.67855V4.5642C8.18848 4.68641 8.53894 5.11679 8.53894 5.62748V5.62748ZM7.91875 7.57826C8.28393 7.66953 8.53894 7.99617 8.53894 8.37258C8.53894 8.88328 8.18848 9.31366 7.71542 9.43587V7.52742L7.91875 7.57826ZM6.68856 6.42181C6.32338 6.33053 6.06836 6.00389 6.06836 5.62748C6.06836 5.11679 6.41882 4.68641 6.89189 4.5642V6.47264L6.68856 6.42181Z" fill="#1A160C"/>
</svg>
