<svg width="26" height="18" viewBox="0 0 26 18" fill="none" xmlns="http://www.w3.org/2000/svg">
<path d="M26 16.708C26 17.049 25.8644 17.376 25.623 17.6171C25.3816 17.8583 25.0542 17.9937 24.7129 17.9937H14.4157C14.2367 18.0117 14.056 17.9919 13.8851 17.9358C13.7142 17.8797 13.557 17.7884 13.4236 17.6679C13.2903 17.5473 13.1836 17.4002 13.1107 17.236C13.0377 17.0718 13 16.8941 13 16.7144C13 16.5348 13.0377 16.3571 13.1107 16.1929C13.1836 16.0286 13.2903 15.8815 13.4236 15.761C13.557 15.6404 13.7142 15.5492 13.8851 15.493C14.056 15.4369 14.2367 15.4172 14.4157 15.4351H24.7129C25.052 15.4351 25.3775 15.5688 25.6185 15.8072C25.8595 16.0455 25.9966 16.3692 26 16.708Z" fill="white"/>
<path d="M26 8.99364C26 9.33463 25.8637 9.66166 25.6211 9.90278C25.3785 10.1439 25.0495 10.2794 24.7065 10.2794L1.42273 10.2794C1.24287 10.2973 1.06122 10.2776 0.889501 10.2215C0.717779 10.1653 0.559799 10.0741 0.425747 9.95353C0.291695 9.83299 0.184549 9.68587 0.111218 9.52164C0.0378872 9.35742 0 9.17974 0 9.00007C0 8.8204 0.0378872 8.64272 0.111218 8.4785C0.184549 8.31427 0.291695 8.16715 0.425747 8.04661C0.559799 7.92608 0.717779 7.83481 0.889501 7.77868C1.06122 7.72256 1.24287 7.70284 1.42273 7.72078L24.7065 7.72078C25.0473 7.72077 25.3744 7.85446 25.6166 8.0928C25.8588 8.33115 25.9966 8.65488 26 8.99364Z" fill="white"/>
<path d="M24.5702 2.565C24.751 2.58294 24.9335 2.56322 25.1061 2.5071C25.2787 2.45098 25.4375 2.35971 25.5722 2.23917C25.7069 2.11864 25.8146 1.97151 25.8883 1.80729C25.962 1.64306 26 1.46539 26 1.28571C26 1.10604 25.962 0.928365 25.8883 0.764141C25.8146 0.599918 25.7069 0.452793 25.5722 0.332257C25.4375 0.211721 25.2787 0.12045 25.1061 0.0643289C24.9335 0.00820799 24.751 -0.011516 24.5702 0.00642871L8.97021 0.00642871C8.64952 0.0382649 8.35222 0.186785 8.136 0.423171C7.91978 0.659557 7.80005 0.966953 7.80005 1.28571C7.80005 1.60448 7.91978 1.91187 8.136 2.14826C8.35222 2.38464 8.64952 2.53316 8.97021 2.565L24.5702 2.565Z" fill="white"/>
</svg>
