<svg width="16" height="14" viewBox="0 0 16 14" fill="none" xmlns="http://www.w3.org/2000/svg">
<path d="M14.9306 9.15173C14.7096 8.94728 14.425 8.83681 14.1352 8.81968C14.3656 8.20698 14.4827 7.5619 14.4827 6.89487C14.4827 5.71638 14.1155 4.59353 13.4208 3.64776C13.3226 3.51402 13.1346 3.48524 13.0009 3.58348C12.8672 3.68171 12.8384 3.86969 12.9366 4.0034C13.555 4.84534 13.8819 5.8452 13.8819 6.89487C13.8819 7.62641 13.7243 8.32812 13.4141 8.98243C13.331 9.02902 13.2525 9.08525 13.1808 9.15158L11.149 11.0279C11.1189 11.0558 10.9813 11.1465 10.4739 11.1465C10.4707 11.1465 10.4674 11.1465 10.4642 11.1465C9.66662 11.1443 8.45274 11.1422 7.53578 11.1405L7.10328 11.1398C6.87053 11.1398 6.68118 10.9752 6.68118 10.7731C6.68118 10.5739 6.87449 10.4056 7.10328 10.4056H9.02854C9.64282 10.4056 10.1426 9.93371 10.1426 9.35371C10.1426 9.29965 10.1382 9.24654 10.1298 9.19466C10.6085 8.97951 10.9301 8.50153 10.9301 7.95457C10.9301 7.20464 10.3239 6.5945 9.57884 6.5945H8.41998C8.00151 6.5945 7.66112 6.25351 7.66112 5.83433C7.66112 5.41565 8.00154 5.07502 8.41998 5.07502H8.99235H8.99309H10.6297C10.7956 5.07502 10.9301 4.94054 10.9301 4.77463C10.9301 4.60875 10.7956 4.47426 10.6297 4.47426H9.29423L9.29602 3.75117C9.29644 3.58523 9.16228 3.45045 8.99637 3.45004C8.99613 3.45004 8.99586 3.45004 8.99563 3.45004C8.83007 3.45004 8.69568 3.58404 8.69523 3.74965L8.69344 4.47426H8.42001C7.67029 4.47426 7.06036 5.08437 7.06036 5.83433C7.06036 6.58476 7.67032 7.19526 8.42001 7.19526H9.57887C9.98566 7.19526 10.3293 7.54298 10.3293 7.95457C10.3293 8.26241 10.1364 8.5385 9.86038 8.65502C9.65619 8.43853 9.35902 8.30182 9.02857 8.30182H4.31446C4.17786 7.84621 4.10861 7.37401 4.10861 6.8949C4.10861 6.51375 4.15219 6.13803 4.23803 5.77303C4.27401 5.79665 4.31026 5.81941 4.34681 5.84127C4.51215 5.94031 4.64014 5.98984 4.76831 5.98984C4.89639 5.98984 5.02459 5.94037 5.19041 5.84142C5.78414 5.48658 6.30495 4.89705 6.73843 4.08916C7.05422 3.50025 7.25016 2.89116 7.31652 2.30285C7.85324 2.10585 8.41718 2.00576 8.99569 2.00576C9.68613 2.00576 10.353 2.14677 10.9777 2.42483C11.0174 2.44249 11.0589 2.45086 11.0997 2.45086C11.2147 2.45086 11.3245 2.38441 11.3743 2.27253C11.4417 2.12098 11.3736 1.94342 11.222 1.87596C10.5199 1.56347 9.77081 1.40504 8.99566 1.40504C8.42534 1.40504 7.86747 1.49177 7.33159 1.66272C7.28921 1.33629 7.12056 1.22784 6.86651 1.09112L4.91138 0.0360338C4.82234 -0.0120113 4.71508 -0.0120113 4.62605 0.0360338L2.66982 1.09163C2.37756 1.24893 2.19827 1.36855 2.19449 1.82606C2.18823 2.55848 2.39701 3.34105 2.7982 4.08919C3.07321 4.60175 3.38376 5.02614 3.72595 5.35891C3.58124 5.85476 3.50779 6.37048 3.50779 6.89487C3.50779 7.39861 3.57594 7.89568 3.71067 8.37706C3.45316 8.44366 3.20933 8.55306 2.99118 8.69937C2.89482 8.23515 2.46149 7.88383 1.94286 7.88383H1.12162C0.532481 7.88383 0.0531616 8.33711 0.0531616 8.89432V12.9009C0.0531616 13.4576 0.532481 13.9105 1.12162 13.9105H1.94286C2.532 13.9105 3.01132 13.4576 3.01132 12.9009V12.8945L4.91501 13.7483C4.92138 13.7511 4.92788 13.7538 4.93443 13.7561C5.52435 13.9727 6.27734 13.9875 8.36904 13.9983C9.95269 14 10.1595 14 10.46 14C11.2163 14 11.603 13.9315 12.034 13.5074C12.9306 12.6786 13.8272 11.8505 14.7244 11.0218L14.9303 10.8317C15.1711 10.6096 15.3037 10.3112 15.3037 9.99156C15.3037 9.67195 15.1711 9.37355 14.9306 9.15173V9.15173ZM2.41056 12.9009C2.41056 13.1263 2.20077 13.3098 1.94289 13.3098H1.12162C0.863733 13.3098 0.653949 13.1263 0.653949 12.9009V8.89432C0.653949 8.67221 0.868111 8.48458 1.12162 8.48458H1.94286C2.19637 8.48458 2.41053 8.67224 2.41053 8.89432V12.9009H2.41056ZM3.32764 3.80518C2.97396 3.14568 2.78986 2.46307 2.79528 1.83107C2.7959 1.7544 2.80159 1.7205 2.80469 1.70757C2.82873 1.68836 2.89527 1.65253 2.95457 1.6206L4.76873 0.641646L6.57437 1.61604L6.58178 1.62003C6.64115 1.65199 6.70778 1.68786 6.73194 1.70716C6.73503 1.72017 6.74069 1.75431 6.74132 1.83154C6.74748 2.46176 6.56338 3.14422 6.20895 3.80512C5.82766 4.51578 5.38125 5.02736 4.88233 5.32558C4.81582 5.36529 4.78362 5.38063 4.76846 5.38652C4.75339 5.3806 4.7214 5.36529 4.65551 5.32585C4.65542 5.32579 4.65536 5.32573 4.65527 5.3257C4.16237 5.03112 3.70328 4.5053 3.32764 3.80518V3.80518ZM14.5229 10.3903L14.3169 10.5805C13.4184 11.4104 12.5205 12.2396 11.6227 13.0695C11.6202 13.0718 11.6178 13.0741 11.6154 13.0764C11.3623 13.3265 11.18 13.3992 10.4601 13.3992C10.1596 13.3992 9.95289 13.3992 8.37098 13.3975C6.4565 13.3876 5.65281 13.3763 5.15095 13.1956L3.01138 12.236V9.47223C3.32869 9.11391 3.80342 8.90254 4.30115 8.90254H9.0286C9.22543 8.90254 9.39649 9.00057 9.48257 9.14387C9.48421 9.14688 9.48576 9.14992 9.48748 9.15284C9.52195 9.21342 9.54184 9.28148 9.54184 9.35368C9.54184 9.60243 9.3116 9.80477 9.0286 9.80477H7.10334C6.53931 9.80477 6.08045 10.2391 6.08045 10.7731C6.08045 11.3065 6.53934 11.7405 7.1028 11.7405L7.53476 11.7413C8.45152 11.7429 9.66519 11.7451 10.4628 11.7472C10.4665 11.7472 10.47 11.7472 10.4737 11.7472C11.0074 11.7472 11.3519 11.6587 11.5569 11.4691L13.5887 9.59275C13.8418 9.3586 14.2696 9.35857 14.523 9.59302C14.6391 9.70007 14.703 9.84161 14.703 9.99156C14.7029 10.1416 14.639 10.2831 14.5229 10.3903V10.3903Z" fill="#1A160C"/>
<path d="M12.2562 3.15911C12.3331 3.15911 12.4099 3.1298 12.4686 3.07115C12.5859 2.95382 12.5859 2.76364 12.4686 2.64631L12.4677 2.64548C12.3504 2.52824 12.1606 2.5286 12.0434 2.64593C11.926 2.76322 11.9265 2.95382 12.0438 3.07118C12.1024 3.1298 12.1793 3.15911 12.2562 3.15911V3.15911Z" fill="#1A160C"/>
<path d="M4.63699 3.70206C4.71524 3.70206 4.79334 3.67168 4.85213 3.61136L5.91225 2.52381C6.02803 2.405 6.02562 2.21481 5.9068 2.09903C5.78802 1.98322 5.59783 1.98564 5.48202 2.10445L4.62743 2.98121L4.33085 2.7036C4.20974 2.59024 4.01967 2.59646 3.90624 2.71766C3.79288 2.83877 3.79916 3.02887 3.92027 3.14223L4.43176 3.62102C4.48964 3.67517 4.56339 3.70206 4.63699 3.70206V3.70206Z" fill="#1A160C"/>
</svg>
