<svg width="20" height="20" viewBox="0 0 20 20" fill="none" xmlns="http://www.w3.org/2000/svg">
<path opacity="0.4" d="M18.5892 9.44075V14.9316C18.5892 17.4616 16.5359 19.5149 14.0059 19.5149H5.99422C3.46422 19.5149 1.41089 17.4616 1.41089 14.9316V9.50492C2.10756 10.2566 3.09756 10.6874 4.17006 10.6874C5.32506 10.6874 6.43422 10.1099 7.13089 9.18408C7.75422 10.1099 8.81756 10.6874 10.0001 10.6874C11.1734 10.6874 12.2184 10.1374 12.8509 9.22075C13.5567 10.1282 14.6476 10.6874 15.7842 10.6874C16.8934 10.6874 17.9017 10.2382 18.5892 9.44075Z" fill="white"/>
<path d="M12.7407 0.145996H7.24074L6.5624 6.89266C6.5074 7.516 6.59907 8.10266 6.82824 8.63433C7.3599 9.881 8.60657 10.6877 9.9999 10.6877C11.4116 10.6877 12.6307 9.89933 13.1807 8.6435C13.3457 8.24933 13.4466 7.791 13.4557 7.3235V7.14933L12.7407 0.145996Z" fill="white"/>
<path opacity="0.6" d="M19.4968 6.581L19.2309 4.04183C18.8459 1.2735 17.5901 0.145996 14.9043 0.145996H11.3843L12.0626 7.021C12.0718 7.11266 12.0809 7.2135 12.0809 7.38766C12.1359 7.86433 12.2826 8.30433 12.5026 8.6985C13.1626 9.9085 14.4459 10.6877 15.7843 10.6877C17.0034 10.6877 18.1034 10.1468 18.7909 9.1935C19.3409 8.46016 19.5884 7.53433 19.4968 6.581Z" fill="white"/>
<path opacity="0.6" d="M5.04076 0.145996C2.34576 0.145996 1.09909 1.2735 0.704923 4.06933L0.457423 6.59016C0.365757 7.571 0.63159 8.52433 1.20909 9.26683C1.90576 10.1743 2.97826 10.6877 4.16992 10.6877C5.50826 10.6877 6.79159 9.9085 7.44242 8.71683C7.68076 8.30433 7.83659 7.82766 7.88242 7.33266L8.59742 0.155163H5.04076V0.145996Z" fill="white"/>
<path d="M9.40427 14.2716C8.24011 14.3907 7.36011 15.3807 7.36011 16.5541V19.5149H12.6309V16.8749C12.6401 14.9591 11.5126 14.0516 9.40427 14.2716Z" fill="white"/>
</svg>
