<svg width="12" height="14" viewBox="0 0 12 14" fill="none" xmlns="http://www.w3.org/2000/svg">
<path d="M8.4967 1.38201L6.35798 0.0866794C6.14719 -0.0288931 5.8919 -0.0288931 5.68111 0.0866794L5.67191 0.0918543L3.54238 1.38201C3.47189 1.42468 3.42888 1.50103 3.42888 1.58337V3.89425C3.42773 4.14885 3.56481 4.38414 3.78687 4.50868L5.68111 5.67073C5.7838 5.72731 5.89914 5.75686 6.01644 5.75698C6.1396 5.7564 6.26046 5.72466 6.3681 5.66486L8.2421 4.51466C8.46899 4.39081 8.61021 4.15288 8.61021 3.89425V1.58337C8.61021 1.50103 8.56708 1.42468 8.4967 1.38201ZM5.91076 0.49814C5.97653 0.462376 6.05577 0.461111 6.1227 0.494805L7.92011 1.58337L6.13213 2.66676C6.06554 2.70448 5.98447 2.70644 5.91616 2.67194L4.11886 1.58337L5.91076 0.49814ZM4.02261 4.10147C3.94683 4.06019 3.89968 3.98061 3.89991 3.89425V2.00139L5.68111 3.08006C5.71422 3.09639 5.74872 3.10996 5.78403 3.12089V5.18164L4.02261 4.10147ZM8.00612 4.10768L6.25506 5.18187V3.11939C6.29358 3.10766 6.33107 3.09283 6.36718 3.07489L8.13918 2.00139V3.89425C8.13803 3.98452 8.08674 4.06709 8.00612 4.10768Z" fill="#1A160C"/>
<path d="M8.4967 9.62503L6.35798 8.3297C6.14719 8.21413 5.8919 8.21413 5.68111 8.3297L5.67191 8.33487L3.54238 9.62503C3.47189 9.6677 3.42888 9.74405 3.42888 9.82639V12.1373C3.42773 12.3919 3.56481 12.6272 3.78687 12.7517L5.68111 13.9137C5.7838 13.9703 5.89914 13.9999 6.01644 14C6.1396 13.9994 6.26046 13.9677 6.3681 13.9079L8.2421 12.7577C8.46899 12.6338 8.61021 12.3959 8.61021 12.1373V9.82639C8.61021 9.74405 8.56708 9.6677 8.4967 9.62503ZM5.91076 8.74116C5.97653 8.7054 6.05577 8.70413 6.1227 8.73783L7.92011 9.82639L6.13213 10.9098C6.06543 10.9474 5.98447 10.9492 5.91616 10.915L4.11886 9.82639L5.91076 8.74116ZM4.02261 12.3445C3.94683 12.3032 3.89968 12.2236 3.89991 12.1373V10.2444L5.68111 11.3231C5.71422 11.3394 5.74872 11.353 5.78403 11.3639V13.4247L4.02261 12.3445ZM8.00612 12.3507L6.25506 13.4249V11.3624C6.29358 11.3507 6.33107 11.3358 6.36718 11.3179L8.13918 10.2444V12.1373C8.13803 12.2275 8.08674 12.3101 8.00612 12.3507Z" fill="#1A160C"/>
<path d="M6.72609 7.00021C6.72609 6.61003 6.40973 6.29367 6.01954 6.29367C5.62936 6.29367 5.313 6.61003 5.313 7.00021C5.313 7.3904 5.62936 7.70676 6.01954 7.70676C6.40973 7.70676 6.72609 7.3904 6.72609 7.00021ZM5.78403 7.00021C5.78403 6.87015 5.88948 6.7647 6.01954 6.7647C6.1496 6.7647 6.25506 6.87015 6.25506 7.00021C6.25506 7.13028 6.1496 7.23573 6.01954 7.23573C5.88948 7.23573 5.78403 7.13028 5.78403 7.00021Z" fill="#1A160C"/>
<path d="M2.52235 3.50279L2.18932 3.16988C0.524158 4.83872 0.128681 7.39247 1.21104 9.4868L0.63398 9.91241L2.35584 10.6639L2.14597 8.79716L1.59421 9.20414C0.647665 7.30151 1.02129 5.00708 2.52235 3.50279Z" fill="#1A160C"/>
<path d="M10.828 4.51362L11.405 4.08813L9.68313 3.33651L9.893 5.20326L10.4449 4.79629C11.3913 6.69892 11.0178 8.99346 9.51673 10.4976L9.84965 10.8307C11.5148 9.16182 11.9103 6.60807 10.828 4.51362Z" fill="#1A160C"/>
</svg>
