<svg width="24" height="24" viewBox="0 0 24 24" fill="none" xmlns="http://www.w3.org/2000/svg">
<path d="M6.41449 15.8553C7.04689 15.8553 7.67899 15.7623 8.28949 15.5766L9.08449 16.3716C8.39449 17.301 8.46979 18.6222 9.31399 19.4664C9.77809 19.9305 10.3862 20.1621 10.9943 20.1621C11.4923 20.1621 11.9903 20.0067 12.4088 19.6959L12.923 20.2101C12.233 21.1395 12.3083 22.4607 13.1525 23.3049C13.6163 23.7681 14.225 24 14.8334 24C15.3545 24 15.8753 23.8299 16.3046 23.4897C16.7195 23.7444 17.1911 23.8716 17.6624 23.8716C18.3293 23.8716 18.9962 23.6175 19.5041 23.1096C20.0123 22.6014 20.2646 21.936 20.2646 21.2703C20.2646 20.6049 20.0105 19.9377 19.5023 19.4295L12.2318 12.1587C13.3433 9.78211 12.917 6.86431 10.9532 4.90081C9.70069 3.64831 8.05819 3.02161 6.41599 3.02161C4.77409 3.02161 3.13219 3.64771 1.87909 4.90081C-0.627113 7.40701 -0.625612 11.4705 1.87909 13.9749C3.13249 15.2283 4.77289 15.8553 6.41449 15.8553ZM2.83249 5.85421C3.78949 4.89721 5.06209 4.37011 6.41599 4.37011C7.76989 4.37011 9.04279 4.89721 9.99979 5.85421C11.5043 7.35871 11.9105 9.66301 11.0102 11.5878L10.61 12.444L18.5492 20.3832C18.7859 20.6199 18.9164 20.9352 18.9164 21.2706C18.9164 21.606 18.7865 21.9204 18.5507 22.1562C18.314 22.3929 17.9984 22.5234 17.6624 22.5234C17.4302 22.5234 17.2043 22.4601 17.0096 22.3407L16.2062 21.8475L15.4673 22.4328C15.239 22.6137 14.9966 22.6518 14.8331 22.6518C14.558 22.6518 14.2997 22.545 14.1056 22.3512C13.748 21.9936 13.7048 21.4185 14.0054 21.0135L14.699 20.0793L12.539 17.9193L11.6048 18.6129C11.4281 18.744 11.2169 18.8133 10.994 18.8133C10.7192 18.8133 10.4612 18.7065 10.2671 18.5124C9.90949 18.1548 9.86629 17.5797 10.1669 17.175L10.8605 16.2408L8.67049 14.0508L7.89649 14.2866C7.41619 14.4327 6.91759 14.5071 6.41419 14.5071C5.06209 14.5071 3.78979 13.9797 2.83189 13.0218C0.856387 11.0454 0.856388 7.83031 2.83249 5.85421Z" fill="black"/>
<path d="M6.15739 11.6007C6.77719 11.6007 7.39699 11.3643 7.86979 10.8912C8.81569 9.9456 8.81569 8.412 7.86979 7.4664C7.39699 6.9936 6.77719 6.7569 6.15739 6.7569C5.53759 6.7569 4.91779 6.9933 4.44499 7.4664C3.49909 8.412 3.49909 9.9456 4.44499 10.8912C4.91749 11.3643 5.53729 11.6007 6.15739 11.6007ZM5.39809 8.4198C5.60089 8.217 5.87059 8.1054 6.15709 8.1054C6.44389 8.1054 6.71329 8.217 6.91609 8.4198C7.11889 8.6226 7.23049 8.892 7.23049 9.1788C7.23049 9.4656 7.11889 9.735 6.91609 9.9378C6.71329 10.1406 6.44359 10.2522 6.15709 10.2522C5.87029 10.2522 5.60059 10.1406 5.39809 9.9378C5.19529 9.735 5.08369 9.4656 5.08369 9.1788C5.08369 8.892 5.19529 8.6226 5.39809 8.4198Z" fill="black"/>
<path d="M19.0376 0C16.3214 0 14.1116 2.2098 14.1116 4.926C14.1116 7.6422 16.3214 9.852 19.0376 9.852C21.7538 9.852 23.9636 7.6422 23.9636 4.926C23.9636 2.2098 21.7541 0 19.0376 0ZM19.0376 8.5038C17.0648 8.5038 15.4598 6.8988 15.4598 4.926C15.4598 2.9532 17.0648 1.3482 19.0376 1.3482C21.0104 1.3482 22.6154 2.9532 22.6154 4.926C22.6154 6.8988 21.0104 8.5038 19.0376 8.5038Z" fill="black"/>
<path d="M20.1191 3.45061L18.5408 5.03941L17.9558 4.45231C17.693 4.18861 17.2661 4.18771 17.0024 4.45051C16.7387 4.71331 16.7378 5.14021 17.0006 5.40391L17.9471 6.35401C18.1055 6.51331 18.3167 6.60091 18.5411 6.60091H18.5414C18.7661 6.60061 18.9773 6.51271 19.1357 6.35341L21.0752 4.40101C21.3377 4.13671 21.3362 3.70981 21.0722 3.44761C20.8082 3.18511 20.3813 3.18631 20.1191 3.45061Z" fill="black"/>
</svg>
