<svg width="14" height="14" viewBox="0 0 14 14" fill="none" xmlns="http://www.w3.org/2000/svg">
<path d="M9.38261 6.92043L10.9693 8.50712L9.38261 10.0938L8.98663 9.69783L9.89738 8.78708L3.14672 8.78708L3.14672 8.22716L9.89719 8.22696L8.98643 7.31621L9.38241 6.92023L9.38261 6.92043ZM5.01357 6.68383L4.10281 5.77308L10.8533 5.77288L10.8533 5.21296L4.10281 5.21277L5.01357 4.30201L4.61759 3.90603L3.0309 5.49272L4.61759 7.07941L5.01337 6.68363L5.01357 6.68383ZM11.9497 11.9498C10.6276 13.2719 8.86982 14.0002 7 14.0002C5.13018 14.0002 3.37243 13.2719 2.05025 11.9498C0.728075 10.6276 -0.000131628 8.86984 -0.000131718 7.00002C-0.00013185 5.1302 0.728076 3.37245 2.05025 2.05027C3.37243 0.728096 5.13018 -0.000110829 7 -0.000110708C8.86982 -0.000110672 10.6276 0.728096 11.9497 2.05027C13.2719 3.37245 14.0001 5.1302 14.0001 7.00002C14.0001 8.86984 13.2719 10.6276 11.9497 11.9498ZM13.4398 7.00002C13.44 5.22465 12.7178 3.61459 11.5516 2.44843C10.3854 1.28227 8.77538 0.560003 7 0.560201C3.44885 0.560201 0.559982 3.44907 0.559982 7.00022C0.559981 10.5514 3.44885 13.4402 7 13.4402C10.5509 13.44 13.44 10.551 13.4398 7.00002Z" fill="#1A160C"/>
</svg>
