<svg width="14" height="14" viewBox="0 0 14 14" fill="none" xmlns="http://www.w3.org/2000/svg">
<path fill-rule="evenodd" clip-rule="evenodd" d="M7.0011 0C3.13775 0 0.00109863 3.13665 0.00109863 7C0.00109863 10.8633 3.13775 14 7.0011 14C10.8644 14 14.0011 10.8633 14.0011 7C14.0011 3.13665 10.8644 0 7.0011 0ZM7.0011 0.976744C10.3253 0.976744 13.0244 3.67581 13.0244 7C13.0244 10.3242 10.3253 13.0233 7.0011 13.0233C3.67691 13.0233 0.977843 10.3242 0.977843 7C0.977843 3.67581 3.67691 0.976744 7.0011 0.976744Z" fill="#1A160C"/>
<path fill-rule="evenodd" clip-rule="evenodd" d="M7.81505 4.39535V9.60466C7.81505 9.87424 8.03384 10.093 8.30342 10.093C8.573 10.093 8.79179 9.87424 8.79179 9.60466V4.39535C8.79179 4.12577 8.573 3.90698 8.30342 3.90698C8.03384 3.90698 7.81505 4.12577 7.81505 4.39535Z" fill="#1A160C"/>
<path fill-rule="evenodd" clip-rule="evenodd" d="M5.2104 4.39535V9.60466C5.2104 9.87424 5.42919 10.093 5.69878 10.093C5.96836 10.093 6.18715 9.87424 6.18715 9.60466V4.39535C6.18715 4.12577 5.96836 3.90698 5.69878 3.90698C5.42919 3.90698 5.2104 4.12577 5.2104 4.39535Z" fill="#1A160C"/>
</svg>
