<svg width="14" height="14" viewBox="0 0 14 14" fill="none" xmlns="http://www.w3.org/2000/svg">
<path d="M7 0C3.13424 0 0 3.13424 0 7C0 10.8658 3.13424 14 7 14C10.8658 14 14 10.8658 14 7C14 3.13424 10.8658 0 7 0ZM4.08328 12.0467C2.34134 11.0376 1.16672 9.15776 1.16672 7.00003C1.16672 4.8421 2.34131 2.96225 4.08328 1.95337C5.82541 2.96222 7 4.84207 7 7C7 9.15739 5.82541 11.0378 4.08328 12.0467ZM7 12.8333C6.42636 12.8333 5.87333 12.7473 5.34957 12.5928C7.05476 11.3169 8.16672 9.29284 8.16672 7C8.16672 4.70661 7.05479 2.68259 5.34957 1.40718C5.87316 1.25282 6.42616 1.16672 7 1.16672C10.2214 1.16672 12.8333 3.7786 12.8333 7C12.8333 10.2214 10.2214 12.8333 7 12.8333Z" fill="#1CD12E"/>
</svg>
