<svg width="14" height="14" viewBox="0 0 14 14" fill="none" xmlns="http://www.w3.org/2000/svg">
<path d="M12.5345 10.4093C12.2922 10.229 11.9496 10.2793 11.7693 10.5216C11.6702 10.6549 11.5641 10.7856 11.454 10.9102C11.254 11.1365 11.2752 11.4821 11.5015 11.6821C11.6055 11.7741 11.7347 11.8193 11.8635 11.8193C12.0147 11.8193 12.1654 11.7569 12.2734 11.6346C12.4038 11.4871 12.5295 11.3323 12.6469 11.1744C12.8272 10.9321 12.7769 10.5895 12.5345 10.4093Z" fill="#1A160C"/>
<path d="M13.4491 7.84453C13.1542 7.7803 12.8627 7.96747 12.7985 8.26257C12.7631 8.42491 12.7204 8.58755 12.6714 8.74603C12.5823 9.03462 12.7439 9.34081 13.0325 9.42998C13.0863 9.44658 13.1406 9.45448 13.1941 9.45448C13.4276 9.45448 13.6439 9.30371 13.7164 9.06888C13.7746 8.88081 13.8253 8.68779 13.8672 8.49521C13.9314 8.20011 13.7443 7.90879 13.4491 7.84453Z" fill="#1A160C"/>
<path d="M9.90224 12.1607C9.75704 12.2418 9.60671 12.3175 9.45544 12.3858C9.18017 12.5101 9.05781 12.8341 9.18211 13.1093C9.27344 13.3116 9.47248 13.4312 9.68084 13.4312C9.75609 13.4312 9.83257 13.4156 9.9056 13.3827C10.0851 13.3016 10.2633 13.2118 10.4354 13.1157C10.6992 12.9685 10.7936 12.6353 10.6463 12.3716C10.4991 12.1079 10.166 12.0135 9.90224 12.1607Z" fill="#1A160C"/>
<path d="M6.45313 2.625V6.77348L4.44776 8.77882C4.23421 8.9924 4.23421 9.33866 4.44776 9.55221C4.55457 9.65902 4.69449 9.71239 4.83449 9.71239C4.97443 9.71239 5.1144 9.65899 5.22121 9.55221L7.38673 7.3867C7.48926 7.28416 7.54688 7.14503 7.54688 7V2.625C7.54688 2.32296 7.30204 2.07812 7 2.07812C6.69796 2.07812 6.45313 2.32296 6.45313 2.625Z" fill="#1A160C"/>
<path d="M13.4531 1.17578C13.1511 1.17578 12.9062 1.42062 12.9062 1.72266V3.24122C11.6333 1.24491 9.41038 0 7 0C5.13023 0 3.37239 0.728137 2.05023 2.05023C0.728137 3.37239 0 5.13023 0 7C0 8.86977 0.728137 10.6276 2.05023 11.9498C3.37239 13.2719 5.13023 14 7 14C7.00462 14 7.00908 13.9994 7.01367 13.9993C7.01827 13.9994 7.02272 14 7.02734 14C7.22444 14 7.42347 13.9917 7.61898 13.9753C7.91995 13.9501 8.14352 13.6857 8.11833 13.3847C8.09309 13.0838 7.82904 12.8601 7.52771 12.8854C7.36244 12.8992 7.19411 12.9062 7.02734 12.9062C7.02272 12.9062 7.01827 12.9068 7.01367 12.9069C7.00908 12.9068 7.00462 12.9062 7 12.9062C3.74328 12.9062 1.09375 10.2567 1.09375 7C1.09375 3.74328 3.74328 1.09375 7 1.09375C9.09885 1.09375 11.0293 2.21246 12.0842 3.99219H10.5805C10.2784 3.99219 10.0336 4.23702 10.0336 4.53906C10.0336 4.8411 10.2784 5.08594 10.5805 5.08594H12.25C12.583 5.08594 12.8946 4.99234 13.1599 4.83019C13.177 4.82046 13.1934 4.80998 13.209 4.79869C13.685 4.48558 14 3.94699 14 3.33594V1.72266C14 1.42062 13.7552 1.17578 13.4531 1.17578Z" fill="#1A160C"/>
</svg>
