<svg width="14" height="14" viewBox="0 0 14 14" fill="none" xmlns="http://www.w3.org/2000/svg">
<path d="M13.286 0H8.69363C8.62493 0 8.55905 0.0272895 8.51048 0.0758651C8.4619 0.124441 8.43461 0.190323 8.43461 0.259019C8.43461 0.327716 8.4619 0.393598 8.51048 0.442174C8.55905 0.490749 8.62493 0.518039 8.69363 0.518039H13.027V3.80241L11.7889 5.04052C11.6612 5.16838 11.5093 5.26951 11.3421 5.338C11.1749 5.40649 10.9957 5.44096 10.815 5.43941H9.77892C9.71034 5.44036 9.64465 5.46719 9.59502 5.51452L7.61352 7.51156C7.47215 7.64089 7.28631 7.71064 7.09476 7.70626C6.90322 7.70189 6.72075 7.62372 6.58544 7.48808C6.45013 7.35243 6.37242 7.16978 6.36851 6.97822C6.36461 6.78666 6.43482 6.60099 6.56449 6.45994L7.99428 5.02757C8.19801 4.82828 8.32658 4.56469 8.35821 4.28146C8.38983 3.99823 8.32257 3.71277 8.16782 3.47345L8.13933 3.42942C7.99479 3.2019 7.78037 3.0274 7.52825 2.93209C7.27612 2.83678 6.99988 2.82581 6.74098 2.90082C6.48209 2.97583 6.25451 3.13278 6.09238 3.34812C5.93026 3.56345 5.84234 3.82556 5.84183 4.0951V6.9728C5.84183 7.16996 5.7635 7.35904 5.62409 7.49846C5.48468 7.63787 5.2956 7.71619 5.09844 7.71619C4.90128 7.71619 4.7122 7.63787 4.57279 7.49846C4.43338 7.35904 4.35505 7.16996 4.35505 6.9728V1.9012C4.35909 1.53562 4.50612 1.18615 4.76464 0.927625C5.02316 0.669102 5.37263 0.522079 5.73822 0.518039H7.39853C7.46723 0.518039 7.53311 0.490749 7.58169 0.442174C7.63026 0.393598 7.65755 0.327716 7.65755 0.259019C7.65755 0.190323 7.63026 0.124441 7.58169 0.0758651C7.53311 0.0272895 7.46723 0 7.39853 0H1.63276C1.29821 0 0.977361 0.1329 0.740798 0.369463C0.504235 0.606026 0.371335 0.926874 0.371335 1.26142C0.371335 1.59598 0.504235 1.91682 0.740798 2.15339C0.977361 2.38995 1.29821 2.52285 1.63276 2.52285H2.40982L2.08604 2.84921C2.05893 2.87243 2.03691 2.90101 2.02136 2.93314C2.00581 2.96528 1.99708 3.00028 1.9957 3.03595C1.99432 3.07163 2.00033 3.1072 2.01335 3.14044C2.02638 3.17367 2.04613 3.20386 2.07137 3.2291C2.09661 3.25435 2.1268 3.2741 2.16004 3.28712C2.19328 3.30014 2.22885 3.30615 2.26452 3.30478C2.30019 3.3034 2.3352 3.29466 2.36733 3.27911C2.39947 3.26357 2.42804 3.24155 2.45126 3.21443L3.82406 1.84422V3.93969L2.15857 5.60777C2.01517 5.73956 1.82752 5.81269 1.63276 5.81269C1.438 5.81269 1.25035 5.73956 1.10695 5.60777C1.03787 5.53874 0.983077 5.45677 0.945691 5.36655C0.908305 5.27632 0.889061 5.17962 0.889061 5.08196C0.889061 4.9843 0.908305 4.8876 0.945691 4.79738C0.983077 4.70716 1.03787 4.62519 1.10695 4.55615L1.53174 4.13395C1.55602 4.10987 1.57529 4.08122 1.58844 4.04966C1.60159 4.0181 1.60836 3.98424 1.60836 3.95005C1.60836 3.91585 1.60159 3.882 1.58844 3.85043C1.57529 3.81887 1.55602 3.79022 1.53174 3.76614C1.48321 3.7179 1.41756 3.69082 1.34913 3.69082C1.2807 3.69082 1.21506 3.7179 1.16653 3.76614L0.741733 4.18316C0.60933 4.29634 0.501801 4.43571 0.425919 4.59249C0.350038 4.74928 0.307449 4.92008 0.300836 5.09414C0.294223 5.26819 0.323729 5.44173 0.387496 5.60382C0.451262 5.76591 0.547907 5.91304 0.671341 6.03594C0.794775 6.15883 0.942323 6.25483 1.10469 6.31789C1.26706 6.38095 1.44072 6.40969 1.61475 6.40232C1.78878 6.39495 1.95939 6.35161 2.11584 6.27505C2.27229 6.19848 2.41119 6.09034 2.52379 5.95745L3.81888 4.66235V6.97021C3.81863 7.20312 3.883 7.43154 4.00483 7.63004C4.12666 7.82855 4.30117 7.98936 4.50895 8.09459C4.71673 8.19983 4.94964 8.24535 5.18175 8.2261C5.41386 8.20686 5.63609 8.12359 5.82369 7.98557V8.47512L4.22036 9.79353H3.47957C3.41087 9.79353 3.34499 9.82081 3.29641 9.86939C3.24784 9.91797 3.22055 9.98385 3.22055 10.0525V13.741C3.22055 13.8097 3.24784 13.8756 3.29641 13.9241C3.34499 13.9727 3.41087 14 3.47957 14H8.69363C8.76233 14 8.82821 13.9727 8.87678 13.9241C8.92536 13.8756 8.95265 13.8097 8.95265 13.741V12.85C8.95265 12.7813 8.92536 12.7154 8.87678 12.6668C8.82821 12.6182 8.76233 12.5909 8.69363 12.5909C8.62493 12.5909 8.55905 12.6182 8.51048 12.6668C8.4619 12.7154 8.43461 12.7813 8.43461 12.85V13.482H3.73859V10.3142H5.23572V11.5549C5.23572 11.6236 5.26301 11.6894 5.31159 11.738C5.36016 11.7866 5.42604 11.8139 5.49474 11.8139H6.67846C6.74715 11.8139 6.81304 11.7866 6.86161 11.738C6.91019 11.6894 6.93748 11.6236 6.93748 11.5549V10.3142H8.43461V11.5549C8.43461 11.6236 8.4619 11.6894 8.51048 11.738C8.55905 11.7866 8.62493 11.8139 8.69363 11.8139C8.76233 11.8139 8.82821 11.7866 8.87678 11.738C8.92536 11.6894 8.95265 11.6236 8.95265 11.5549V10.0551C8.95265 9.98644 8.92536 9.92056 8.87678 9.87198C8.82821 9.8234 8.76233 9.79611 8.69363 9.79611H7.94765L6.34691 8.47771V7.98557C6.59024 8.16678 6.89073 8.25421 7.19329 8.23185C7.49586 8.20949 7.78023 8.07884 7.99428 7.86383L9.88253 5.95745H10.815C11.0642 5.95829 11.311 5.90973 11.5413 5.81459C11.7716 5.71945 11.9808 5.57961 12.1567 5.40315L13.4699 4.08733C13.5178 4.03908 13.5448 3.97396 13.5451 3.90601V0.259019C13.5451 0.190323 13.5178 0.124441 13.4692 0.0758651C13.4206 0.0272895 13.3547 0 13.286 0V0ZM2.93822 1.99186H1.64312C1.44596 1.99186 1.25688 1.91354 1.11747 1.77413C0.978056 1.63471 0.899735 1.44563 0.899735 1.24847C0.899735 1.05132 0.978056 0.862232 1.11747 0.722821C1.25688 0.583409 1.44596 0.505088 1.64312 0.505088H4.42758C4.40427 0.5284 4.37837 0.551711 4.35505 0.577613L2.93822 1.99186ZM6.41944 11.2958H5.75376V10.3142H6.41944V11.2958ZM7.13433 9.79611H5.04146L6.07753 8.93617L7.13433 9.79611ZM6.35727 4.09769C6.35782 3.94039 6.4093 3.78751 6.50401 3.66192C6.59873 3.53634 6.73158 3.44482 6.88267 3.40107C7.03375 3.35732 7.19495 3.36369 7.34211 3.41923C7.48928 3.47477 7.61449 3.57649 7.699 3.70916L7.7249 3.75319C7.81407 3.89414 7.85193 4.06151 7.83212 4.22711C7.8123 4.39271 7.73601 4.54642 7.61611 4.66235L6.34691 5.93154L6.35727 4.09769Z" fill="#1A160C"/>
</svg>
