<svg width="22" height="22" viewBox="0 0 22 22" fill="none" xmlns="http://www.w3.org/2000/svg">
<path opacity="0.4" d="M18.3499 3.65995L12.0599 0.27C11.3999 -0.09 10.5999 -0.09 9.9299 0.27L3.63992 3.65995C3.17992 3.90995 2.8999 4.39998 2.8999 4.93998C2.8999 5.47998 3.17992 5.96995 3.63992 6.21995L9.9299 9.60997C10.2599 9.78997 10.6299 9.87999 10.9899 9.87999C11.3499 9.87999 11.7199 9.78997 12.0499 9.60997L18.3399 6.21995C18.7999 5.96995 19.0799 5.47998 19.0799 4.93998C19.0999 4.39998 18.8099 3.90995 18.3499 3.65995Z" fill="white"/>
<path opacity="0.4" d="M8.89996 10.7899L3.04996 7.85989C2.59996 7.62989 2.07996 7.65989 1.64996 7.91989C1.21996 8.17989 0.969971 8.63992 0.969971 9.13992V14.6699C0.969971 15.6299 1.49995 16.4899 2.35995 16.9199L8.20996 19.8399C8.40996 19.9399 8.62998 19.9899 8.84998 19.9899C9.10998 19.9899 9.36998 19.9199 9.59998 19.7699C10.03 19.5099 10.28 19.0499 10.28 18.5499V13.0199C10.29 12.0799 9.75996 11.2199 8.89996 10.7899Z" fill="white"/>
<path opacity="0.4" d="M21.03 9.15016V13.7401C21.02 13.7301 21.01 13.7101 21 13.7001C21 13.6901 20.99 13.6801 20.98 13.6701C20.94 13.6101 20.89 13.5501 20.84 13.5001C20.83 13.4901 20.82 13.4702 20.81 13.4602C20 12.5602 18.81 12.0001 17.5 12.0001C16.24 12.0001 15.09 12.5201 14.27 13.3601C13.48 14.1701 13 15.2801 13 16.5001C13 17.3401 13.24 18.1401 13.65 18.8201C13.82 19.1101 14.03 19.3701 14.26 19.6101L13.79 19.8501C13.59 19.9501 13.37 20.0001 13.15 20.0001C12.89 20.0001 12.63 19.9302 12.39 19.7802C11.97 19.5202 11.71 19.0601 11.71 18.5601V13.0401C11.71 12.0801 12.24 11.2201 13.1 10.7901L18.95 7.87013C19.4 7.64013 19.92 7.66012 20.35 7.93012C20.77 8.19012 21.03 8.65016 21.03 9.15016Z" fill="white"/>
<path d="M20.98 13.67C20.16 12.66 18.91 12.02 17.5 12.02C16.44 12.02 15.46 12.39 14.69 13.01C13.65 13.83 13 15.1 13 16.52C13 17.36 13.24 18.16 13.65 18.84C13.92 19.29 14.26 19.68 14.66 20H14.67C15.44 20.64 16.43 21.02 17.5 21.02C18.64 21.02 19.67 20.6 20.46 19.9C20.81 19.6 21.11 19.24 21.35 18.84C21.76 18.16 22 17.36 22 16.52C22 15.44 21.62 14.44 20.98 13.67ZM19.76 15.96L17.36 18.18C17.22 18.31 17.03 18.38 16.85 18.38C16.66 18.38 16.47 18.31 16.32 18.16L15.21 17.05C14.92 16.76 14.92 16.28 15.21 15.99C15.5 15.7 15.98 15.7 16.27 15.99L16.87 16.59L18.74 14.86C19.04 14.58 19.52 14.6 19.8 14.9C20.09 15.21 20.07 15.68 19.76 15.96Z" fill="white"/>
</svg>
