<svg width="10" height="14" viewBox="0 0 10 14" fill="none" xmlns="http://www.w3.org/2000/svg">
<path d="M9.99381 12.3885V13.7667C9.99381 13.8955 9.88935 14 9.7605 14C9.63166 14 9.5272 13.8955 9.5272 13.7667V12.3885C9.5272 11.3155 8.65888 10.4471 7.58574 10.4471C7.07799 10.4471 6.6173 10.1885 6.35335 9.75517C6.28634 9.64514 6.32118 9.50157 6.43125 9.43456C6.54128 9.36751 6.68482 9.40239 6.75186 9.51245C6.9304 9.80557 7.24212 9.98054 7.58574 9.98054C8.91665 9.98048 9.99381 11.0575 9.99381 12.3885V12.3885ZM5.9225 10.0499C5.94994 10.1758 5.87012 10.3001 5.74423 10.3275C5.13023 10.4613 4.50577 10.3274 4.00857 9.98801C3.51636 10.5155 2.86609 10.4471 2.95314 10.4471C1.88009 10.4471 1.01168 11.3154 1.01168 12.3885V13.7667C1.01168 13.8955 0.907219 14 0.778377 14C0.649536 14 0.545074 13.8955 0.545074 13.7667V12.3885C0.545074 11.0577 1.62203 9.98054 2.95308 9.98054C3.49148 9.98054 3.92796 9.54675 3.92796 9.0082V8.94675C2.90963 8.45982 2.19485 7.43658 2.15128 6.24502C1.73221 6.14426 1.41996 5.76917 1.41996 5.32289V4.11342C1.40722 3.52141 1.49511 2.03868 2.57621 0.996579C3.91114 -0.290261 6.05192 -0.208517 7.62608 0.549279C7.7795 0.623207 7.8028 0.830497 7.67539 0.937845C8.47285 1.13236 9.16051 1.62259 9.6023 2.32419C9.6251 2.36032 9.66686 2.41704 9.65596 2.50754C9.64919 2.56385 9.63242 2.6115 9.58903 2.65554C9.30469 2.9439 9.14811 3.32602 9.14811 3.73153V5.32294C9.14811 5.45179 9.04365 5.55625 8.91481 5.55625C8.78597 5.55625 8.68151 5.45179 8.68151 5.32294V3.73153C8.68151 3.26384 8.84129 2.81993 9.13476 2.46332C8.68746 1.82361 7.98959 1.41218 7.20033 1.32766L6.79027 1.28375C6.55049 1.25808 6.50345 0.927755 6.72629 0.836037L6.91278 0.759252C4.48392 -0.0874915 1.88654 0.853331 1.88654 4.11088V5.32289C1.88654 5.50801 1.99316 5.6689 2.149 5.74971V4.23724C2.149 3.33675 2.88163 2.60412 3.78212 2.60412H6.75673C7.65722 2.60412 8.38985 3.33669 8.38985 4.23715V6.14741C8.38985 8.17638 6.40713 9.71752 4.38958 9.12356C4.37646 9.29003 4.33502 9.45065 4.26751 9.59997C4.65998 9.86949 5.1556 9.97821 5.64487 9.87159C5.77077 9.84418 5.89506 9.924 5.9225 10.0499V10.0499ZM5.26943 8.7835C6.73276 8.7835 7.92325 7.59301 7.92325 6.12968V4.23715C7.92325 3.594 7.39995 3.07073 6.75673 3.07073H3.78212C3.13891 3.07073 2.61561 3.59403 2.61561 4.23724V6.12968C2.61561 7.59301 3.80609 8.7835 5.26943 8.7835ZM7.63162 12.8043H6.93171C6.80287 12.8043 6.69841 12.9088 6.69841 13.0376C6.69841 13.1665 6.80287 13.2709 6.93171 13.2709H7.63162C7.76046 13.2709 7.86492 13.1665 7.86492 13.0376C7.86492 12.9088 7.76046 12.8043 7.63162 12.8043Z" fill="#1A160C"/>
</svg>
