<svg width="20" height="21" viewBox="0 0 20 21" fill="none" xmlns="http://www.w3.org/2000/svg">
<path d="M7 6.75001C7 4.00001 4.42 2.24001 4.31 2.17001C4.14463 2.05824 3.9496 1.9985 3.75 1.9985C3.5504 1.9985 3.35537 2.05824 3.19 2.17001C3.08 2.25001 0.5 4.00001 0.5 6.75001C0.5 7.61197 0.84241 8.43862 1.4519 9.04811C2.0614 9.6576 2.88805 10 3.75 10C4.61195 10 5.4386 9.6576 6.0481 9.04811C6.65759 8.43862 7 7.61197 7 6.75001ZM3.75 8.00001C3.41848 8.00001 3.10054 7.86832 2.86612 7.6339C2.6317 7.39948 2.5 7.08153 2.5 6.75001C2.58229 5.80189 3.03065 4.9231 3.75 4.30001C4.47364 4.91973 4.92296 5.80039 5 6.75001C5 7.08153 4.8683 7.39948 4.63388 7.6339C4.39946 7.86832 4.08152 8.00001 3.75 8.00001ZM9.81 9.17001C9.64463 9.05824 9.4496 8.9985 9.25 8.9985C9.0504 8.9985 8.85537 9.05824 8.69 9.17001C8.52 9.29001 4.5 12.07 4.5 16.25C4.5 17.5098 5.00045 18.718 5.89124 19.6088C6.78204 20.4996 7.99022 21 9.25 21C10.5098 21 11.718 20.4996 12.6088 19.6088C13.4996 18.718 14 17.5098 14 16.25C14 12 10 9.28001 9.81 9.17001ZM9.25 19C8.88886 19 8.53127 18.9289 8.19762 18.7907C7.86398 18.6525 7.56082 18.4499 7.30546 18.1946C7.0501 17.9392 6.84753 17.636 6.70933 17.3024C6.57113 16.9687 6.5 16.6111 6.5 16.25C6.5 13.94 8.31 12.08 9.26 11.25C10.2 12.04 12 13.88 12 16.25C12 16.6111 11.9289 16.9687 11.7907 17.3024C11.6525 17.636 11.4499 17.9392 11.1945 18.1946C10.9392 18.4499 10.636 18.6525 10.3024 18.7907C9.96873 18.9289 9.61114 19 9.25 19ZM16.06 1.17001C15.8946 1.05824 15.6996 0.998505 15.5 0.998505C15.3004 0.998505 15.1054 1.05824 14.94 1.17001C14.8 1.27001 11.5 3.55001 11.5 7.00001C11.5 8.06088 11.9214 9.07829 12.6716 9.82844C13.4217 10.5786 14.4391 11 15.5 11C16.5609 11 17.5783 10.5786 18.3284 9.82844C19.0786 9.07829 19.5 8.06088 19.5 7.00001C19.5 3.51001 16.2 1.26001 16.06 1.17001ZM15.5 9.00001C14.9696 9.00001 14.4609 8.7893 14.0858 8.41423C13.7107 8.03915 13.5 7.53045 13.5 7.00001C13.5685 6.27793 13.7808 5.57684 14.1242 4.93799C14.4677 4.29914 14.9355 3.73543 15.5 3.28001C16.0666 3.73349 16.5359 4.29673 16.8795 4.93596C17.2232 5.57519 17.4343 6.27724 17.5 7.00001C17.5 7.53045 17.2893 8.03915 16.9142 8.41423C16.5391 8.7893 16.0304 9.00001 15.5 9.00001Z" fill="#1A160C"/>
</svg>
