<svg width="15" height="14" viewBox="0 0 15 14" fill="none" xmlns="http://www.w3.org/2000/svg">
<path d="M2.35875 14H12.2411C12.7871 14 13.3108 13.7831 13.6969 13.397C14.083 13.0109 14.2999 12.4872 14.2999 11.9412V2.88235C14.2999 2.33632 14.083 1.81265 13.6969 1.42654C13.3108 1.04044 12.7871 0.823529 12.2411 0.823529H11.0058V0.411765C11.0058 0.302558 10.9624 0.197824 10.8852 0.120603C10.808 0.0433823 10.7033 0 10.594 0C10.4848 0 10.3801 0.0433823 10.3029 0.120603C10.2257 0.197824 10.1823 0.302558 10.1823 0.411765V0.823529H4.41757V0.411765C4.41757 0.302558 4.37419 0.197824 4.29697 0.120603C4.21975 0.0433823 4.11502 0 4.00581 0C3.8966 0 3.79187 0.0433823 3.71465 0.120603C3.63743 0.197824 3.59404 0.302558 3.59404 0.411765V0.823529H2.35875C1.81272 0.823529 1.28905 1.04044 0.902942 1.42654C0.516838 1.81265 0.299927 2.33632 0.299927 2.88235V11.9412C0.299927 12.4872 0.516838 13.0109 0.902942 13.397C1.28905 13.7831 1.81272 14 2.35875 14ZM12.2411 13.1765H2.35875C2.03113 13.1765 1.71693 13.0463 1.48527 12.8147C1.2536 12.583 1.12346 12.2688 1.12346 11.9412V4.11765H13.4764V11.9412C13.4764 12.2688 13.3463 12.583 13.1146 12.8147C12.8829 13.0463 12.5687 13.1765 12.2411 13.1765ZM2.35875 1.64706H3.59404V2.05882C3.59404 2.16803 3.63743 2.27276 3.71465 2.34999C3.79187 2.42721 3.8966 2.47059 4.00581 2.47059C4.11502 2.47059 4.21975 2.42721 4.29697 2.34999C4.37419 2.27276 4.41757 2.16803 4.41757 2.05882V1.64706H10.1823V2.05882C10.1823 2.16803 10.2257 2.27276 10.3029 2.34999C10.3801 2.42721 10.4848 2.47059 10.594 2.47059C10.7033 2.47059 10.808 2.42721 10.8852 2.34999C10.9624 2.27276 11.0058 2.16803 11.0058 2.05882V1.64706H12.2411C12.5687 1.64706 12.8829 1.77721 13.1146 2.00887C13.3463 2.24053 13.4764 2.55473 13.4764 2.88235V3.29412H1.12346V2.88235C1.12346 2.55473 1.2536 2.24053 1.48527 2.00887C1.71693 1.77721 2.03113 1.64706 2.35875 1.64706ZM4.82934 9.26471C4.72013 9.26471 4.6154 9.22132 4.53818 9.1441C4.46096 9.06688 4.41757 8.96215 4.41757 8.85294V7.61765C4.41757 7.29003 4.54772 6.97582 4.77938 6.74416C5.01105 6.5125 5.32525 6.38235 5.65287 6.38235H8.36475L8.24369 6.26212C8.20541 6.22383 8.17504 6.17838 8.15432 6.12836C8.1336 6.07834 8.12294 6.02473 8.12294 5.97059C8.12294 5.91645 8.1336 5.86283 8.15432 5.81281C8.17504 5.76279 8.20541 5.71734 8.24369 5.67906C8.28198 5.64077 8.32743 5.61041 8.37745 5.58969C8.42747 5.56897 8.48108 5.5583 8.53522 5.5583C8.58936 5.5583 8.64297 5.56897 8.693 5.58969C8.74302 5.61041 8.78847 5.64077 8.82675 5.67906L9.65028 6.50259C9.68863 6.54084 9.71905 6.58628 9.73981 6.6363C9.76057 6.68633 9.77125 6.73996 9.77125 6.79412C9.77125 6.84828 9.76057 6.90191 9.73981 6.95193C9.71905 7.00196 9.68863 7.0474 9.65028 7.08565L8.82675 7.90918C8.74943 7.9865 8.64457 8.02993 8.53522 8.02993C8.42588 8.02993 8.32101 7.9865 8.24369 7.90918C8.16637 7.83186 8.12294 7.72699 8.12294 7.61765C8.12294 7.5083 8.16637 7.40344 8.24369 7.32612L8.36475 7.20588H5.65287C5.54366 7.20588 5.43893 7.24926 5.36171 7.32649C5.28449 7.40371 5.2411 7.50844 5.2411 7.61765V8.85294C5.2411 8.96215 5.19772 9.06688 5.1205 9.1441C5.04328 9.22132 4.93855 9.26471 4.82934 9.26471ZM10.1823 8.44118V9.67647C10.1823 10.0041 10.0521 10.3183 9.82047 10.55C9.58881 10.7816 9.27461 10.9118 8.94699 10.9118H6.2351L6.35616 11.032C6.43348 11.1093 6.47692 11.2142 6.47692 11.3235C6.47692 11.4329 6.43348 11.5377 6.35616 11.6151C6.27884 11.6924 6.17398 11.7358 6.06463 11.7358C5.95529 11.7358 5.85042 11.6924 5.7731 11.6151L4.94957 10.7915C4.91123 10.7533 4.8808 10.7078 4.86005 10.6578C4.83929 10.6078 4.8286 10.5542 4.8286 10.5C4.8286 10.4458 4.83929 10.3922 4.86005 10.3422C4.8808 10.2922 4.91123 10.2467 4.94957 10.2085L5.7731 9.38494C5.85042 9.30762 5.95529 9.26419 6.06463 9.26419C6.17398 9.26419 6.27884 9.30762 6.35616 9.38494C6.43348 9.46226 6.47692 9.56713 6.47692 9.67647C6.47692 9.78582 6.43348 9.89068 6.35616 9.968L6.2351 10.0882H8.94699C9.05619 10.0882 9.16093 10.0449 9.23815 9.96763C9.31537 9.89041 9.35875 9.78568 9.35875 9.67647V8.44118C9.35875 8.33197 9.40213 8.22724 9.47935 8.15001C9.55657 8.07279 9.66131 8.02941 9.77052 8.02941C9.87972 8.02941 9.98446 8.07279 10.0617 8.15001C10.1389 8.22724 10.1823 8.33197 10.1823 8.44118Z" fill="#1A160C"/>
</svg>
