<svg width="14" height="14" viewBox="0 0 14 14" fill="none" xmlns="http://www.w3.org/2000/svg">
<path d="M13.9862 10.0001C13.9065 9.18038 13.4868 8.43436 12.8044 7.89943C12.5412 7.69313 12.2422 7.5207 11.9126 7.38338V3.68743C11.9126 3.60928 11.8709 3.53707 11.8032 3.49799L6.06569 0.185434C5.99802 0.146359 5.91462 0.146359 5.84694 0.185434L0.109406 3.49799C0.0417024 3.53707 3.05176e-05 3.60928 3.05176e-05 3.68743V10.3126C3.05176e-05 10.3907 0.0417024 10.4629 0.109406 10.502L5.84694 13.8146C5.88077 13.8341 5.91856 13.8439 5.95632 13.8439C5.99408 13.8439 6.03187 13.8341 6.06569 13.8146L11.8032 10.502C11.8482 10.476 11.8813 10.4353 11.8987 10.388C12.048 10.5806 12.1513 10.7964 12.2002 11.0239C12.3806 11.8644 11.837 12.6816 10.7815 13.1565C10.6802 13.2022 10.6291 13.3165 10.6629 13.4224C10.6922 13.5146 10.7776 13.5748 10.8711 13.5748C10.8851 13.5748 10.8992 13.5735 10.9134 13.5707C11.926 13.372 12.7548 12.9009 13.3101 12.2083C13.8225 11.5696 14.0625 10.7853 13.9862 10.0001ZM5.95632 6.74741L4.35698 5.82404L9.65702 2.76406L11.2564 3.68743L5.95632 6.74741ZM2.69309 4.8634L7.99313 1.80342L9.21952 2.51148L3.91948 5.57147L2.69309 4.8634ZM3.70076 5.95034L3.70073 8.05401L2.47437 7.34597L2.47434 5.24228L3.70076 5.95034ZM5.95632 0.627473L7.55563 1.55084L2.25559 4.6108L0.65628 3.68743L5.95632 0.627473ZM0.43753 4.06633L2.03684 4.9897L2.03687 7.47227C2.03687 7.55042 2.07854 7.62263 2.14624 7.66171L3.81011 8.62232C3.84393 8.64184 3.88172 8.65163 3.91948 8.65163C3.95725 8.65163 3.99503 8.64187 4.02886 8.62232C4.09656 8.58325 4.13823 8.51103 4.13823 8.43288L4.13826 6.20295L5.73757 7.12632V13.2463L0.43753 10.1863V4.06633ZM6.17507 13.2463V7.12632L11.4751 4.06633V7.22719C11.0201 7.08995 10.518 7.01145 9.9785 6.99482V6.28736C9.9785 6.2024 9.92931 6.1251 9.85234 6.08917C9.77534 6.05321 9.68447 6.06508 9.61934 6.1196L7.09035 8.23628C7.0388 8.27943 7.00998 8.34385 7.01212 8.41104C7.01428 8.47822 7.04717 8.54067 7.10137 8.5804L9.63036 10.4358C9.69686 10.4846 9.7851 10.4918 9.85863 10.4546C9.93215 10.4173 9.97853 10.3419 9.97853 10.2594V9.52401C10.5578 9.55513 11.0667 9.71096 11.4605 9.97939C11.4655 9.98281 11.4702 9.98642 11.4751 9.98986V10.1863L6.17507 13.2463ZM12.2209 12.6033C12.275 12.5327 12.3244 12.4601 12.3692 12.3857C12.6444 11.9283 12.7339 11.4257 12.6279 10.9322C12.5167 10.4136 12.1895 9.94688 11.7068 9.61785C11.1913 9.26643 10.518 9.08066 9.75975 9.08066C9.63895 9.08066 9.541 9.1786 9.541 9.29941V9.82761L7.5851 8.39263L9.541 6.75565V7.21018C9.541 7.33098 9.63895 7.42893 9.75975 7.42893C12.3705 7.42893 13.4336 8.83675 13.5508 10.0423C13.6366 10.9258 13.2343 11.9551 12.2209 12.6033Z" fill="#1A160C"/>
</svg>
