<svg width="15" height="14" viewBox="0 0 15 14" fill="none" xmlns="http://www.w3.org/2000/svg">
<path d="M4.14965 13.918C4.25564 14.0264 4.4282 14.0276 4.53558 13.9202L5.86131 12.5951C6.08654 12.3666 6.15502 12.0283 6.05598 11.7342L6.34115 11.4551C6.49468 11.3047 6.69683 11.2217 6.91052 11.2217H10.5457C11.1906 11.2217 11.8002 10.9705 12.2623 10.5142C12.2813 10.4954 12.1179 10.6907 14.7423 7.50837C15.1315 7.04115 15.0733 6.33956 14.6123 5.94421C14.1543 5.55255 13.4681 5.60881 13.0778 6.06801L11.4643 7.75065C11.2605 7.49623 10.9498 7.33763 10.6141 7.33763H7.56484C7.13095 7.15346 6.67055 7.06023 6.19552 7.06023C4.87876 7.06023 3.72901 7.67726 3.11198 8.83415C2.85202 8.78417 2.57786 8.86396 2.38062 9.06407L1.07979 10.3878C0.973583 10.4959 0.973369 10.6707 1.07936 10.7791L4.14965 13.918ZM6.19541 7.61504C6.61424 7.61504 7.01919 7.70057 7.39923 7.86925C7.43385 7.88464 7.47114 7.89255 7.50886 7.89255H10.6141C10.9106 7.89255 11.161 8.13787 11.161 8.44736C11.161 8.75339 10.9157 9.00228 10.6141 9.00228H8.38306C8.23209 9.00228 8.10964 9.12651 8.10964 9.27969C8.10964 9.43297 8.23209 9.55709 8.38306 9.55709H10.6141C11.2172 9.55709 11.7079 9.0593 11.7079 8.44736C11.7079 8.39858 11.7044 8.35023 11.6982 8.30232C13.2591 6.67442 13.4792 6.44569 13.4886 6.4343C13.6835 6.20091 14.0295 6.17132 14.2596 6.36818C14.49 6.5658 14.5192 6.91659 14.3237 7.15129L11.8711 10.1261C11.513 10.4749 11.0427 10.6669 10.5457 10.6669H6.91052C6.5543 10.6669 6.2171 10.8051 5.96131 11.0559L5.72893 11.2834L3.58669 9.11003C4.08736 8.15706 5.02685 7.61504 6.19541 7.61504V7.61504ZM2.76762 9.45617C2.85779 9.36467 2.99626 9.3482 3.10621 9.41714C3.15354 9.44641 3.01763 9.32088 5.47464 11.8103C5.58394 11.9212 5.57806 12.0979 5.47613 12.2013L4.34593 13.331L1.6591 10.5841L2.76762 9.45617Z" fill="#333333"/>
<path d="M12.4901 3.19369C12.4922 2.60765 12.3059 2.03645 11.9586 1.56439C11.6113 1.09234 11.1214 0.744444 10.5613 0.572064C10.5326 0.563692 10.5017 0.566936 10.4753 0.581097C10.449 0.595259 10.4292 0.619206 10.4203 0.647783C10.4115 0.676361 10.4142 0.707283 10.4279 0.733893C10.4415 0.760503 10.4651 0.780674 10.4935 0.790063C13.0777 1.62688 12.7146 5.34 10.0461 5.69181L10.2663 5.47819C10.2874 5.45697 10.2993 5.42833 10.2994 5.39843C10.2996 5.36853 10.288 5.33976 10.2672 5.3183C10.2464 5.29684 10.218 5.28441 10.1881 5.28367C10.1582 5.28294 10.1292 5.29396 10.1074 5.31436L9.66559 5.74288C9.64515 5.76422 9.63341 5.79242 9.63267 5.82196C9.63193 5.8515 9.64224 5.88025 9.66158 5.90259L10.081 6.35307C10.0912 6.36403 10.1035 6.37287 10.1171 6.37909C10.1307 6.38531 10.1454 6.38878 10.1604 6.38931C10.1754 6.38984 10.1903 6.38741 10.2044 6.38217C10.2184 6.37692 10.2313 6.36897 10.2422 6.35875C10.2532 6.34853 10.262 6.33626 10.2683 6.32263C10.2745 6.30899 10.2779 6.29427 10.2785 6.27929C10.279 6.26432 10.2766 6.24939 10.2713 6.23535C10.2661 6.22131 10.2581 6.20844 10.2479 6.19748L9.99584 5.92675C10.6772 5.86346 11.3105 5.54826 11.7717 5.04281C12.233 4.53735 12.4892 3.87799 12.4901 3.19369V3.19369Z" fill="#333333"/>
<path d="M8.96153 5.58619C6.40951 4.71638 6.79471 1.04189 9.44616 0.695312L9.22511 0.909652C9.20404 0.930873 9.19215 0.959512 9.19197 0.989413C9.1918 1.01931 9.20337 1.04809 9.22419 1.06955C9.24501 1.09101 9.27342 1.10345 9.30331 1.10418C9.3332 1.10491 9.36219 1.09389 9.38404 1.07348L9.82594 0.644954C9.84737 0.624152 9.85979 0.595778 9.86054 0.56592C9.86129 0.536062 9.85031 0.5071 9.82995 0.485247L9.41056 0.0347672C9.38977 0.0132808 9.36138 0.000810627 9.33149 3.81431e-05C9.30161 -0.000734341 9.27261 0.0102525 9.25074 0.0306364C9.22887 0.0510202 9.21587 0.079173 9.21454 0.109041C9.2132 0.138909 9.22365 0.168107 9.24362 0.190357L9.49519 0.460568C8.86627 0.518082 8.27641 0.790688 7.82506 1.23243C7.3737 1.67417 7.08846 2.25803 7.01743 2.88557C6.94639 3.51311 7.0939 4.14595 7.43509 4.67741C7.77627 5.20886 8.29027 5.60643 8.89043 5.80307C8.91901 5.81184 8.94989 5.80905 8.97643 5.7953C9.00297 5.78154 9.02306 5.75792 9.03238 5.72951C9.04169 5.70111 9.03949 5.67018 9.02624 5.64338C9.01299 5.61658 8.98976 5.59604 8.96153 5.58619V5.58619Z" fill="#333333"/>
<path d="M8.16605 1.89184V4.49597C8.16612 4.56937 8.19531 4.63975 8.24722 4.69165C8.29912 4.74355 8.3695 4.77274 8.4429 4.77281H11.047C11.1204 4.77274 11.1908 4.74355 11.2427 4.69165C11.2946 4.63975 11.3238 4.56937 11.3239 4.49597V1.89184C11.3238 1.81843 11.2946 1.74806 11.2427 1.69615C11.1908 1.64425 11.1204 1.61506 11.047 1.61499H8.4429C8.3695 1.61506 8.29912 1.64425 8.24722 1.69615C8.19531 1.74806 8.16612 1.81843 8.16605 1.89184V1.89184ZM11.0956 1.89184V4.49597C11.0957 4.50237 11.0945 4.50871 11.092 4.51463C11.0896 4.52056 11.086 4.52594 11.0815 4.53046C11.077 4.53499 11.0716 4.53856 11.0657 4.54098C11.0598 4.5434 11.0534 4.54462 11.047 4.54456H8.4429C8.4365 4.54462 8.43016 4.5434 8.42423 4.54098C8.41831 4.53856 8.41293 4.53499 8.40841 4.53046C8.40388 4.52594 8.4003 4.52056 8.39788 4.51463C8.39546 4.50871 8.39425 4.50237 8.39431 4.49597V1.89184C8.39425 1.88544 8.39546 1.87909 8.39788 1.87317C8.4003 1.86725 8.40388 1.86187 8.40841 1.85734C8.41293 1.85282 8.41831 1.84924 8.42423 1.84682C8.43016 1.8444 8.4365 1.84318 8.4429 1.84324H9.75856V2.60255C9.75906 2.63812 9.77016 2.67274 9.79043 2.70198C9.8107 2.73121 9.83922 2.75374 9.87236 2.76669C9.9055 2.77963 9.94174 2.7824 9.97646 2.77464C10.0112 2.76688 10.0428 2.74895 10.0673 2.72313L10.2473 2.5281L10.4273 2.72325C10.4516 2.74953 10.4832 2.76787 10.5181 2.77589C10.553 2.78391 10.5895 2.78123 10.6228 2.76819C10.6561 2.75516 10.6847 2.73239 10.7049 2.70284C10.7251 2.67329 10.7359 2.63834 10.736 2.60255V1.84324H11.047C11.0534 1.84318 11.0598 1.84439 11.0657 1.84681C11.0716 1.84924 11.077 1.85281 11.0815 1.85734C11.0861 1.86186 11.0896 1.86724 11.0921 1.87317C11.0945 1.87909 11.0957 1.88544 11.0956 1.89184H11.0956ZM9.98681 1.84324H10.5077V2.47382L10.3781 2.33329C10.361 2.31597 10.3406 2.30222 10.3182 2.29284C10.2957 2.28345 10.2716 2.27862 10.2473 2.27862C10.2229 2.27862 10.1988 2.28345 10.1764 2.29284C10.1539 2.30222 10.1335 2.31597 10.1164 2.33329L9.98681 2.47372L9.98681 1.84324Z" fill="#333333"/>
<path d="M8.86988 3.79923H9.3714C9.40167 3.79923 9.4307 3.78721 9.4521 3.76581C9.4735 3.7444 9.48553 3.71538 9.48553 3.68511C9.48553 3.65484 9.4735 3.62581 9.4521 3.60441C9.4307 3.58301 9.40167 3.57098 9.3714 3.57098H8.86988C8.84 3.57157 8.81153 3.58385 8.79061 3.60519C8.76968 3.62652 8.75796 3.65522 8.75796 3.68511C8.75796 3.715 8.76968 3.74369 8.79061 3.76503C8.81153 3.78637 8.84 3.79865 8.86988 3.79923V3.79923Z" fill="#333333"/>
<path d="M9.87281 4.12372H8.86987C8.83999 4.1243 8.81153 4.13658 8.7906 4.15792C8.76968 4.17926 8.75796 4.20796 8.75796 4.23785C8.75796 4.26773 8.76968 4.29643 8.79061 4.31777C8.81154 4.33911 8.84 4.35139 8.86988 4.35197H9.87281C9.90269 4.35138 9.93115 4.33911 9.95208 4.31777C9.97301 4.29643 9.98473 4.26773 9.98473 4.23784C9.98473 4.20796 9.97301 4.17926 9.95208 4.15792C9.93116 4.13658 9.90269 4.1243 9.87281 4.12372Z" fill="#333333"/>
<path d="M5.92386 1.16642C5.82234 1.06123 5.65776 1.06123 5.55622 1.16642L2.44179 4.39353L1.24465 3.1531C1.14314 3.0479 0.978552 3.04791 0.877017 3.1531C0.775492 3.25828 0.775492 3.42882 0.877017 3.53402L2.25797 4.9649C2.35946 5.07008 2.52416 5.07001 2.62561 4.9649L5.92386 1.54735C6.02538 1.44217 6.02537 1.27162 5.92386 1.16642Z" fill="#333333"/>
</svg>
