<svg width="15" height="14" viewBox="0 0 15 14" fill="none" xmlns="http://www.w3.org/2000/svg">
<path d="M14.8419 10.0185C14.815 9.97737 14.7792 9.94286 14.7371 9.91758C14.6949 9.89231 14.6476 9.87693 14.5987 9.87263C13.8095 9.80901 13.0345 9.62646 12.2999 9.33117V8.92913C12.2999 8.84314 12.2658 8.76068 12.205 8.69987C12.1442 8.63907 12.0617 8.60491 11.9757 8.60491C11.8897 8.60491 11.8073 8.63907 11.7465 8.69987C11.6857 8.76068 11.6515 8.84314 11.6515 8.92913V9.04261C11.3273 8.87726 11.003 8.70218 10.6983 8.53034C9.02852 7.59657 7.58573 6.78925 4.01277 8.24502C3.93989 8.27471 3.88029 8.3299 3.84509 8.40029C3.80989 8.47069 3.8015 8.55148 3.82148 8.62761C4.09707 9.73321 4.9433 9.74294 5.71495 9.60028C5.09244 10.1093 4.15219 10.3201 2.91041 10.226C2.82837 10.2184 2.7465 10.2424 2.68146 10.2929C2.61642 10.3435 2.57308 10.417 2.56025 10.4984C2.55386 10.5652 2.55386 10.6325 2.56025 10.6994H0.952098V0.648448H4.68068V2.91802C4.68068 3.00401 4.71484 3.08647 4.77564 3.14728C4.83644 3.20808 4.91891 3.24224 5.0049 3.24224H7.59869C7.68468 3.24224 7.76715 3.20808 7.82796 3.14728C7.88876 3.08647 7.92292 3.00401 7.92292 2.91802V0.648448H11.6515V1.2969C11.6515 1.38289 11.6857 1.46535 11.7465 1.52616C11.8073 1.58696 11.8897 1.62112 11.9757 1.62112C12.0617 1.62112 12.1442 1.58696 12.205 1.52616C12.2658 1.46535 12.2999 1.38289 12.2999 1.2969V0.324224C12.2999 0.238235 12.2658 0.155767 12.205 0.0949631C12.1442 0.0341593 12.0617 0 11.9757 0H0.627874C0.541884 0 0.459417 0.0341593 0.398613 0.0949631C0.337809 0.155767 0.30365 0.238235 0.30365 0.324224V11.0236C0.30365 11.1096 0.337809 11.1921 0.398613 11.2529C0.459417 11.3137 0.541884 11.3478 0.627874 11.3478H2.73533C2.78804 11.4369 2.85359 11.5178 2.92987 11.5878C3.16312 11.7849 3.43654 11.9287 3.73107 12.0094C4.0256 12.09 4.33417 12.1054 4.63529 12.0547C5.77655 12.8749 6.54172 13.7212 7.85807 14C8.61027 14 9.93635 13.1343 10.5978 12.6674L12.3907 13.2024C12.4353 13.2167 12.4824 13.2213 12.5288 13.2157C12.5753 13.2101 12.62 13.1945 12.6598 13.17C13.6219 12.4197 14.38 11.4397 14.8646 10.3201C14.8856 10.2717 14.8945 10.219 14.8905 10.1665C14.8866 10.1139 14.8699 10.0632 14.8419 10.0185V10.0185ZM5.32912 0.638722H7.27447V2.58407H5.32912V0.638722ZM12.4361 12.5183L10.6464 11.9768C10.6152 11.9735 10.5836 11.9735 10.5524 11.9768C10.4848 11.9773 10.4191 11.9988 10.3643 12.0384C9.29114 12.8101 8.27956 13.3353 7.88077 13.3353C7.13778 13.1005 6.45657 12.7029 5.88679 12.1714C5.58526 11.9314 5.27725 11.685 4.91412 11.4321C4.84531 11.3869 4.76184 11.3695 4.68068 11.3835C4.38691 11.4358 4.08501 11.4192 3.79879 11.3349C3.64388 11.2945 3.50133 11.2166 3.38378 11.1079C3.31664 11.0452 3.2636 10.969 3.22815 10.8842C3.63091 10.9052 4.03472 10.878 4.43102 10.8031C4.89806 10.7422 5.34661 10.5819 5.74649 10.333C6.14636 10.0841 6.48828 9.75246 6.74923 9.36035C6.99353 9.30399 7.24519 9.28649 7.49494 9.30848C7.58093 9.31879 7.6675 9.29453 7.7356 9.24102C7.8037 9.18752 7.84775 9.10915 7.85807 9.02316C7.86839 8.93717 7.84413 8.8506 7.79062 8.7825C7.73711 8.7144 7.65874 8.67035 7.57276 8.66003C7.05451 8.63297 6.53553 8.69661 6.03918 8.84808C5.15404 9.06207 4.74228 9.11394 4.53478 8.72812C7.60518 7.5447 8.83075 8.23205 10.3708 9.09449C10.7631 9.31496 11.1781 9.54516 11.6418 9.74294C11.846 9.8402 12.06 9.92774 12.2902 10.0153C12.8703 10.2298 13.4712 10.383 14.0832 10.4724C13.6585 11.2458 13.101 11.9383 12.4361 12.5183V12.5183Z" fill="#1A160C"/>
<path d="M12.2528 7.46668C11.7503 7.46668 11.2464 7.32405 10.8092 7.03483C9.85091 6.40111 9.41451 5.18985 9.74798 4.08914C9.78437 3.96892 9.91141 3.90091 10.0316 3.93742C10.1518 3.97381 10.2197 4.10085 10.1833 4.22107C9.90777 5.13071 10.2684 6.13167 11.0601 6.6553C11.86 7.18428 12.9292 7.11956 13.6606 6.49801C14.3827 5.8843 14.6207 4.81259 14.2263 3.94981C13.81 3.03858 12.7961 2.52496 11.816 2.72855C11.4035 2.81419 11.0131 3.02607 10.717 3.32542C10.6286 3.4147 10.4846 3.41549 10.3953 3.32712C10.3061 3.23875 10.3053 3.09477 10.3936 3.00549C10.7521 2.64325 11.2245 2.38678 11.7235 2.28317C12.91 2.03739 14.1364 2.65826 14.6402 3.76079C15.1251 4.82169 14.8435 6.08993 13.9554 6.84478C13.4702 7.25684 12.8623 7.46668 12.2528 7.46668V7.46668Z" fill="#1A160C"/>
<path d="M10.5554 3.39303C10.536 3.39303 10.5161 3.39052 10.4964 3.38518C10.375 3.35265 10.303 3.228 10.3356 3.10665L10.7059 1.72433C10.7384 1.60298 10.8631 1.53053 10.9844 1.56351C11.1058 1.59604 11.1778 1.72069 11.1452 1.84204L10.7749 3.22436C10.7477 3.32592 10.6558 3.39303 10.5554 3.39303V3.39303Z" fill="#1A160C"/>
<path d="M11.9377 3.76346C11.9182 3.76346 11.8984 3.76096 11.8787 3.75561L10.4964 3.38507C10.375 3.35254 10.303 3.22789 10.3356 3.10654C10.3681 2.98518 10.4934 2.91308 10.6141 2.94572L11.9964 3.31626C12.1178 3.34879 12.1898 3.47344 12.1572 3.5948C12.13 3.69636 12.0381 3.76346 11.9377 3.76346V3.76346Z" fill="#1A160C"/>
</svg>
