<svg width="15" height="14" viewBox="0 0 15 14" fill="none" xmlns="http://www.w3.org/2000/svg">
<path d="M6.54023 11.9577C6.59968 11.9909 6.66661 12.0083 6.73468 12.0083C6.80275 12.0083 6.86969 11.9909 6.92913 11.9577L10.931 9.64739C10.9901 9.61327 11.0392 9.56419 11.0733 9.50508C11.1075 9.44597 11.1254 9.37892 11.1254 9.31066V4.68952C11.1243 4.62149 11.1059 4.55485 11.0719 4.49592C11.0379 4.43699 10.9894 4.38773 10.931 4.3528L6.92913 2.04246C6.86999 2.00839 6.80293 1.99045 6.73468 1.99045C6.66643 1.99045 6.59937 2.00839 6.54023 2.04246L2.53824 4.3528C2.47988 4.38776 2.43139 4.43703 2.39737 4.49595C2.36334 4.55487 2.34491 4.62149 2.3438 4.68952V9.31066C2.34381 9.37891 2.36178 9.44596 2.39592 9.50507C2.43005 9.56418 2.47913 9.61326 2.53824 9.64739L6.54023 11.9577ZM10.3476 9.08608L7.12357 10.9473V7.22456L9.04027 6.1179L9.04242 6.11666L10.3476 5.36306V9.08608ZM6.73468 2.82836L9.95873 4.68958L8.84963 5.32995L5.62571 3.46845L6.73468 2.82836ZM4.84798 3.91747L8.07203 5.77897L6.73478 6.55102L3.51063 4.68952L4.84798 3.91747ZM3.12158 5.36303L6.34579 7.22453V10.9473L3.12158 9.08608V5.36303ZM5.21188 7.09905L4.32461 6.58685C4.28035 6.56042 4.23128 6.54305 4.18024 6.53575C4.12921 6.52846 4.07724 6.53138 4.02734 6.54435C3.97745 6.55732 3.93063 6.58009 3.88962 6.61132C3.8486 6.64254 3.8142 6.68162 3.78842 6.72626C3.76264 6.77091 3.746 6.82023 3.73945 6.87137C3.73291 6.9225 3.7366 6.97443 3.7503 7.02412C3.76401 7.07382 3.78746 7.1203 3.81929 7.16085C3.85112 7.2014 3.8907 7.23522 3.93572 7.26034L4.82299 7.77269C4.86725 7.79912 4.91632 7.8165 4.96735 7.82379C5.01839 7.83109 5.07036 7.82817 5.12026 7.81519C5.17015 7.80222 5.21697 7.77946 5.25798 7.74823C5.299 7.717 5.3334 7.67793 5.35918 7.63328C5.38496 7.58864 5.4016 7.53931 5.40814 7.48818C5.41469 7.43704 5.411 7.38512 5.39729 7.33542C5.38359 7.28572 5.36014 7.23925 5.32831 7.19869C5.29648 7.15814 5.2569 7.12432 5.21188 7.09921V7.09905ZM12.7686 10.7692C12.7503 10.6798 12.7024 10.5992 12.6326 10.5404C12.5628 10.4817 12.4752 10.4482 12.384 10.4454L10.9037 10.45C10.8527 10.45 10.8021 10.4602 10.755 10.4798C10.7078 10.4994 10.665 10.5281 10.6289 10.5643C10.5561 10.6373 10.5153 10.7363 10.5154 10.8394C10.5156 10.9426 10.5567 11.0414 10.6297 11.1142C10.7028 11.1871 10.8017 11.2279 10.9049 11.2277H10.906L11.5666 11.2257C10.5147 12.3616 9.07722 13.0647 7.5348 13.1974C5.99239 13.3302 4.45587 12.8832 3.22538 11.9438C1.99489 11.0043 1.15882 9.63989 0.880473 8.117C0.602127 6.59411 0.901501 5.02214 1.72012 3.70817C1.74719 3.66486 1.76546 3.61664 1.77389 3.56628C1.78233 3.51591 1.78076 3.46437 1.76927 3.41461C1.75779 3.36485 1.73662 3.31783 1.70696 3.27625C1.67731 3.23467 1.63976 3.19934 1.59645 3.17227C1.55314 3.14521 1.50493 3.12693 1.45456 3.1185C1.40419 3.11007 1.35265 3.11164 1.30289 3.12312C1.25313 3.1346 1.20612 3.15578 1.16454 3.18543C1.12296 3.21508 1.08762 3.25263 1.06056 3.29594C0.138088 4.77493 -0.199363 6.5449 0.114225 8.25955C0.427812 9.9742 1.36987 11.5102 2.7561 12.5669C4.14232 13.6237 5.87297 14.1252 7.60943 13.9734C9.3459 13.8215 10.9632 13.0273 12.145 11.746L12.2524 12.38C12.2678 12.4705 12.3146 12.5527 12.3847 12.6119C12.4548 12.6712 12.5436 12.7038 12.6354 12.7038C12.6573 12.7039 12.6792 12.702 12.7009 12.6983C12.7512 12.6897 12.7994 12.6714 12.8427 12.6442C12.8859 12.6171 12.9234 12.5817 12.953 12.54C12.9826 12.4984 13.0036 12.4514 13.015 12.4016C13.0264 12.3518 13.0279 12.3002 13.0194 12.2499L12.7686 10.7692ZM7.00128 2.4539e-05C5.43995 -0.00412538 3.92281 0.518196 2.69494 1.48261L2.69665 0.864662C2.69679 0.813581 2.68685 0.762974 2.66743 0.715733C2.648 0.668491 2.61945 0.625539 2.58342 0.589332C2.54739 0.553124 2.50458 0.524369 2.45743 0.504711C2.41028 0.485052 2.35972 0.474874 2.30864 0.474759H2.30763C2.20467 0.474758 2.10591 0.515588 2.03301 0.588296C1.96011 0.661003 1.91901 0.759653 1.91874 0.862614L1.91469 2.34326C1.91642 2.43649 1.95076 2.52617 2.01175 2.5967C2.07274 2.66724 2.15652 2.71417 2.24852 2.72935L3.72875 2.94104C3.74717 2.94354 3.76574 2.9448 3.78433 2.94482C3.88281 2.9449 3.97764 2.90762 4.0497 2.84051C4.12176 2.7734 4.16568 2.68145 4.17259 2.58322C4.1795 2.48499 4.14888 2.3878 4.08693 2.31126C4.02498 2.23472 3.93629 2.18453 3.83878 2.17082L3.19464 2.07886C4.28674 1.23518 5.62827 0.778392 7.00829 0.780328C8.38832 0.782264 9.72856 1.24281 10.8183 2.08956C11.908 2.9363 12.6854 4.12122 13.0282 5.45798C13.371 6.79475 13.2599 8.20754 12.7121 9.47422C12.6908 9.52123 12.6791 9.57201 12.6776 9.62361C12.6761 9.67521 12.6849 9.72659 12.7034 9.77475C12.722 9.82292 12.7499 9.86691 12.7857 9.90415C12.8214 9.9414 12.8642 9.97116 12.9116 9.99169C12.9589 10.0122 13.0099 10.0231 13.0615 10.0238C13.1131 10.0244 13.1644 10.0147 13.2122 9.99537C13.2601 9.97601 13.3036 9.94731 13.3402 9.91095C13.3769 9.87459 13.4059 9.8313 13.4256 9.7836C13.8864 8.71836 14.0751 7.55531 13.975 6.39903C13.8748 5.24275 13.4889 4.12949 12.8518 3.15933C12.2148 2.18918 11.3466 1.39256 10.3254 0.841099C9.30416 0.289633 8.16189 0.000613188 7.00128 2.4539e-05V2.4539e-05Z" fill="#1A160C"/>
</svg>
