<svg width="14" height="14" viewBox="0 0 14 14" fill="none" xmlns="http://www.w3.org/2000/svg">
<path d="M3.14965 13.918C3.25564 14.0264 3.4282 14.0276 3.53558 13.9202L4.86131 12.5951C5.08654 12.3666 5.15502 12.0283 5.05598 11.7342L5.34115 11.4551C5.49468 11.3047 5.69683 11.2217 5.91052 11.2217H9.54571C10.1906 11.2217 10.8002 10.9705 11.2623 10.5142C11.2813 10.4954 11.1179 10.6907 13.7423 7.50837C14.1315 7.04115 14.0733 6.33956 13.6123 5.94421C13.1543 5.55255 12.4681 5.60881 12.0778 6.06801L10.4643 7.75065C10.2605 7.49623 9.94979 7.33763 9.61409 7.33763H6.56484C6.13095 7.15346 5.67055 7.06023 5.19552 7.06023C3.87876 7.06023 2.72901 7.67726 2.11198 8.83415C1.85202 8.78417 1.57786 8.86396 1.38062 9.06407L0.0797866 10.3878C-0.0264172 10.4959 -0.0266309 10.6707 0.0793592 10.7791L3.14965 13.918ZM5.19541 7.61504C5.61424 7.61504 6.01919 7.70057 6.39923 7.86925C6.43385 7.88464 6.47114 7.89255 6.50886 7.89255H9.61409C9.91058 7.89255 10.161 8.13787 10.161 8.44736C10.161 8.75339 9.91571 9.00228 9.61409 9.00228H7.38306C7.23209 9.00228 7.10964 9.12651 7.10964 9.27969C7.10964 9.43297 7.23209 9.55709 7.38306 9.55709H9.61409C10.2172 9.55709 10.7079 9.0593 10.7079 8.44736C10.7079 8.39858 10.7044 8.35023 10.6982 8.30232C12.2591 6.67442 12.4792 6.44569 12.4886 6.4343C12.6835 6.20091 13.0295 6.17132 13.2596 6.36818C13.49 6.5658 13.5192 6.91659 13.3237 7.15129L10.8711 10.1261C10.513 10.4749 10.0427 10.6669 9.54571 10.6669H5.91052C5.5543 10.6669 5.2171 10.8051 4.96131 11.0559L4.72893 11.2834L2.58669 9.11003C3.08736 8.15706 4.02685 7.61504 5.19541 7.61504V7.61504ZM1.76762 9.45617C1.85779 9.36467 1.99626 9.3482 2.10621 9.41714C2.15354 9.44641 2.01763 9.32088 4.47464 11.8103C4.58394 11.9212 4.57806 12.0979 4.47613 12.2013L3.34593 13.331L0.659099 10.5841L1.76762 9.45617Z" fill="#333333"/>
<path d="M11.4901 3.19369C11.4922 2.60765 11.3059 2.03645 10.9586 1.56439C10.6113 1.09234 10.1214 0.744444 9.5613 0.572064C9.53257 0.563692 9.5017 0.566936 9.47534 0.581097C9.44898 0.595259 9.42923 0.619206 9.42035 0.647783C9.41147 0.676361 9.41416 0.707283 9.42785 0.733893C9.44154 0.760503 9.46513 0.780674 9.49355 0.790063C12.0777 1.62688 11.7146 5.34 9.04605 5.69181L9.2663 5.47819C9.28736 5.45697 9.29925 5.42833 9.29942 5.39843C9.29959 5.36853 9.28802 5.33976 9.2672 5.3183C9.24639 5.29684 9.21798 5.28441 9.18809 5.28367C9.1582 5.28294 9.12922 5.29396 9.10736 5.31436L8.66559 5.74288C8.64515 5.76422 8.63341 5.79242 8.63267 5.82196C8.63193 5.8515 8.64224 5.88025 8.66158 5.90259L9.08096 6.35307C9.09118 6.36403 9.10345 6.37287 9.11709 6.37909C9.13072 6.38531 9.14544 6.38878 9.16042 6.38931C9.17539 6.38984 9.19033 6.38741 9.20436 6.38217C9.2184 6.37692 9.23127 6.36897 9.24223 6.35875C9.25319 6.34853 9.26203 6.33626 9.26825 6.32263C9.27447 6.30899 9.27794 6.29427 9.27847 6.27929C9.279 6.26432 9.27657 6.24939 9.27132 6.23535C9.26608 6.22131 9.25813 6.20844 9.24791 6.19748L8.99584 5.92675C9.67721 5.86346 10.3105 5.54826 10.7717 5.04281C11.233 4.53735 11.4892 3.87799 11.4901 3.19369V3.19369Z" fill="#333333"/>
<path d="M7.96153 5.58619C5.40951 4.71638 5.79471 1.04189 8.44616 0.695312L8.22511 0.909652C8.20404 0.930873 8.19215 0.959512 8.19197 0.989413C8.1918 1.01931 8.20337 1.04809 8.22419 1.06955C8.24501 1.09101 8.27342 1.10345 8.30331 1.10418C8.3332 1.10491 8.36219 1.09389 8.38404 1.07348L8.82594 0.644954C8.84737 0.624152 8.85979 0.595778 8.86054 0.56592C8.86129 0.536062 8.85031 0.5071 8.82995 0.485247L8.41056 0.0347672C8.38977 0.0132808 8.36138 0.000810627 8.33149 3.81431e-05C8.30161 -0.000734341 8.27261 0.0102525 8.25074 0.0306364C8.22887 0.0510202 8.21587 0.079173 8.21454 0.109041C8.2132 0.138909 8.22365 0.168107 8.24362 0.190357L8.49519 0.460568C7.86627 0.518082 7.27641 0.790688 6.82506 1.23243C6.3737 1.67417 6.08846 2.25803 6.01743 2.88557C5.94639 3.51311 6.0939 4.14595 6.43509 4.67741C6.77627 5.20886 7.29027 5.60643 7.89043 5.80307C7.91901 5.81184 7.94989 5.80905 7.97643 5.7953C8.00297 5.78154 8.02306 5.75792 8.03238 5.72951C8.04169 5.70111 8.03949 5.67018 8.02624 5.64338C8.01299 5.61658 7.98976 5.59604 7.96153 5.58619V5.58619Z" fill="#333333"/>
<path d="M7.16605 1.89184V4.49597C7.16612 4.56937 7.19531 4.63975 7.24722 4.69165C7.29912 4.74355 7.3695 4.77274 7.4429 4.77281H10.047C10.1204 4.77274 10.1908 4.74355 10.2427 4.69165C10.2946 4.63975 10.3238 4.56937 10.3239 4.49597V1.89184C10.3238 1.81843 10.2946 1.74806 10.2427 1.69615C10.1908 1.64425 10.1204 1.61506 10.047 1.61499H7.4429C7.3695 1.61506 7.29912 1.64425 7.24722 1.69615C7.19531 1.74806 7.16612 1.81843 7.16605 1.89184V1.89184ZM10.0956 1.89184V4.49597C10.0957 4.50237 10.0945 4.50871 10.092 4.51463C10.0896 4.52056 10.086 4.52594 10.0815 4.53046C10.077 4.53499 10.0716 4.53856 10.0657 4.54098C10.0598 4.5434 10.0534 4.54462 10.047 4.54456H7.4429C7.4365 4.54462 7.43016 4.5434 7.42423 4.54098C7.41831 4.53856 7.41293 4.53499 7.40841 4.53046C7.40388 4.52594 7.4003 4.52056 7.39788 4.51463C7.39546 4.50871 7.39425 4.50237 7.39431 4.49597V1.89184C7.39425 1.88544 7.39546 1.87909 7.39788 1.87317C7.4003 1.86725 7.40388 1.86187 7.40841 1.85734C7.41293 1.85282 7.41831 1.84924 7.42423 1.84682C7.43016 1.8444 7.4365 1.84318 7.4429 1.84324H8.75856V2.60255C8.75906 2.63812 8.77016 2.67274 8.79043 2.70198C8.8107 2.73121 8.83922 2.75374 8.87236 2.76669C8.9055 2.77963 8.94174 2.7824 8.97646 2.77464C9.01118 2.76688 9.0428 2.74895 9.06728 2.72313L9.24727 2.5281L9.42726 2.72325C9.45156 2.74953 9.48321 2.76787 9.51809 2.77589C9.55297 2.78391 9.58945 2.78123 9.62278 2.76819C9.65612 2.75516 9.68475 2.73239 9.70494 2.70284C9.72513 2.67329 9.73595 2.63834 9.73598 2.60255V1.84324H10.047C10.0534 1.84318 10.0598 1.84439 10.0657 1.84681C10.0716 1.84924 10.077 1.85281 10.0815 1.85734C10.0861 1.86186 10.0896 1.86724 10.0921 1.87317C10.0945 1.87909 10.0957 1.88544 10.0956 1.89184H10.0956ZM8.98681 1.84324H9.50773V2.47382L9.37811 2.33329C9.361 2.31597 9.34063 2.30222 9.31817 2.29284C9.29571 2.28345 9.27161 2.27862 9.24727 2.27862C9.22293 2.27862 9.19883 2.28345 9.17637 2.29284C9.1539 2.30222 9.13353 2.31597 9.11642 2.33329L8.98681 2.47372L8.98681 1.84324Z" fill="#333333"/>
<path d="M7.86988 3.79923H8.3714C8.40167 3.79923 8.4307 3.78721 8.4521 3.76581C8.4735 3.7444 8.48553 3.71538 8.48553 3.68511C8.48553 3.65484 8.4735 3.62581 8.4521 3.60441C8.4307 3.58301 8.40167 3.57098 8.3714 3.57098H7.86988C7.84 3.57157 7.81153 3.58385 7.79061 3.60519C7.76968 3.62652 7.75796 3.65522 7.75796 3.68511C7.75796 3.715 7.76968 3.74369 7.79061 3.76503C7.81153 3.78637 7.84 3.79865 7.86988 3.79923V3.79923Z" fill="#333333"/>
<path d="M8.87281 4.12372H7.86987C7.83999 4.1243 7.81153 4.13658 7.7906 4.15792C7.76968 4.17926 7.75796 4.20796 7.75796 4.23785C7.75796 4.26773 7.76968 4.29643 7.79061 4.31777C7.81154 4.33911 7.84 4.35139 7.86988 4.35197H8.87281C8.90269 4.35138 8.93115 4.33911 8.95208 4.31777C8.97301 4.29643 8.98473 4.26773 8.98473 4.23784C8.98473 4.20796 8.97301 4.17926 8.95208 4.15792C8.93116 4.13658 8.90269 4.1243 8.87281 4.12372Z" fill="#333333"/>
</svg>
