<svg width="15" height="14" viewBox="0 0 15 14" fill="none" xmlns="http://www.w3.org/2000/svg">
<path d="M8.99229 5.90391L7.29132 7.60488L6.98975 7.30331C6.89823 7.21492 6.75276 7.21619 6.66279 7.30615C6.57283 7.39612 6.57156 7.54159 6.65995 7.6331L7.12642 8.09957C7.2175 8.19062 7.36513 8.19062 7.45621 8.09957L9.32208 6.2337C9.41047 6.14219 9.4092 5.99672 9.31924 5.90675C9.22927 5.81679 9.0838 5.81552 8.99229 5.90391V5.90391Z" fill="#1A160C"/>
<path d="M11.7227 7.46823C11.7113 7.46823 11.7013 7.46823 11.6903 7.46823C11.8429 6.32338 11.4533 5.17281 10.6367 4.35612C9.81997 3.53943 8.6694 3.14988 7.52455 3.30245C7.52455 3.29149 7.52455 3.28146 7.52455 3.27003C7.52662 1.74543 6.47337 0.42232 4.98713 0.0824779C3.50089 -0.257364 1.97729 0.476529 1.31657 1.85053C0.65586 3.22452 1.03391 4.87286 2.22736 5.8216C2.23109 5.82557 2.23645 5.82767 2.24042 5.8314C2.53683 6.06628 2.87185 6.2478 3.23049 6.36784C3.23516 6.36993 3.24005 6.37133 3.24495 6.3732C3.57233 6.48065 3.91472 6.53537 4.25928 6.5353H4.2917C4.13913 7.68015 4.52868 8.83072 5.34537 9.6474C6.16206 10.4641 7.31263 10.8536 8.45748 10.7011V10.7335C8.45798 11.7276 8.91211 12.6671 9.69082 13.2851C9.69455 13.289 9.69991 13.2911 9.70388 13.2949C10.0003 13.5297 10.3353 13.7113 10.694 13.8313C10.6986 13.8334 10.7035 13.8348 10.7084 13.8367C11.3673 14.0544 12.0787 14.0544 12.7375 13.8367C12.7424 13.8348 12.7473 13.8334 12.752 13.8313C13.1106 13.7113 13.4455 13.5298 13.7418 13.2949C13.746 13.2911 13.7514 13.289 13.7551 13.2851C14.8422 12.4217 15.2639 10.965 14.806 9.65443C14.3481 8.34391 13.111 7.46671 11.7227 7.46823V7.46823ZM11.7227 11.2C11.3425 11.2022 10.9852 11.0179 10.7666 10.7068C10.5479 10.3957 10.4956 9.99713 10.6265 9.6401C10.8071 9.45899 10.9685 9.25985 11.1084 9.04582C11.2922 8.92943 11.5052 8.86763 11.7227 8.86763C12.3668 8.86763 12.8889 9.38974 12.8889 10.0338C12.8889 10.6779 12.3668 11.2 11.7227 11.2V11.2ZM1.46048 3.27003C1.46048 1.7243 2.71355 0.471234 4.25928 0.471234C5.80502 0.471234 7.05808 1.7243 7.05808 3.27003C7.05808 3.31365 7.05668 3.354 7.05505 3.39365C6.56234 3.52159 6.10118 3.74943 5.7002 4.06302C5.57439 3.968 5.43519 3.89215 5.28714 3.83795C5.82457 3.40271 6.02947 2.67608 5.79861 2.02419C5.56774 1.3723 4.9512 0.936578 4.25963 0.936578C3.56807 0.936578 2.95152 1.3723 2.72066 2.02419C2.48979 2.67608 2.6947 3.40271 3.23212 3.83795C2.66972 4.04491 2.26557 4.54293 2.17884 5.1359C1.71668 4.62431 1.46072 3.95947 1.46048 3.27003V3.27003ZM3.09312 2.57033C3.09312 1.92628 3.61523 1.40417 4.25928 1.40417C4.90334 1.40417 5.42545 1.92628 5.42545 2.57033C5.42545 3.21439 4.90334 3.7365 4.25928 3.7365C3.61555 3.73573 3.09389 3.21407 3.09312 2.57033ZM4.25928 6.06883C4.02308 6.06795 3.78796 6.037 3.55958 5.9767V5.36913C3.55958 5.24032 3.45516 5.1359 3.32635 5.1359C3.19754 5.1359 3.09312 5.24032 3.09312 5.36913V5.81227C2.92921 5.73672 2.77299 5.64549 2.62665 5.53986V5.36913C2.62742 4.72539 3.14908 4.20374 3.79282 4.20296H4.72575C4.94292 4.20275 5.1557 4.26414 5.33939 4.37999C4.87761 4.84781 4.54771 5.4294 4.38313 6.0658C4.34301 6.06743 4.30266 6.06883 4.25928 6.06883V6.06883ZM4.72575 7.00176C4.72575 5.19841 6.18766 3.7365 7.99101 3.7365C9.79437 3.7365 11.2563 5.19841 11.2563 7.00176C11.2563 8.80512 9.79437 10.267 7.99101 10.267C6.18846 10.2651 4.72768 8.80432 4.72575 7.00176ZM8.92395 10.7335C8.92395 10.6899 8.92535 10.6495 8.92698 10.6099C9.34332 10.5031 9.73792 10.3248 10.0931 10.0828C10.1072 10.5574 10.3275 11.0023 10.6965 11.3012C10.1337 11.5079 9.72912 12.0061 9.64231 12.5994C9.18014 12.0878 8.92418 11.4229 8.92395 10.7335ZM11.023 13.439V12.8326C11.023 12.7038 10.9186 12.5994 10.7898 12.5994C10.661 12.5994 10.5566 12.7038 10.5566 12.8326V13.2757C10.3927 13.2002 10.2365 13.109 10.0901 13.0033V12.8326C10.0909 12.1889 10.6125 11.6672 11.2563 11.6664H12.1892C12.8329 11.6672 13.3546 12.1889 13.3554 12.8326V13.0022C13.2091 13.1082 13.0529 13.1998 12.8889 13.2757V12.8326C12.8889 12.7038 12.7845 12.5994 12.6557 12.5994C12.5269 12.5994 12.4224 12.7038 12.4224 12.8326V13.439C11.9641 13.5618 11.4814 13.5618 11.023 13.439ZM13.8032 12.5994C13.7164 12.0061 13.3118 11.5079 12.749 11.3012C13.2851 10.8658 13.4893 10.1402 13.2589 9.48915C13.0285 8.83808 12.4134 8.40241 11.7227 8.40116C11.6272 8.40193 11.5319 8.41122 11.438 8.42892C11.503 8.26912 11.5569 8.10499 11.5991 7.93773C11.639 7.9361 11.6794 7.9347 11.7227 7.9347C12.8274 7.9328 13.8294 8.58186 14.2794 9.59071C14.7293 10.5996 14.5427 11.7788 13.8032 12.5994V12.5994Z" fill="#1A160C"/>
<path d="M9.32208 0.306325C9.231 0.215275 9.08336 0.215275 8.99228 0.306325L8.29258 1.00602C8.20153 1.0971 8.20153 1.24474 8.29258 1.33582L8.99228 2.03552C9.0838 2.1239 9.22927 2.12264 9.31923 2.03267C9.4092 1.94271 9.41046 1.79724 9.32208 1.70572L9.03193 1.41558C11.9835 1.59909 14.2845 4.04447 14.2883 7.00175C14.2883 7.13056 14.3927 7.23498 14.5215 7.23498C14.6504 7.23498 14.7548 7.13056 14.7548 7.00175C14.751 3.77901 12.2299 1.12075 9.01188 0.946316L9.32208 0.636116C9.41313 0.545039 9.41313 0.397402 9.32208 0.306325V0.306325Z" fill="#1A160C"/>
<path d="M1.69372 7.00179C1.69372 6.87298 1.5893 6.76855 1.46048 6.76855C1.33167 6.76855 1.22725 6.87298 1.22725 7.00179C1.23107 10.2245 3.75213 12.8828 6.97015 13.0572L6.65995 13.3674C6.59932 13.426 6.575 13.5127 6.59635 13.5942C6.61769 13.6758 6.68138 13.7395 6.76292 13.7608C6.84447 13.7822 6.93118 13.7578 6.98974 13.6972L7.68944 12.9975C7.78049 12.9064 7.78049 12.7588 7.68944 12.6677L6.98974 11.968C6.89823 11.8796 6.75276 11.8809 6.66279 11.9709C6.57283 12.0608 6.57156 12.2063 6.65995 12.2978L6.95009 12.588C3.99851 12.4045 1.6975 9.95907 1.69372 7.00179V7.00179Z" fill="#1A160C"/>
</svg>
