<svg width="20" height="21" viewBox="0 0 20 21" fill="none" xmlns="http://www.w3.org/2000/svg">
<path d="M10 10C12.7614 10 15 7.76142 15 5C15 2.23858 12.7614 0 10 0C7.23858 0 5 2.23858 5 5C5 7.76142 7.23858 10 10 10Z" fill="white"/>
<path opacity="0.4" d="M9.99994 12.5C4.98994 12.5 0.909912 15.86 0.909912 20C0.909912 20.28 1.12991 20.5 1.40991 20.5H18.59C18.87 20.5 19.09 20.28 19.09 20C19.09 15.86 15.0099 12.5 9.99994 12.5Z" fill="white"/>
<path d="M19.43 12.7398C18.53 11.8398 17.8201 12.1298 17.2101 12.7398L13.67 16.2799C13.53 16.4199 13.4 16.6798 13.37 16.8698L13.18 18.2198C13.11 18.7098 13.45 19.0498 13.94 18.9798L15.29 18.7898C15.48 18.7598 15.75 18.6298 15.88 18.4898L19.42 14.9499C20.04 14.3499 20.33 13.6398 19.43 12.7398Z" fill="white"/>
</svg>
