<svg width="20" height="20" viewBox="0 0 20 20" fill="none" xmlns="http://www.w3.org/2000/svg">
<path d="M14.5 3.00001C13.6195 2.99931 12.7554 3.2378 12 3.69001C11.4523 2.4328 10.4904 1.40115 9.27454 0.766865C8.05869 0.132578 6.66226 -0.0660709 5.31776 0.203997C3.97327 0.474065 2.76186 1.19655 1.88526 2.25115C1.00866 3.30574 0.519767 4.6288 0.5 6.00001V10C0.501436 11.4169 1.00425 12.7875 1.91939 13.8692C2.83452 14.9509 4.10294 15.6739 5.5 15.91V19C5.5 19.2652 5.60536 19.5196 5.79289 19.7071C5.98043 19.8947 6.23478 20 6.5 20C6.76522 20 7.01957 19.8947 7.20711 19.7071C7.39464 19.5196 7.5 19.2652 7.5 19V15.91C8.51873 15.7332 9.47554 15.2996 10.28 14.65C10.637 15.223 11.1064 15.7178 11.6598 16.1045C12.2132 16.4912 12.8392 16.7618 13.5 16.9V19C13.5 19.2652 13.6054 19.5196 13.7929 19.7071C13.9804 19.8947 14.2348 20 14.5 20C14.7652 20 15.0196 19.8947 15.2071 19.7071C15.3946 19.5196 15.5 19.2652 15.5 19V16.9C16.6294 16.6695 17.6444 16.0558 18.3733 15.1629C19.1022 14.27 19.5002 13.1527 19.5 12V8.00001C19.5 6.67393 18.9732 5.40216 18.0355 4.46448C17.0979 3.52679 15.8261 3.00001 14.5 3.00001ZM9.5 8.00001V12C9.50957 12.191 9.5296 12.3812 9.56 12.57C9.02519 13.207 8.30512 13.6614 7.5 13.87V11C7.5 10.7348 7.39464 10.4804 7.20711 10.2929C7.01957 10.1054 6.76522 10 6.5 10C6.23478 10 5.98043 10.1054 5.79289 10.2929C5.60536 10.4804 5.5 10.7348 5.5 11V13.86C4.64353 13.6389 3.88451 13.1401 3.34169 12.4417C2.79887 11.7432 2.50287 10.8846 2.5 10V6.00001C2.49739 5.20758 2.73022 4.43222 3.16894 3.77231C3.60766 3.1124 4.2325 2.59767 4.9642 2.29342C5.69591 1.98916 6.5015 1.9091 7.27877 2.06339C8.05604 2.21767 8.76998 2.59935 9.33 3.16001C9.87135 3.70865 10.2399 4.40401 10.39 5.16001C9.81193 5.99439 9.50151 6.98495 9.5 8.00001ZM17.5 12C17.4983 12.619 17.3051 13.2222 16.9471 13.7271C16.589 14.2319 16.0835 14.6137 15.5 14.82V11C15.5 10.7348 15.3946 10.4804 15.2071 10.2929C15.0196 10.1054 14.7652 10 14.5 10C14.2348 10 13.9804 10.1054 13.7929 10.2929C13.6054 10.4804 13.5 10.7348 13.5 11V14.82C12.9165 14.6137 12.411 14.2319 12.0529 13.7271C11.6949 13.2222 11.5017 12.619 11.5 12V8.00001C11.5 7.20436 11.8161 6.4413 12.3787 5.87869C12.9413 5.31608 13.7044 5.00001 14.5 5.00001C15.2956 5.00001 16.0587 5.31608 16.6213 5.87869C17.1839 6.4413 17.5 7.20436 17.5 8.00001V12Z" fill="#1A160C"/>
</svg>
