<svg width="20" height="20" viewBox="0 0 20 20" fill="none" xmlns="http://www.w3.org/2000/svg">
<path d="M6.71 5.70999L9 3.40999V13C9 13.2652 9.10536 13.5196 9.29289 13.7071C9.48043 13.8946 9.73478 14 10 14C10.2652 14 10.5196 13.8946 10.7071 13.7071C10.8946 13.5196 11 13.2652 11 13V3.40999L13.29 5.70999C13.383 5.80372 13.4936 5.87811 13.6154 5.92888C13.7373 5.97965 13.868 6.00579 14 6.00579C14.132 6.00579 14.2627 5.97965 14.3846 5.92888C14.5064 5.87811 14.617 5.80372 14.71 5.70999C14.8037 5.61703 14.8781 5.50642 14.9289 5.38456C14.9797 5.26271 15.0058 5.132 15.0058 4.99999C15.0058 4.86798 14.9797 4.73727 14.9289 4.61541C14.8781 4.49355 14.8037 4.38295 14.71 4.28999L10.71 0.289988C10.6149 0.198947 10.5028 0.127582 10.38 0.0799879C10.1365 -0.0200301 9.86346 -0.0200301 9.62 0.0799879C9.49725 0.127582 9.3851 0.198947 9.29 0.289988L5.29 4.28999C5.19676 4.38323 5.1228 4.49392 5.07234 4.61574C5.02188 4.73756 4.99591 4.86813 4.99591 4.99999C4.99591 5.13185 5.02188 5.26242 5.07234 5.38424C5.1228 5.50606 5.19676 5.61675 5.29 5.70999C5.38324 5.80323 5.49393 5.87719 5.61575 5.92765C5.73757 5.97811 5.86814 6.00408 6 6.00408C6.13186 6.00408 6.26243 5.97811 6.38425 5.92765C6.50607 5.87719 6.61676 5.80323 6.71 5.70999ZM19 12C18.7348 12 18.4804 12.1053 18.2929 12.2929C18.1054 12.4804 18 12.7348 18 13V17C18 17.2652 17.8946 17.5196 17.7071 17.7071C17.5196 17.8946 17.2652 18 17 18H3C2.73478 18 2.48043 17.8946 2.29289 17.7071C2.10536 17.5196 2 17.2652 2 17V13C2 12.7348 1.89464 12.4804 1.70711 12.2929C1.51957 12.1053 1.26522 12 1 12C0.734784 12 0.48043 12.1053 0.292893 12.2929C0.105357 12.4804 0 12.7348 0 13V17C0 17.7956 0.316071 18.5587 0.87868 19.1213C1.44129 19.6839 2.20435 20 3 20H17C17.7956 20 18.5587 19.6839 19.1213 19.1213C19.6839 18.5587 20 17.7956 20 17V13C20 12.7348 19.8946 12.4804 19.7071 12.2929C19.5196 12.1053 19.2652 12 19 12Z" fill="#1A160C"/>
</svg>
