<svg width="20" height="16" viewBox="0 0 20 16" fill="none" xmlns="http://www.w3.org/2000/svg">
<path d="M19 5H18.2C18.0966 4.55129 17.921 4.12237 17.68 3.73L18.24 3.17C18.4038 2.9787 18.4894 2.73262 18.4797 2.48095C18.47 2.22927 18.3657 1.99053 18.1876 1.81244C18.0095 1.63434 17.7707 1.53001 17.5191 1.52029C17.2674 1.51057 17.0213 1.59617 16.83 1.76L16.27 2.32C15.8776 2.07901 15.4487 1.90339 15 1.8V1C15 0.734784 14.8946 0.48043 14.7071 0.292893C14.5196 0.105357 14.2652 0 14 0C13.7348 0 13.4804 0.105357 13.2929 0.292893C13.1054 0.48043 13 0.734784 13 1V1.8C12.5539 1.90181 12.128 2.07758 11.74 2.32L11.17 1.76C10.9787 1.59617 10.7326 1.51057 10.4809 1.52029C10.2293 1.53001 9.99053 1.63434 9.81244 1.81244C9.63434 1.99053 9.53001 2.22927 9.52029 2.48095C9.51057 2.73262 9.59618 2.9787 9.76 3.17L10.32 3.74C10.23 3.89 10.16 4.06 10.08 4.22C9.56585 4.07487 9.03424 4.00084 8.5 4C7.05886 3.99918 5.66556 4.5171 4.57487 5.45906C3.48418 6.40102 2.76897 7.70409 2.56 9.13C1.74619 9.35821 1.04245 9.8732 0.578765 10.5799C0.115075 11.2865 -0.0772402 12.1371 0.0373383 12.9745C0.151917 13.8119 0.565649 14.5795 1.20212 15.1356C1.83859 15.6918 2.6548 15.9988 3.5 16H12.67C13.8184 16 14.9197 15.5438 15.7318 14.7318C16.5438 13.9197 17 12.8184 17 11.67C16.9991 11.139 16.8973 10.613 16.7 10.12L16.83 10.24C17.0163 10.4247 17.2677 10.5289 17.53 10.53C17.6616 10.5308 17.7921 10.5055 17.9139 10.4558C18.0357 10.406 18.1466 10.3327 18.24 10.24C18.4263 10.0526 18.5308 9.79919 18.5308 9.535C18.5308 9.27081 18.4263 9.01736 18.24 8.83L17.68 8.27C17.921 7.87763 18.0966 7.44871 18.2 7H19C19.2652 7 19.5196 6.89464 19.7071 6.70711C19.8946 6.51957 20 6.26522 20 6C20 5.73478 19.8946 5.48043 19.7071 5.29289C19.5196 5.10536 19.2652 5 19 5ZM12.67 14H3.5C3.10218 14 2.72065 13.842 2.43934 13.5607C2.15804 13.2794 2 12.8978 2 12.5C2 12.1022 2.15804 11.7206 2.43934 11.4393C2.72065 11.158 3.10218 11 3.5 11C3.76522 11 4.01957 10.8946 4.20711 10.7071C4.39464 10.5196 4.5 10.2652 4.5 10C4.50429 9.0557 4.84253 8.14336 5.45484 7.42447C6.06715 6.70558 6.91406 6.22651 7.84566 6.07204C8.77725 5.91757 9.73345 6.09767 10.545 6.58047C11.3566 7.06326 11.9712 7.81761 12.28 8.71C12.3372 8.88184 12.4399 9.03493 12.5773 9.15293C12.7147 9.27094 12.8815 9.34942 13.06 9.38C13.6276 9.48612 14.1356 9.79923 14.4854 10.2586C14.8353 10.718 15.0021 11.2909 14.9535 11.8663C14.905 12.4417 14.6445 12.9785 14.2225 13.3728C13.8006 13.767 13.2474 13.9905 12.67 14ZM15.67 7.65C15.4937 7.81586 15.2909 7.95106 15.07 8.05C14.7374 7.83346 14.3776 7.66197 14 7.54C13.5405 6.53676 12.8184 5.67641 11.91 5.05C12.0193 4.79349 12.1752 4.55951 12.37 4.36C12.8174 3.94532 13.405 3.71493 14.015 3.71493C14.625 3.71493 15.2126 3.94532 15.66 4.36C16.0889 4.8022 16.3287 5.394 16.3287 6.01C16.3287 6.626 16.0889 7.2178 15.66 7.66L15.67 7.65Z" fill="#1A160C"/>
</svg>
