<svg width="18" height="18" viewBox="0 0 18 18" fill="none" xmlns="http://www.w3.org/2000/svg">
<path fill-rule="evenodd" clip-rule="evenodd" d="M17.5585 0.394966C17.0319 -0.131656 16.1781 -0.131655 15.6515 0.394966L8.97634 7.0701L2.30219 0.395946C1.77557 -0.130676 0.921751 -0.130676 0.39513 0.395946C-0.131491 0.922567 -0.131492 1.77639 0.39513 2.30301L7.06928 8.97716L0.394966 15.6515C-0.131655 16.1781 -0.131655 17.0319 0.394966 17.5585C0.921587 18.0852 1.77541 18.0852 2.30203 17.5585L8.97634 10.8842L15.6516 17.5595C16.1783 18.0861 17.0321 18.0861 17.5587 17.5595C18.0853 17.0329 18.0853 16.1791 17.5587 15.6525L10.8834 8.97716L17.5585 2.30203C18.0852 1.77541 18.0852 0.921587 17.5585 0.394966Z" fill="#1A160C"/>
</svg>
