<svg width="91" height="34" viewBox="0 0 91 34" fill="none" xmlns="http://www.w3.org/2000/svg">
<g clip-path="url(#clip0_2053_26159)">
<path d="M60.6571 19.2227H50.7354L45.7422 25.7508H51.8015L55.6348 20.2715L59.5232 25.7508H65.6364L60.6571 19.2227Z" fill="#F0BA1B"/>
<path d="M60.2031 14.6062L65.2084 8.07812H59.4705L55.7706 13.178L52.0168 8.07812H46.0371L50.9262 14.6062H60.2031Z" fill="#F0BA1B"/>
<path d="M72.1778 19.2227H66.8691V25.7508H72.1778V19.2227Z" fill="#333333"/>
<path d="M72.1778 8.07812H66.8691V14.6062H72.1778V8.07812Z" fill="#333333"/>
<path d="M74.1875 8.2627V12.2255H79.9528V14.6061H85.2617V12.2255H90.9993V8.2627H74.1875Z" fill="#333333"/>
<path d="M85.2618 19.2227H79.9531V25.9354H85.2618V19.2227Z" fill="#333333"/>
<path d="M53.644 16.4004H50.9121V17.1218H53.644V16.4004Z" fill="#333333"/>
<path d="M58.9097 16.4004H56.1777V17.1218H58.9097V16.4004Z" fill="#333333"/>
<path d="M64.1733 16.4004H61.4414V17.1218H64.1733V16.4004Z" fill="#333333"/>
<path d="M69.439 16.4004H66.707V17.1218H69.439V16.4004Z" fill="#333333"/>
<path d="M74.7026 16.4004H71.9707V17.1218H74.7026V16.4004Z" fill="#333333"/>
<path d="M79.9663 16.4004H77.2344V17.1218H79.9663V16.4004Z" fill="#333333"/>
<path d="M85.2319 16.4004H82.5V17.1218H85.2319V16.4004Z" fill="#333333"/>
<path d="M42.6635 14.0845C42.6641 14.7467 42.8388 15.0714 43.2688 15.2095C43.7031 15.3493 44.0525 15.2037 44.482 14.7017V8.62324C44.2749 8.44547 44.0948 8.22173 43.8564 8.09764C38.7554 5.44675 33.6468 2.80941 28.5438 0.161707C28.1132 -0.0615031 27.7356 -0.0498112 27.3064 0.173134C22.2046 2.8219 17.098 5.46189 11.9891 8.09817C11.5712 8.31341 11.3691 8.61129 11.3824 9.06169C11.3971 9.58464 11.3855 10.1084 11.3855 10.6712H10.8462C7.86114 10.6712 4.87635 10.6707 1.89128 10.6712C1.54305 10.6712 1.1937 10.6592 0.846595 10.6792C0.360936 10.7063 0.0231471 11.0374 0.0011358 11.4748C-0.0214399 11.9361 0.294337 12.3036 0.786769 12.3711C0.935204 12.3912 1.089 12.383 1.24054 12.383C4.43754 12.3835 7.63482 12.3835 10.8318 12.3835H11.3468V15.4654C9.65675 15.4654 8.00562 15.4556 6.35506 15.4763C6.08697 15.4793 5.78277 15.5683 5.5635 15.711C5.24659 15.9174 5.20314 16.2701 5.32533 16.602C5.47009 16.9966 5.80421 17.1759 6.24105 17.1767C7.78692 17.1786 9.33251 17.1778 10.8778 17.1778H11.3463V21.6303C8.91401 21.6303 6.52014 21.6298 4.12684 21.6303C3.96006 21.6308 3.79159 21.6229 3.62764 21.6425C3.20321 21.6933 2.87925 22.0199 2.84454 22.4145C2.81096 22.7934 3.04857 23.1553 3.44618 23.2744C3.62876 23.3291 3.83223 23.3389 4.02638 23.3395C6.31442 23.344 8.60219 23.3424 10.8902 23.3424H11.3858C11.3858 23.8935 11.4064 24.3784 11.3804 24.8615C11.3525 25.3816 11.5833 25.7042 12.0681 25.9537C17.1412 28.5639 22.208 31.184 27.2694 33.8147C27.7306 34.0541 28.1228 34.065 28.5853 33.8245C33.6347 31.2034 38.693 28.5977 43.7395 25.972C44.0274 25.8224 44.2368 25.5394 44.4823 25.3181V21.0375C44.4518 20.9891 44.4219 20.9397 44.3906 20.8913C44.1242 20.484 43.7615 20.3306 43.3216 20.4404C42.9288 20.5376 42.6706 20.8647 42.6669 21.313C42.6584 22.2973 42.6762 23.2818 42.6511 24.2655C42.6474 24.422 42.519 24.6463 42.3779 24.7199C37.9695 27.0155 33.552 29.2968 29.1356 31.5786C29.06 31.6182 28.9779 31.6453 28.8435 31.7005V31.2403C28.8435 26.804 28.8472 22.3685 28.8356 17.9322C28.8345 17.621 28.929 17.4517 29.2259 17.304C30.4024 16.7178 31.5625 16.1029 32.7302 15.5003C32.8719 15.4277 33.0197 15.3658 33.2311 15.2677C33.2311 16.1805 33.2311 17.0308 33.2317 17.8814C33.2317 18.2093 33.2116 18.5394 33.2407 18.8652C33.3011 19.5393 33.9541 19.8975 34.5899 19.5829C35.7144 19.0257 36.8221 18.4384 37.9331 17.8572C38.2867 17.6726 38.4066 17.3694 38.4046 16.995C38.3967 15.6403 38.3953 14.2848 38.4108 12.9301C38.4128 12.7747 38.4927 12.543 38.6154 12.4773C39.9268 11.7734 41.2542 11.0964 42.6641 10.3669L42.6635 14.0845ZM27.0237 31.4364C27.0237 31.506 27.0152 31.5762 27.0084 31.6899C26.8648 31.6272 26.7429 31.5823 26.6291 31.5236C22.2667 29.2694 17.9056 27.0134 13.542 24.7611C13.3338 24.6535 13.1949 24.5576 13.1952 24.286C13.2073 19.7516 13.2037 15.217 13.2045 10.6826C13.2045 10.6021 13.2155 10.5221 13.2246 10.3972C13.3713 10.4645 13.478 10.5078 13.579 10.5601C17.9412 12.8151 22.3014 15.0722 26.6658 17.3229C26.8955 17.4409 27.033 17.549 27.0324 17.8325C27.0211 22.3672 27.0248 26.9015 27.0237 31.4364ZM28.1335 15.9143C28.0271 15.9685 27.8324 15.9626 27.7238 15.9068C23.2419 13.5958 18.7646 11.2755 14.287 8.9562C14.2743 8.94929 14.265 8.93707 14.2247 8.90093C15.3969 8.29348 16.5801 7.72456 17.7115 7.07485C18.288 6.74402 18.7152 6.76475 19.3039 7.07432C23.4491 9.25381 27.6185 11.3929 31.7795 13.5453C31.9212 13.6184 32.058 13.7 32.24 13.8017C30.8401 14.5253 29.4909 15.2276 28.1335 15.9143ZM34.2798 12.7261C34.1466 12.7803 33.9132 12.691 33.758 12.611C30.1614 10.7578 26.569 8.89747 22.9761 7.03792C22.1453 6.60824 21.314 6.17803 20.4064 5.70822C20.9085 5.44781 21.3337 5.21689 21.7723 5.00989C21.8547 4.97083 22.0062 5.00059 22.0971 5.04736C26.5671 7.35626 31.0331 9.67074 35.5 11.9847C35.5127 11.9911 35.522 12.0038 35.5897 12.0657C35.1272 12.3054 34.7183 12.5478 34.2798 12.7261ZM36.5828 15.4288C36.5828 16.7412 36.4778 16.8754 35.0502 17.3343C35.0502 16.3697 35.0445 15.4455 35.0575 14.5211C35.0592 14.4174 35.141 14.2713 35.2327 14.2184C35.6433 13.9848 36.0709 13.7773 36.5828 13.5142V15.4288ZM37.7457 10.9377C37.604 11.0079 37.3371 10.9608 37.1793 10.8801C34.2552 9.3811 31.3396 7.86938 28.4222 6.35978C26.8986 5.57164 25.3742 4.78376 23.8109 3.97515C23.9305 3.89995 24.0087 3.84282 24.0942 3.79844C25.2738 3.18648 26.4502 2.56972 27.6388 1.97343C27.7836 1.90089 28.0339 1.87458 28.168 1.94341C32.6306 4.23663 37.0845 6.5442 41.5398 8.85017C41.5655 8.86346 41.5844 8.88817 41.6442 8.94105C40.3252 9.62158 39.0432 10.2947 37.7457 10.9377Z" fill="#333333"/>
<path d="M44.4814 18.1267C44.4179 18.2006 44.3553 18.2747 44.2912 18.348C43.9365 18.7538 43.3222 18.7939 42.9384 18.437C42.5602 18.0852 42.578 17.5232 42.9782 17.1924C43.3797 16.8602 44.0008 16.9362 44.32 17.3595C44.3804 17.4398 44.4281 17.5283 44.4814 17.613C44.4814 17.7842 44.4814 17.9556 44.4814 18.1267Z" fill="#333333"/>
</g>
<defs>
<clipPath id="clip0_2053_26159">
<rect width="91" height="34" fill="white"/>
</clipPath>
</defs>
</svg>
