<svg width="154" height="60" viewBox="0 0 154 60" fill="none" xmlns="http://www.w3.org/2000/svg">
<g clip-path="url(#clip0_545_5581)">
<path d="M102.615 33.9219H85.8299L77.3828 45.4421H87.6335L94.1185 35.7727L100.697 45.4421H111.038L102.615 33.9219Z" fill="#F0BA1B"/>
<path d="M101.845 25.7752L110.313 14.255H100.606L94.3468 23.2547L87.9965 14.255H77.8804L86.1513 25.7752H101.845Z" fill="#F0BA1B"/>
<path d="M122.105 33.9219H113.125V45.4421H122.105V33.9219Z" fill="#333333"/>
<path d="M122.105 14.255H113.125V25.7752H122.105V14.255Z" fill="#333333"/>
<path d="M125.506 14.5809V21.5741H135.259V25.7752H144.24V21.5741H153.947V14.5809H125.506Z" fill="#333333"/>
<path d="M144.24 33.9219H135.259V45.768H144.24V33.9219Z" fill="#333333"/>
<path d="M90.7521 28.9419H86.1304V30.215H90.7521V28.9419Z" fill="#333333"/>
<path d="M99.6583 28.9419H95.0366V30.215H99.6583V28.9419Z" fill="#333333"/>
<path d="M108.565 28.9419H103.943V30.215H108.565V28.9419Z" fill="#333333"/>
<path d="M117.471 28.9419H112.849V30.215H117.471V28.9419Z" fill="#333333"/>
<path d="M126.377 28.9419H121.755V30.215H126.377V28.9419Z" fill="#333333"/>
<path d="M135.283 28.9419H130.661V30.215H135.283V28.9419Z" fill="#333333"/>
<path d="M144.189 28.9419H139.567V30.215H144.189V28.9419Z" fill="#333333"/>
<path d="M72.1756 24.8546C72.1766 26.0231 72.4721 26.5962 73.1996 26.84C73.9343 27.0867 74.5254 26.8297 75.252 25.9439V15.2171C74.9016 14.9034 74.597 14.5086 74.1936 14.2896C65.5641 9.61154 56.9218 4.95741 48.2889 0.285C47.5604 -0.108901 46.9217 -0.0882683 46.1955 0.305164C37.5647 4.97945 28.9256 9.63827 20.2828 14.2905C19.5758 14.6704 19.234 15.196 19.2564 15.9909C19.2812 16.9137 19.2616 17.838 19.2616 18.8312H18.3493C13.2994 18.8312 8.24996 18.8302 3.20003 18.8312C2.61092 18.8312 2.0199 18.8101 1.4327 18.8452C0.611094 18.8931 0.0396469 19.4773 0.00240975 20.2492C-0.0357822 21.0633 0.498427 21.7118 1.33149 21.8309C1.5826 21.8665 1.84278 21.852 2.09915 21.852C7.5076 21.8529 12.9165 21.8529 18.325 21.8529H19.1962V27.2916C16.3371 27.2916 13.5438 27.2742 10.7515 27.3108C10.298 27.316 9.78336 27.4731 9.41242 27.7249C8.8763 28.0892 8.80278 28.7115 9.0095 29.2972C9.25441 29.9936 9.81964 30.3101 10.5587 30.3115C13.1739 30.3148 15.7886 30.3134 18.4028 30.3134H19.1953V38.1708C15.0806 38.1708 11.0308 38.1698 6.98199 38.1708C6.69984 38.1717 6.41483 38.1576 6.13747 38.1923C5.41946 38.2819 4.8714 38.8582 4.81268 39.5546C4.75587 40.2233 5.15784 40.8619 5.8305 41.072C6.13938 41.1686 6.48358 41.186 6.81203 41.1869C10.6828 41.1949 14.5531 41.1921 18.4238 41.1921H19.2621C19.2621 42.1646 19.297 43.0204 19.2531 43.8729C19.2058 44.7906 19.5963 45.3599 20.4165 45.8002C28.9987 50.4065 37.5704 55.0302 46.133 59.6726C46.9131 60.0951 47.5767 60.1143 48.3591 59.6899C56.9012 55.0644 65.4586 50.4661 73.9959 45.8326C74.4829 45.5686 74.8371 45.0692 75.2524 44.6786V37.1246C75.2009 37.0392 75.1503 36.952 75.0973 36.8667C74.6466 36.1478 74.0332 35.8772 73.2889 36.0709C72.6244 36.2425 72.1875 36.8198 72.1813 37.6109C72.167 39.3478 72.1971 41.0852 72.1546 42.8211C72.1484 43.0973 71.9312 43.4931 71.6925 43.623C64.2346 47.6741 56.7613 51.6998 49.29 55.7265C49.1621 55.7964 49.0232 55.8442 48.7959 55.9418V55.1296C48.7959 47.3008 48.8021 39.4734 48.7826 31.6447C48.7807 31.0955 48.9406 30.7968 49.4428 30.5361C51.4331 29.5017 53.3957 28.4166 55.3712 27.353C55.6108 27.225 55.861 27.1157 56.2185 26.9427C56.2185 28.5535 56.2185 30.0541 56.2195 31.5551C56.2195 32.1338 56.1856 32.7162 56.2348 33.2911C56.3369 34.4807 57.4416 35.1129 58.5172 34.5577C60.4197 33.5743 62.2934 32.538 64.173 31.5124C64.7711 31.1865 64.974 30.6515 64.9707 29.9907C64.9573 27.6001 64.9549 25.2081 64.9812 22.8175C64.9845 22.5432 65.1197 22.1343 65.3273 22.0185C67.5458 20.7763 69.7915 19.5814 72.1766 18.2942V24.8546H72.1756ZM45.7172 55.4757C45.7172 55.5985 45.7029 55.7223 45.6914 55.923C45.4484 55.8124 45.2422 55.7331 45.0498 55.6295C37.6697 51.6515 30.292 47.6703 22.9099 43.6957C22.5576 43.5058 22.3227 43.3365 22.3232 42.8572C22.3437 34.8554 22.3375 26.8531 22.339 18.8513C22.339 18.7092 22.3576 18.5681 22.3729 18.3477C22.6211 18.4663 22.8016 18.5428 22.9725 18.6351C30.3521 22.6145 37.7284 26.5976 45.1119 30.5694C45.5005 30.7776 45.7329 30.9685 45.732 31.4688C45.7129 39.4711 45.7191 47.4729 45.7172 55.4757ZM47.5948 28.0836C47.4148 28.1793 47.0854 28.169 46.9016 28.0705C39.3196 23.9922 31.7452 19.8975 24.1703 15.8047C24.1488 15.7925 24.133 15.7709 24.0648 15.7072C26.0479 14.6352 28.0496 13.6312 29.9635 12.4847C30.9388 11.9009 31.6616 11.9374 32.6575 12.4837C39.67 16.3299 46.7236 20.1048 53.7628 23.9031C54.0025 24.0321 54.234 24.176 54.5419 24.3556C52.1735 25.6325 49.8911 26.8719 47.5948 28.0836ZM57.9926 22.4574C57.7672 22.5531 57.3724 22.3955 57.1098 22.2543C51.0254 18.984 44.9481 15.7011 38.8699 12.4195C37.4644 11.6612 36.058 10.902 34.5227 10.073C35.372 9.61341 36.0914 9.20592 36.8333 8.84062C36.9727 8.77169 37.229 8.82421 37.3828 8.90674C44.9448 12.9813 52.5001 17.0656 60.0568 21.1491C60.0783 21.1603 60.0941 21.1828 60.2086 21.2921C59.4262 21.7151 58.7344 22.1427 57.9926 22.4574ZM61.8886 27.2269C61.8886 29.5429 61.711 29.7797 59.2959 30.5896C59.2959 28.8874 59.2863 27.2564 59.3083 25.625C59.3111 25.4421 59.4496 25.1842 59.6047 25.0909C60.2994 24.6787 61.0226 24.3125 61.8886 23.8482V27.2269ZM63.856 19.3015C63.6163 19.4253 63.1647 19.3423 62.8978 19.1997C57.951 16.5545 53.0185 13.8868 48.0832 11.2228C45.5057 9.83194 42.9268 8.44156 40.282 7.01461C40.4844 6.8819 40.6167 6.78108 40.7613 6.70277C42.7568 5.62282 44.7471 4.53444 46.7579 3.48216C47.0028 3.35414 47.4263 3.30772 47.653 3.42917C55.2026 7.47603 62.7374 11.5482 70.2746 15.6176C70.318 15.641 70.35 15.6846 70.4512 15.778C68.2199 16.9789 66.0511 18.1667 63.856 19.3015Z" fill="#333333"/>
<path d="M75.2519 31.988C75.1444 32.1183 75.0385 32.2492 74.9301 32.3786C74.33 33.0947 73.2907 33.1655 72.6414 32.5357C72.0017 31.9148 72.0318 30.923 72.7087 30.3392C73.3881 29.7531 74.4388 29.8872 74.9788 30.6342C75.0809 30.7758 75.1616 30.932 75.2519 31.0815C75.2519 31.3835 75.2519 31.686 75.2519 31.988Z" fill="#333333"/>
</g>
<defs>
<clipPath id="clip0_545_5581">
<rect width="153.947" height="60" fill="white"/>
</clipPath>
</defs>
</svg>
