<svg width="17" height="16" viewBox="0 0 17 16" fill="none" xmlns="http://www.w3.org/2000/svg">
<path d="M8.12873 7.24683C8.06189 7.24016 7.98167 7.24016 7.90813 7.24683C6.31714 7.1935 5.05371 5.8935 5.05371 4.2935C5.05371 2.66016 6.37731 1.3335 8.02178 1.3335C9.65956 1.3335 10.9898 2.66016 10.9898 4.2935C10.9832 5.8935 9.71972 7.1935 8.12873 7.24683Z" stroke="#F0BA1B" stroke-width="1.5" stroke-linecap="round" stroke-linejoin="round"/>
<path d="M4.78654 9.7065C3.16881 10.7865 3.16881 12.5465 4.78654 13.6198C6.62487 14.8465 9.63973 14.8465 11.4781 13.6198C13.0958 12.5398 13.0958 10.7798 11.4781 9.7065C9.64641 8.4865 6.63155 8.4865 4.78654 9.7065Z" stroke="#F0BA1B" stroke-width="1.5" stroke-linecap="round" stroke-linejoin="round"/>
</svg>
