<svg width="116" height="77" viewBox="0 0 116 77" fill="none" xmlns="http://www.w3.org/2000/svg">
<g clip-path="url(#clip0_625_6573)">
<path d="M72.9679 -17.4153C73.5948 -16.4908 74.2186 -15.5644 75.125 -14.229C85.9835 -12.2069 94.5857 -6.1327 100.11 4.47651C106.848 17.4143 104.171 34.9224 93.0192 44.1491C87.8167 48.4565 81.6051 51.5953 75.647 54.9018C64.295 61.202 52.7953 67.239 41.3632 73.4005C40.0078 74.1314 38.6934 74.9333 37.3571 75.7048C37.128 75.3079 36.8956 74.9128 36.6665 74.5159C42.5033 71.1459 48.3434 67.7742 54.1802 64.4043C60.0679 61.005 65.9524 57.6076 71.84 54.2084C71.689 53.8955 71.5379 53.5825 71.39 53.2678C67.4904 52.8171 63.8315 52.3437 60.0435 54.8276C53.3415 59.2133 46.2208 62.9544 39.2731 66.9657C39.0533 66.5849 38.8334 66.2041 38.6136 65.8233C46.25 61.4144 53.8865 57.0055 62.0404 52.2978C59.4635 51.1696 57.6248 50.2132 55.6794 49.5852C54.8997 49.334 53.7936 49.6026 53.0185 49.9899C47.9762 52.5224 42.9834 55.1554 37.6874 57.2923C42.7085 54.3934 47.7329 51.4926 53.119 48.3829C51.1749 46.8333 49.8174 45.5303 48.2443 44.6013C47.6096 44.2277 46.3573 44.4042 45.6452 44.7981C40.9724 47.3842 36.3671 50.0946 31.3898 52.168C36.2599 49.0293 41.1299 45.8905 46.1721 42.6395C44.8599 41.0263 43.6231 39.5073 42.2285 37.7954C36.746 40.6209 31.4004 43.3758 26.0517 46.1326C25.8976 45.873 25.7486 45.6149 25.5945 45.3553C30.7775 42.3629 35.9637 39.3686 41.1912 36.3505C40.2295 34.0617 39.5048 32.3374 38.6924 30.4099C35.7013 31.7968 32.787 33.1481 29.8727 34.4994C29.8032 34.3717 29.7351 34.2389 29.6656 34.1112C31.7159 32.9275 33.7229 31.6612 35.8265 30.5843C37.6815 29.6339 38.415 28.4488 37.6026 26.3233C37.1135 25.0438 37.0154 23.6204 36.6622 21.8579C33.9104 23.4467 31.3142 24.9457 28.7147 26.4464C28.5984 26.2597 28.4771 26.0716 28.3609 25.8849C30.2421 24.5621 32.0291 23.0614 34.0357 21.9631C35.963 20.9106 37.0228 19.7265 36.7514 17.336C36.5785 15.8051 36.9883 14.2132 37.1601 12.4144C34.6487 13.5546 32.342 14.6024 30.0354 15.6501C36.5256 13.0819 39.5061 7.70389 41.0657 1.111C35.9907 3.69683 30.8009 6.34035 25.6124 8.97881C34.2877 3.14401 43.6851 -1.62328 51.252 -9.25341C50.8218 -10.0937 50.4253 -10.8758 49.9518 -11.7986C51.0214 -12.4161 52.0148 -12.9897 53.2082 -13.6787C53.7288 -12.9896 54.3023 -12.2236 54.6314 -11.7854C60.3413 -12.9565 65.8803 -14.0935 71.6439 -15.274C71.7216 -15.7406 71.8856 -16.7173 72.0495 -17.694C72.3523 -17.602 72.6601 -17.5087 72.9679 -17.4153ZM55.2761 -6.6373C40.9394 1.71316 36.3708 19.5134 44.83 34.0991C53.0991 48.3556 71.2375 53.3774 85.2843 45.3018C99.2373 37.2762 104.071 18.4323 95.7902 4.32437C87.4662 -9.86603 69.2719 -14.7866 55.2761 -6.6373Z" fill="url(#paint0_linear_625_6573)"/>
<path d="M69.4158 27.7484C68.5669 27.5242 67.7149 27.3019 66.8679 27.0809C67.0956 26.9108 67.3282 26.7421 67.5558 26.5719C66.9891 24.7693 66.4996 22.9393 65.8429 21.1714C64.9492 18.7659 65.9025 15.5134 68.2638 14.8902C70.1441 14.3941 70.4229 13.1617 70.8824 11.7734C72.5236 6.82439 74.1731 1.87492 76.2045 -2.95522C75.2055 2.30716 74.1183 7.55596 73.2762 12.8482C73.0894 14.0274 73.5218 15.4946 74.1046 16.5994C75.5159 19.2784 74.964 21.6795 72.5913 23.3678C71.2902 24.2954 70.3199 25.686 69.2007 26.87C69.2743 27.1588 69.3466 27.4527 69.4158 27.7484ZM71.5511 21.9547C71.8007 20.21 72.3676 18.949 71.9601 18.3238C71.5669 17.7161 70.0922 17.4488 69.2456 17.6536C68.8027 17.7587 68.247 19.4349 68.5398 19.9715C68.9437 20.715 70.0951 21.0527 71.5511 21.9547Z" fill="url(#paint1_linear_625_6573)"/>
</g>
<defs>
<linearGradient id="paint0_linear_625_6573" x1="41.5857" y1="-6.96845" x2="76.9708" y2="54.3202" gradientUnits="userSpaceOnUse">
<stop stop-color="#F1BC22"/>
<stop offset="1" stop-color="white" stop-opacity="0.44"/>
</linearGradient>
<linearGradient id="paint1_linear_625_6573" x1="66.2003" y1="2.82073" x2="77.7981" y2="22.9088" gradientUnits="userSpaceOnUse">
<stop stop-color="#F1BC22"/>
<stop offset="1" stop-color="white" stop-opacity="0.44"/>
</linearGradient>
<clipPath id="clip0_625_6573">
<rect width="90" height="76" fill="white" transform="translate(0 11) rotate(-30)"/>
</clipPath>
</defs>
</svg>
